<?xml version="1.0" encoding="utf-8" standalone="no"?>
<!DOCTYPE svg PUBLIC "-//W3C//DTD SVG 1.1//EN"
  "http://www.w3.org/Graphics/SVG/1.1/DTD/svg11.dtd">
<svg xmlns:xlink="http://www.w3.org/1999/xlink" width="340.15748pt" height="510.23622pt" viewBox="0 0 340.15748 510.23622" xmlns="http://www.w3.org/2000/svg" version="1.1">
 <metadata>
  <rdf:RDF xmlns:dc="http://purl.org/dc/elements/1.1/" xmlns:cc="http://creativecommons.org/ns#" xmlns:rdf="http://www.w3.org/1999/02/22-rdf-syntax-ns#">
   <cc:Work>
    <dc:type rdf:resource="http://purl.org/dc/dcmitype/StillImage"/>
    <dc:date>2024-06-07T16:38:20.209544</dc:date>
    <dc:format>image/svg+xml</dc:format>
    <dc:creator>
     <cc:Agent>
      <dc:title>Matplotlib v3.8.4, https://matplotlib.org/</dc:title>
     </cc:Agent>
    </dc:creator>
   </cc:Work>
  </rdf:RDF>
 </metadata>
 <defs>
  <style type="text/css">*{stroke-linejoin: round; stroke-linecap: butt}</style>
 </defs>
 <g id="figure_1">
  <g id="patch_1">
   <path d="M 0 510.23622 
L 340.15748 510.23622 
L 340.15748 0 
L 0 0 
z
" style="fill: #ffffff"/>
  </g>
  <g id="axes_1">
   <g id="patch_2">
    <path d="M 33.52 451.71622 
L 311.22248 451.71622 
L 311.22248 10.8 
L 33.52 10.8 
z
" style="fill: #ffffff"/>
   </g>
   <g id="PolyCollection_1">
    <defs>
     <path id="m257734559a" d="M 61.290248 -78.516695 
L 61.290248 -78.516695 
L 64.375831 -80.225483 
L 67.461414 -81.934272 
L 70.546997 -83.648737 
L 73.63258 -85.357525 
L 76.718164 -87.066314 
L 79.803747 -88.780779 
L 82.88933 -90.489567 
L 85.974913 -92.198356 
L 89.060496 -93.912821 
L 92.146079 -95.621609 
L 95.231662 -97.330398 
L 98.317245 -99.044863 
L 101.402829 -100.753651 
L 104.488412 -102.46244 
L 107.573995 -104.171228 
L 110.659578 -105.885693 
L 113.745161 -107.594482 
L 116.830744 -109.30327 
L 119.916327 -111.017735 
L 123.00191 -112.726524 
L 126.087493 -114.435312 
L 129.173077 -116.149777 
L 132.25866 -117.858566 
L 135.344243 -119.567354 
L 138.429826 -121.281819 
L 141.515409 -122.990608 
L 144.600992 -124.699396 
L 147.686575 -126.408184 
L 150.772158 -128.12265 
L 153.857741 -129.831438 
L 156.943325 -131.540226 
L 160.028908 -133.254692 
L 163.114491 -134.96348 
L 166.200074 -136.672268 
L 169.285657 -138.386734 
L 172.37124 -140.095522 
L 175.456823 -141.80431 
L 178.542406 -143.518776 
L 181.62799 -145.227564 
L 184.713573 -146.936352 
L 187.799156 -148.645141 
L 190.884739 -150.359606 
L 193.970322 -152.068394 
L 197.055905 -153.777183 
L 200.141488 -155.491648 
L 203.227071 -157.200436 
L 206.312654 -158.909225 
L 209.398238 -160.62369 
L 212.483821 -162.332478 
L 215.569404 -164.041267 
L 218.654987 -165.755732 
L 221.74057 -167.46452 
L 224.826153 -169.173309 
L 227.911736 -170.887774 
L 230.997319 -172.596562 
L 234.082902 -174.305351 
L 237.168486 -176.014139 
L 240.254069 -177.728604 
L 243.339652 -179.437393 
L 246.425235 -181.146181 
L 249.510818 -182.860646 
L 252.596401 -184.569435 
L 255.681984 -186.278223 
L 258.767567 -187.992688 
L 261.85315 -189.701477 
L 264.938734 -191.410265 
L 268.024317 -193.12473 
L 271.1099 -194.833519 
L 274.195483 -196.542307 
L 277.281066 -198.251095 
L 280.366649 -199.965561 
L 283.452232 -201.674349 
L 286.537815 -203.383137 
L 289.623399 -205.097603 
L 292.708982 -206.806391 
L 295.794565 -208.515179 
L 298.880148 -210.229645 
L 301.965731 -211.938433 
L 305.051314 -213.647221 
L 308.136897 -215.361687 
L 311.22248 -217.070475 
L 314.308063 -218.779263 
L 317.393647 -220.488052 
L 320.47923 -222.202517 
L 323.564813 -223.911305 
L 326.650396 -225.620094 
L 329.735979 -227.334559 
L 332.821562 -229.043347 
L 335.907145 -230.752136 
L 338.992728 -232.466601 
L 338.992728 -232.477955 
L 338.992728 -232.477955 
L 335.907145 -230.774844 
L 332.821562 -229.077409 
L 329.735979 -227.385652 
L 326.650396 -225.693895 
L 323.564813 -224.013492 
L 320.47923 -222.338766 
L 317.393647 -220.675394 
L 314.308063 -219.023376 
L 311.22248 -217.382712 
L 308.136897 -215.753402 
L 305.051314 -214.135447 
L 301.965731 -212.528845 
L 298.880148 -210.939274 
L 295.794565 -209.372412 
L 292.708982 -207.822581 
L 289.623399 -206.306812 
L 286.537815 -204.836459 
L 283.452232 -203.428554 
L 280.366649 -202.105804 
L 277.281066 -200.902272 
L 274.195483 -199.863374 
L 271.1099 -199.040204 
L 268.024317 -198.495208 
L 264.938734 -198.302189 
L 261.85315 -198.523593 
L 258.767567 -199.221869 
L 255.681984 -200.442432 
L 252.596401 -202.173928 
L 249.510818 -204.387973 
L 246.425235 -206.971025 
L 243.339652 -209.769805 
L 240.254069 -212.551553 
L 237.168486 -215.060804 
L 234.082902 -217.019382 
L 230.997319 -218.149112 
L 227.911736 -218.239945 
L 224.826153 -217.138599 
L 221.74057 -214.79966 
L 218.654987 -211.268543 
L 215.569404 -206.698527 
L 212.483821 -201.305342 
L 209.398238 -195.36716 
L 206.312654 -189.162158 
L 203.227071 -182.945802 
L 200.141488 -176.945173 
L 197.055905 -171.319229 
L 193.970322 -166.175833 
L 190.884739 -161.54337 
L 187.799156 -157.433195 
L 184.713573 -153.799891 
L 181.62799 -150.58101 
L 178.542406 -147.708429 
L 175.456823 -145.114023 
L 172.37124 -142.735345 
L 169.285657 -140.5213 
L 166.200074 -138.420796 
L 163.114491 -136.411125 
L 160.028908 -134.463901 
L 156.943325 -132.556416 
L 153.857741 -130.682994 
L 150.772158 -128.832279 
L 147.686575 -126.998596 
L 144.600992 -125.181944 
L 141.515409 -123.382323 
L 138.429826 -121.588379 
L 135.344243 -119.811467 
L 132.25866 -118.045908 
L 129.173077 -116.286026 
L 126.087493 -114.537499 
L 123.00191 -112.800325 
L 119.916327 -111.068829 
L 116.830744 -109.337332 
L 113.745161 -107.61719 
L 110.659578 -105.897047 
L 107.573995 -104.182582 
L 104.488412 -102.468117 
L 101.402829 -100.753651 
L 98.317245 -99.044863 
L 95.231662 -97.330398 
L 92.146079 -95.621609 
L 89.060496 -93.912821 
L 85.974913 -92.198356 
L 82.88933 -90.489567 
L 79.803747 -88.780779 
L 76.718164 -87.066314 
L 73.63258 -85.357525 
L 70.546997 -83.648737 
L 67.461414 -81.934272 
L 64.375831 -80.225483 
L 61.290248 -78.516695 
z
" style="stroke: #6baed6; stroke-opacity: 0.8"/>
    </defs>
    <g clip-path="url(#p6678087eca)">
     <use xlink:href="#m257734559a" x="0" y="510.23622" style="fill: #6baed6; fill-opacity: 0.8; stroke: #6baed6; stroke-opacity: 0.8"/>
    </g>
   </g>
   <g id="PolyCollection_2">
    <defs>
     <path id="mbf6f27d1e9" d="M 61.290248 -78.840286 
L 61.290248 -78.516695 
L 64.375831 -80.225483 
L 67.461414 -81.934272 
L 70.546997 -83.648737 
L 73.63258 -85.357525 
L 76.718164 -87.066314 
L 79.803747 -88.780779 
L 82.88933 -90.489567 
L 85.974913 -92.198356 
L 89.060496 -93.912821 
L 92.146079 -95.621609 
L 95.231662 -97.330398 
L 98.317245 -99.044863 
L 101.402829 -100.753651 
L 104.488412 -102.46244 
L 107.573995 -104.171228 
L 110.659578 -105.885693 
L 113.745161 -107.594482 
L 116.830744 -109.30327 
L 119.916327 -111.017735 
L 123.00191 -112.726524 
L 126.087493 -114.435312 
L 129.173077 -116.149777 
L 132.25866 -117.858566 
L 135.344243 -119.567354 
L 138.429826 -121.281819 
L 141.515409 -122.990608 
L 144.600992 -124.699396 
L 147.686575 -126.408184 
L 150.772158 -128.12265 
L 153.857741 -129.831438 
L 156.943325 -131.540226 
L 160.028908 -133.254692 
L 163.114491 -134.96348 
L 166.200074 -136.672268 
L 169.285657 -138.386734 
L 172.37124 -140.095522 
L 175.456823 -141.80431 
L 178.542406 -143.518776 
L 181.62799 -145.227564 
L 184.713573 -146.936352 
L 187.799156 -148.645141 
L 190.884739 -150.359606 
L 193.970322 -152.068394 
L 197.055905 -153.777183 
L 200.141488 -155.491648 
L 203.227071 -157.200436 
L 206.312654 -158.909225 
L 209.398238 -160.62369 
L 212.483821 -162.332478 
L 215.569404 -164.041267 
L 218.654987 -165.755732 
L 221.74057 -167.46452 
L 224.826153 -169.173309 
L 227.911736 -170.887774 
L 230.997319 -172.596562 
L 234.082902 -174.305351 
L 237.168486 -176.014139 
L 240.254069 -177.728604 
L 243.339652 -179.437393 
L 246.425235 -181.146181 
L 249.510818 -182.860646 
L 252.596401 -184.569435 
L 255.681984 -186.278223 
L 258.767567 -187.992688 
L 261.85315 -189.701477 
L 264.938734 -191.410265 
L 268.024317 -193.12473 
L 271.1099 -194.833519 
L 274.195483 -196.542307 
L 277.281066 -198.251095 
L 280.366649 -199.965561 
L 283.452232 -201.674349 
L 286.537815 -203.383137 
L 289.623399 -205.097603 
L 292.708982 -206.806391 
L 295.794565 -208.515179 
L 298.880148 -210.229645 
L 301.965731 -211.938433 
L 305.051314 -213.647221 
L 308.136897 -215.361687 
L 311.22248 -217.070475 
L 314.308063 -218.779263 
L 317.393647 -220.488052 
L 320.47923 -222.202517 
L 323.564813 -223.911305 
L 326.650396 -225.620094 
L 329.735979 -227.334559 
L 332.821562 -229.043347 
L 335.907145 -230.752136 
L 338.992728 -232.466601 
L 338.992728 -232.466601 
L 338.992728 -232.466601 
L 335.907145 -230.752136 
L 332.821562 -229.043347 
L 329.735979 -227.334559 
L 326.650396 -225.620094 
L 323.564813 -223.911305 
L 320.47923 -222.202517 
L 317.393647 -220.488052 
L 314.308063 -218.779263 
L 311.22248 -217.070475 
L 308.136897 -215.361687 
L 305.051314 -213.647221 
L 301.965731 -211.938433 
L 298.880148 -210.229645 
L 295.794565 -208.515179 
L 292.708982 -206.806391 
L 289.623399 -205.097603 
L 286.537815 -203.388814 
L 283.452232 -201.674349 
L 280.366649 -199.965561 
L 277.281066 -198.262449 
L 274.195483 -196.553661 
L 271.1099 -194.85055 
L 268.024317 -193.153116 
L 264.938734 -191.455681 
L 261.85315 -189.769601 
L 258.767567 -188.089198 
L 255.681984 -186.420149 
L 252.596401 -184.768131 
L 249.510818 -183.127467 
L 246.425235 -181.503834 
L 243.339652 -179.90291 
L 240.254069 -178.319016 
L 237.168486 -176.757831 
L 234.082902 -175.219354 
L 230.997319 -173.709262 
L 227.911736 -172.227555 
L 224.826153 -170.77991 
L 221.74057 -169.377682 
L 218.654987 -168.032224 
L 215.569404 -166.777599 
L 212.483821 -165.642191 
L 209.398238 -164.665741 
L 206.312654 -163.922049 
L 203.227071 -163.496271 
L 200.141488 -163.47924 
L 197.055905 -163.990173 
L 193.970322 -165.159643 
L 190.884739 -167.112544 
L 187.799156 -169.951063 
L 184.713573 -173.743324 
L 181.62799 -178.48365 
L 178.542406 -184.075532 
L 175.456823 -190.314597 
L 172.37124 -196.888606 
L 169.285657 -203.37746 
L 166.200074 -209.287256 
L 163.114491 -214.107061 
L 160.028908 -217.360004 
L 156.943325 -218.648691 
L 153.857741 -217.729011 
L 150.772158 -214.538516 
L 147.686575 -209.196424 
L 144.600992 -202.003617 
L 141.515409 -193.37452 
L 138.429826 -183.808712 
L 135.344243 -173.828479 
L 132.25866 -163.893664 
L 129.173077 -154.401657 
L 126.087493 -145.630634 
L 123.00191 -137.756583 
L 119.916327 -130.836274 
L 116.830744 -124.852676 
L 113.745161 -119.731988 
L 110.659578 -115.354992 
L 107.573995 -111.596793 
L 104.488412 -108.32682 
L 101.402829 -105.442884 
L 98.317245 -102.842801 
L 95.231662 -100.447091 
L 92.146079 -98.204662 
L 89.060496 -96.070095 
L 85.974913 -94.015008 
L 82.88933 -92.011013 
L 79.803747 -90.046758 
L 76.718164 -88.116566 
L 73.63258 -86.214758 
L 70.546997 -84.341336 
L 67.461414 -82.484944 
L 64.375831 -80.656938 
L 61.290248 -78.840286 
z
" style="stroke: #9ecae1; stroke-opacity: 0.8"/>
    </defs>
    <g clip-path="url(#p6678087eca)">
     <use xlink:href="#mbf6f27d1e9" x="0" y="510.23622" style="fill: #9ecae1; fill-opacity: 0.8; stroke: #9ecae1; stroke-opacity: 0.8"/>
    </g>
   </g>
   <g id="PathCollection_1">
    <defs>
     <path id="m932aa33095" d="M 0 1.936492 
C 0.513564 1.936492 1.006162 1.732451 1.369306 1.369306 
C 1.732451 1.006162 1.936492 0.513564 1.936492 0 
C 1.936492 -0.513564 1.732451 -1.006162 1.369306 -1.369306 
C 1.006162 -1.732451 0.513564 -1.936492 0 -1.936492 
C -0.513564 -1.936492 -1.006162 -1.732451 -1.369306 -1.369306 
C -1.732451 -1.006162 -1.936492 -0.513564 -1.936492 0 
C -1.936492 0.513564 -1.732451 1.006162 -1.369306 1.369306 
C -1.006162 1.732451 -0.513564 1.936492 0 1.936492 
z
" style="stroke: #6495ed; stroke-width: 1.5"/>
    </defs>
    <g clip-path="url(#p6678087eca)">
     <use xlink:href="#m932aa33095" x="33.52" y="451.401815" style="fill: #6495ed; stroke: #6495ed; stroke-width: 1.5"/>
     <use xlink:href="#m932aa33095" x="36.605583" y="447.899083" style="fill: #6495ed; stroke: #6495ed; stroke-width: 1.5"/>
     <use xlink:href="#m932aa33095" x="39.691166" y="448.239705" style="fill: #6495ed; stroke: #6495ed; stroke-width: 1.5"/>
     <use xlink:href="#m932aa33095" x="42.776749" y="445.35577" style="fill: #6495ed; stroke: #6495ed; stroke-width: 1.5"/>
     <use xlink:href="#m932aa33095" x="45.862332" y="443.805938" style="fill: #6495ed; stroke: #6495ed; stroke-width: 1.5"/>
     <use xlink:href="#m932aa33095" x="48.947916" y="442.693239" style="fill: #6495ed; stroke: #6495ed; stroke-width: 1.5"/>
     <use xlink:href="#m932aa33095" x="52.033499" y="442.681885" style="fill: #6495ed; stroke: #6495ed; stroke-width: 1.5"/>
     <use xlink:href="#m932aa33095" x="55.119082" y="440.274821" style="fill: #6495ed; stroke: #6495ed; stroke-width: 1.5"/>
     <use xlink:href="#m932aa33095" x="58.204665" y="429.460064" style="fill: #6495ed; stroke: #6495ed; stroke-width: 1.5"/>
     <use xlink:href="#m932aa33095" x="61.290248" y="427.927264" style="fill: #6495ed; stroke: #6495ed; stroke-width: 1.5"/>
     <use xlink:href="#m932aa33095" x="64.375831" y="426.468266" style="fill: #6495ed; stroke: #6495ed; stroke-width: 1.5"/>
     <use xlink:href="#m932aa33095" x="67.461414" y="434.472889" style="fill: #6495ed; stroke: #6495ed; stroke-width: 1.5"/>
     <use xlink:href="#m932aa33095" x="70.546997" y="428.619863" style="fill: #6495ed; stroke: #6495ed; stroke-width: 1.5"/>
     <use xlink:href="#m932aa33095" x="73.63258" y="425.36692" style="fill: #6495ed; stroke: #6495ed; stroke-width: 1.5"/>
     <use xlink:href="#m932aa33095" x="76.718164" y="425.61671" style="fill: #6495ed; stroke: #6495ed; stroke-width: 1.5"/>
     <use xlink:href="#m932aa33095" x="79.803747" y="418.747494" style="fill: #6495ed; stroke: #6495ed; stroke-width: 1.5"/>
     <use xlink:href="#m932aa33095" x="82.88933" y="417.844845" style="fill: #6495ed; stroke: #6495ed; stroke-width: 1.5"/>
     <use xlink:href="#m932aa33095" x="85.974913" y="416.289337" style="fill: #6495ed; stroke: #6495ed; stroke-width: 1.5"/>
     <use xlink:href="#m932aa33095" x="89.060496" y="414.625965" style="fill: #6495ed; stroke: #6495ed; stroke-width: 1.5"/>
     <use xlink:href="#m932aa33095" x="92.146079" y="415.125544" style="fill: #6495ed; stroke: #6495ed; stroke-width: 1.5"/>
     <use xlink:href="#m932aa33095" x="95.231662" y="408.012216" style="fill: #6495ed; stroke: #6495ed; stroke-width: 1.5"/>
     <use xlink:href="#m932aa33095" x="98.317245" y="407.955446" style="fill: #6495ed; stroke: #6495ed; stroke-width: 1.5"/>
     <use xlink:href="#m932aa33095" x="101.402829" y="407.268524" style="fill: #6495ed; stroke: #6495ed; stroke-width: 1.5"/>
     <use xlink:href="#m932aa33095" x="104.488412" y="405.707339" style="fill: #6495ed; stroke: #6495ed; stroke-width: 1.5"/>
     <use xlink:href="#m932aa33095" x="107.573995" y="397.838965" style="fill: #6495ed; stroke: #6495ed; stroke-width: 1.5"/>
     <use xlink:href="#m932aa33095" x="110.659578" y="397.112304" style="fill: #6495ed; stroke: #6495ed; stroke-width: 1.5"/>
     <use xlink:href="#m932aa33095" x="113.745161" y="390.515586" style="fill: #6495ed; stroke: #6495ed; stroke-width: 1.5"/>
     <use xlink:href="#m932aa33095" x="116.830744" y="385.883124" style="fill: #6495ed; stroke: #6495ed; stroke-width: 1.5"/>
     <use xlink:href="#m932aa33095" x="119.916327" y="376.493304" style="fill: #6495ed; stroke: #6495ed; stroke-width: 1.5"/>
     <use xlink:href="#m932aa33095" x="123.00191" y="374.500663" style="fill: #6495ed; stroke: #6495ed; stroke-width: 1.5"/>
     <use xlink:href="#m932aa33095" x="126.087493" y="362.72081" style="fill: #6495ed; stroke: #6495ed; stroke-width: 1.5"/>
     <use xlink:href="#m932aa33095" x="129.173077" y="357.185699" style="fill: #6495ed; stroke: #6495ed; stroke-width: 1.5"/>
     <use xlink:href="#m932aa33095" x="132.25866" y="347.25656" style="fill: #6495ed; stroke: #6495ed; stroke-width: 1.5"/>
     <use xlink:href="#m932aa33095" x="135.344243" y="335.170147" style="fill: #6495ed; stroke: #6495ed; stroke-width: 1.5"/>
     <use xlink:href="#m932aa33095" x="138.429826" y="325.52486" style="fill: #6495ed; stroke: #6495ed; stroke-width: 1.5"/>
     <use xlink:href="#m932aa33095" x="141.515409" y="319.637772" style="fill: #6495ed; stroke: #6495ed; stroke-width: 1.5"/>
     <use xlink:href="#m932aa33095" x="144.600992" y="308.936556" style="fill: #6495ed; stroke: #6495ed; stroke-width: 1.5"/>
     <use xlink:href="#m932aa33095" x="147.686575" y="303.094884" style="fill: #6495ed; stroke: #6495ed; stroke-width: 1.5"/>
     <use xlink:href="#m932aa33095" x="150.772158" y="289.634628" style="fill: #6495ed; stroke: #6495ed; stroke-width: 1.5"/>
     <use xlink:href="#m932aa33095" x="153.857741" y="289.628951" style="fill: #6495ed; stroke: #6495ed; stroke-width: 1.5"/>
     <use xlink:href="#m932aa33095" x="156.943325" y="290.032021" style="fill: #6495ed; stroke: #6495ed; stroke-width: 1.5"/>
     <use xlink:href="#m932aa33095" x="160.028908" y="287.721466" style="fill: #6495ed; stroke: #6495ed; stroke-width: 1.5"/>
     <use xlink:href="#m932aa33095" x="163.114491" y="296.747956" style="fill: #6495ed; stroke: #6495ed; stroke-width: 1.5"/>
     <use xlink:href="#m932aa33095" x="166.200074" y="300.415323" style="fill: #6495ed; stroke: #6495ed; stroke-width: 1.5"/>
     <use xlink:href="#m932aa33095" x="169.285657" y="307.494588" style="fill: #6495ed; stroke: #6495ed; stroke-width: 1.5"/>
     <use xlink:href="#m932aa33095" x="172.37124" y="307.534328" style="fill: #6495ed; stroke: #6495ed; stroke-width: 1.5"/>
     <use xlink:href="#m932aa33095" x="175.456823" y="318.201481" style="fill: #6495ed; stroke: #6495ed; stroke-width: 1.5"/>
     <use xlink:href="#m932aa33095" x="178.542406" y="324.531378" style="fill: #6495ed; stroke: #6495ed; stroke-width: 1.5"/>
     <use xlink:href="#m932aa33095" x="181.62799" y="326.370738" style="fill: #6495ed; stroke: #6495ed; stroke-width: 1.5"/>
     <use xlink:href="#m932aa33095" x="184.713573" y="327.296096" style="fill: #6495ed; stroke: #6495ed; stroke-width: 1.5"/>
     <use xlink:href="#m932aa33095" x="187.799156" y="337.316067" style="fill: #6495ed; stroke: #6495ed; stroke-width: 1.5"/>
     <use xlink:href="#m932aa33095" x="190.884739" y="332.876624" style="fill: #6495ed; stroke: #6495ed; stroke-width: 1.5"/>
     <use xlink:href="#m932aa33095" x="193.970322" y="330.12326" style="fill: #6495ed; stroke: #6495ed; stroke-width: 1.5"/>
     <use xlink:href="#m932aa33095" x="197.055905" y="329.283059" style="fill: #6495ed; stroke: #6495ed; stroke-width: 1.5"/>
     <use xlink:href="#m932aa33095" x="200.141488" y="322.010774" style="fill: #6495ed; stroke: #6495ed; stroke-width: 1.5"/>
     <use xlink:href="#m932aa33095" x="203.227071" y="319.490169" style="fill: #6495ed; stroke: #6495ed; stroke-width: 1.5"/>
     <use xlink:href="#m932aa33095" x="206.312654" y="311.389036" style="fill: #6495ed; stroke: #6495ed; stroke-width: 1.5"/>
     <use xlink:href="#m932aa33095" x="209.398238" y="310.57722" style="fill: #6495ed; stroke: #6495ed; stroke-width: 1.5"/>
     <use xlink:href="#m932aa33095" x="212.483821" y="308.567549" style="fill: #6495ed; stroke: #6495ed; stroke-width: 1.5"/>
     <use xlink:href="#m932aa33095" x="215.569404" y="299.529705" style="fill: #6495ed; stroke: #6495ed; stroke-width: 1.5"/>
     <use xlink:href="#m932aa33095" x="218.654987" y="299.893035" style="fill: #6495ed; stroke: #6495ed; stroke-width: 1.5"/>
     <use xlink:href="#m932aa33095" x="221.74057" y="288.629792" style="fill: #6495ed; stroke: #6495ed; stroke-width: 1.5"/>
     <use xlink:href="#m932aa33095" x="224.826153" y="292.331221" style="fill: #6495ed; stroke: #6495ed; stroke-width: 1.5"/>
     <use xlink:href="#m932aa33095" x="227.911736" y="289.15208" style="fill: #6495ed; stroke: #6495ed; stroke-width: 1.5"/>
     <use xlink:href="#m932aa33095" x="230.997319" y="296.79905" style="fill: #6495ed; stroke: #6495ed; stroke-width: 1.5"/>
     <use xlink:href="#m932aa33095" x="234.082902" y="298.127476" style="fill: #6495ed; stroke: #6495ed; stroke-width: 1.5"/>
     <use xlink:href="#m932aa33095" x="237.168486" y="290.202332" style="fill: #6495ed; stroke: #6495ed; stroke-width: 1.5"/>
     <use xlink:href="#m932aa33095" x="240.254069" y="301.681302" style="fill: #6495ed; stroke: #6495ed; stroke-width: 1.5"/>
     <use xlink:href="#m932aa33095" x="243.339652" y="300.53454" style="fill: #6495ed; stroke: #6495ed; stroke-width: 1.5"/>
     <use xlink:href="#m932aa33095" x="246.425235" y="301.868644" style="fill: #6495ed; stroke: #6495ed; stroke-width: 1.5"/>
     <use xlink:href="#m932aa33095" x="249.510818" y="304.094043" style="fill: #6495ed; stroke: #6495ed; stroke-width: 1.5"/>
     <use xlink:href="#m932aa33095" x="252.596401" y="306.126422" style="fill: #6495ed; stroke: #6495ed; stroke-width: 1.5"/>
     <use xlink:href="#m932aa33095" x="255.681984" y="304.701486" style="fill: #6495ed; stroke: #6495ed; stroke-width: 1.5"/>
     <use xlink:href="#m932aa33095" x="258.767567" y="310.225244" style="fill: #6495ed; stroke: #6495ed; stroke-width: 1.5"/>
     <use xlink:href="#m932aa33095" x="261.85315" y="307.046102" style="fill: #6495ed; stroke: #6495ed; stroke-width: 1.5"/>
     <use xlink:href="#m932aa33095" x="264.938734" y="311.065445" style="fill: #6495ed; stroke: #6495ed; stroke-width: 1.5"/>
     <use xlink:href="#m932aa33095" x="268.024317" y="310.849718" style="fill: #6495ed; stroke: #6495ed; stroke-width: 1.5"/>
     <use xlink:href="#m932aa33095" x="271.1099" y="308.27802" style="fill: #6495ed; stroke: #6495ed; stroke-width: 1.5"/>
     <use xlink:href="#m932aa33095" x="274.195483" y="310.543158" style="fill: #6495ed; stroke: #6495ed; stroke-width: 1.5"/>
     <use xlink:href="#m932aa33095" x="277.281066" y="306.637356" style="fill: #6495ed; stroke: #6495ed; stroke-width: 1.5"/>
     <use xlink:href="#m932aa33095" x="280.366649" y="308.476716" style="fill: #6495ed; stroke: #6495ed; stroke-width: 1.5"/>
     <use xlink:href="#m932aa33095" x="283.452232" y="301.55073" style="fill: #6495ed; stroke: #6495ed; stroke-width: 1.5"/>
     <use xlink:href="#m932aa33095" x="286.537815" y="307.636514" style="fill: #6495ed; stroke: #6495ed; stroke-width: 1.5"/>
     <use xlink:href="#m932aa33095" x="289.623399" y="301.295263" style="fill: #6495ed; stroke: #6495ed; stroke-width: 1.5"/>
     <use xlink:href="#m932aa33095" x="292.708982" y="294.181935" style="fill: #6495ed; stroke: #6495ed; stroke-width: 1.5"/>
     <use xlink:href="#m932aa33095" x="295.794565" y="297.185088" style="fill: #6495ed; stroke: #6495ed; stroke-width: 1.5"/>
     <use xlink:href="#m932aa33095" x="298.880148" y="297.168057" style="fill: #6495ed; stroke: #6495ed; stroke-width: 1.5"/>
     <use xlink:href="#m932aa33095" x="301.965731" y="294.176258" style="fill: #6495ed; stroke: #6495ed; stroke-width: 1.5"/>
     <use xlink:href="#m932aa33095" x="305.051314" y="294.715577" style="fill: #6495ed; stroke: #6495ed; stroke-width: 1.5"/>
     <use xlink:href="#m932aa33095" x="308.136897" y="294.431725" style="fill: #6495ed; stroke: #6495ed; stroke-width: 1.5"/>
     <use xlink:href="#m932aa33095" x="311.22248" y="289.924157" style="fill: #6495ed; stroke: #6495ed; stroke-width: 1.5"/>
     <use xlink:href="#m932aa33095" x="314.308063" y="289.265621" style="fill: #6495ed; stroke: #6495ed; stroke-width: 1.5"/>
     <use xlink:href="#m932aa33095" x="317.393647" y="286.012678" style="fill: #6495ed; stroke: #6495ed; stroke-width: 1.5"/>
     <use xlink:href="#m932aa33095" x="320.47923" y="283.066296" style="fill: #6495ed; stroke: #6495ed; stroke-width: 1.5"/>
     <use xlink:href="#m932aa33095" x="323.564813" y="285.002165" style="fill: #6495ed; stroke: #6495ed; stroke-width: 1.5"/>
     <use xlink:href="#m932aa33095" x="326.650396" y="283.605614" style="fill: #6495ed; stroke: #6495ed; stroke-width: 1.5"/>
     <use xlink:href="#m932aa33095" x="329.735979" y="279.376221" style="fill: #6495ed; stroke: #6495ed; stroke-width: 1.5"/>
     <use xlink:href="#m932aa33095" x="332.821562" y="280.02908" style="fill: #6495ed; stroke: #6495ed; stroke-width: 1.5"/>
     <use xlink:href="#m932aa33095" x="335.907145" y="281.788962" style="fill: #6495ed; stroke: #6495ed; stroke-width: 1.5"/>
     <use xlink:href="#m932aa33095" x="338.992728" y="277.27004" style="fill: #6495ed; stroke: #6495ed; stroke-width: 1.5"/>
     <use xlink:href="#m932aa33095" x="342.078311" y="275.862135" style="fill: #6495ed; stroke: #6495ed; stroke-width: 1.5"/>
     <use xlink:href="#m932aa33095" x="345.163895" y="273.903557" style="fill: #6495ed; stroke: #6495ed; stroke-width: 1.5"/>
     <use xlink:href="#m932aa33095" x="348.249478" y="272.495652" style="fill: #6495ed; stroke: #6495ed; stroke-width: 1.5"/>
     <use xlink:href="#m932aa33095" x="351.335061" y="271.076392" style="fill: #6495ed; stroke: #6495ed; stroke-width: 1.5"/>
     <use xlink:href="#m932aa33095" x="354.420644" y="262.146412" style="fill: #6495ed; stroke: #6495ed; stroke-width: 1.5"/>
     <use xlink:href="#m932aa33095" x="357.506227" y="265.592374" style="fill: #6495ed; stroke: #6495ed; stroke-width: 1.5"/>
     <use xlink:href="#m932aa33095" x="360.59181" y="265.342584" style="fill: #6495ed; stroke: #6495ed; stroke-width: 1.5"/>
     <use xlink:href="#m932aa33095" x="363.677393" y="260.363822" style="fill: #6495ed; stroke: #6495ed; stroke-width: 1.5"/>
     <use xlink:href="#m932aa33095" x="366.762976" y="257.78077" style="fill: #6495ed; stroke: #6495ed; stroke-width: 1.5"/>
     <use xlink:href="#m932aa33095" x="369.848559" y="264.706756" style="fill: #6495ed; stroke: #6495ed; stroke-width: 1.5"/>
     <use xlink:href="#m932aa33095" x="372.934143" y="253.256171" style="fill: #6495ed; stroke: #6495ed; stroke-width: 1.5"/>
     <use xlink:href="#m932aa33095" x="376.019726" y="262.430264" style="fill: #6495ed; stroke: #6495ed; stroke-width: 1.5"/>
     <use xlink:href="#m932aa33095" x="379.105309" y="255.214749" style="fill: #6495ed; stroke: #6495ed; stroke-width: 1.5"/>
     <use xlink:href="#m932aa33095" x="382.190892" y="250.639057" style="fill: #6495ed; stroke: #6495ed; stroke-width: 1.5"/>
     <use xlink:href="#m932aa33095" x="385.276475" y="250.871815" style="fill: #6495ed; stroke: #6495ed; stroke-width: 1.5"/>
     <use xlink:href="#m932aa33095" x="388.362058" y="249.287922" style="fill: #6495ed; stroke: #6495ed; stroke-width: 1.5"/>
     <use xlink:href="#m932aa33095" x="391.447641" y="254.482411" style="fill: #6495ed; stroke: #6495ed; stroke-width: 1.5"/>
     <use xlink:href="#m932aa33095" x="394.533224" y="247.346375" style="fill: #6495ed; stroke: #6495ed; stroke-width: 1.5"/>
     <use xlink:href="#m932aa33095" x="397.618808" y="252.495448" style="fill: #6495ed; stroke: #6495ed; stroke-width: 1.5"/>
     <use xlink:href="#m932aa33095" x="400.704391" y="245.756804" style="fill: #6495ed; stroke: #6495ed; stroke-width: 1.5"/>
     <use xlink:href="#m932aa33095" x="403.789974" y="237.723796" style="fill: #6495ed; stroke: #6495ed; stroke-width: 1.5"/>
    </g>
   </g>
   <g id="matplotlib.axis_1">
    <g id="xtick_1">
     <g id="line2d_1">
      <defs>
       <path id="m196f2c93f9" d="M 0 0 
L 0 3.5 
" style="stroke: #000000; stroke-width: 0.8"/>
      </defs>
      <g>
       <use xlink:href="#m196f2c93f9" x="311.22248" y="451.71622" style="stroke: #000000; stroke-width: 0.8"/>
      </g>
     </g>
     <g id="text_1">
      <!-- 397 -->
      <g transform="translate(293.102715 473.153252) scale(0.19 -0.19)">
       <defs>
        <path id="Verdana-33" d="M 3244 2241 
Q 3394 2106 3491 1903 
Q 3588 1700 3588 1378 
Q 3588 1059 3472 793 
Q 3356 528 3147 331 
Q 2913 113 2595 8 
Q 2278 -97 1900 -97 
Q 1513 -97 1138 -4 
Q 763 88 522 197 
L 522 850 
L 569 850 
Q 834 675 1193 559 
Q 1553 444 1888 444 
Q 2084 444 2306 509 
Q 2528 575 2666 703 
Q 2809 841 2879 1006 
Q 2950 1172 2950 1425 
Q 2950 1675 2870 1839 
Q 2791 2003 2650 2097 
Q 2509 2194 2309 2230 
Q 2109 2266 1878 2266 
L 1597 2266 
L 1597 2784 
L 1816 2784 
Q 2291 2784 2573 2982 
Q 2856 3181 2856 3563 
Q 2856 3731 2784 3857 
Q 2713 3984 2584 4066 
Q 2450 4147 2297 4178 
Q 2144 4209 1950 4209 
Q 1653 4209 1318 4103 
Q 984 3997 688 3803 
L 656 3803 
L 656 4456 
Q 878 4566 1248 4658 
Q 1619 4750 1966 4750 
Q 2306 4750 2565 4687 
Q 2825 4625 3034 4488 
Q 3259 4338 3375 4125 
Q 3491 3913 3491 3628 
Q 3491 3241 3217 2952 
Q 2944 2663 2572 2588 
L 2572 2544 
Q 2722 2519 2915 2439 
Q 3109 2359 3244 2241 
z
" transform="scale(0.015625)"/>
        <path id="Verdana-39" d="M 3647 2606 
Q 3647 1997 3508 1500 
Q 3369 1003 3088 653 
Q 2803 297 2375 103 
Q 1947 -91 1369 -91 
Q 1206 -91 1062 -73 
Q 919 -56 806 -19 
L 806 578 
L 838 578 
Q 928 531 1093 489 
Q 1259 447 1463 447 
Q 2153 447 2545 861 
Q 2938 1275 3000 2003 
Q 2709 1828 2453 1753 
Q 2197 1678 1894 1678 
Q 1606 1678 1373 1734 
Q 1141 1791 906 1953 
Q 631 2144 492 2437 
Q 353 2731 353 3141 
Q 353 3853 822 4300 
Q 1291 4747 1966 4747 
Q 2303 4747 2590 4642 
Q 2878 4538 3094 4328 
Q 3359 4069 3503 3661 
Q 3647 3253 3647 2606 
z
M 3016 2741 
Q 3016 3225 2916 3519 
Q 2816 3813 2641 3975 
Q 2494 4116 2325 4177 
Q 2156 4238 1959 4238 
Q 1509 4238 1248 3956 
Q 988 3675 988 3166 
Q 988 2869 1072 2681 
Q 1156 2494 1356 2353 
Q 1497 2256 1665 2223 
Q 1834 2191 2041 2191 
Q 2284 2191 2534 2256 
Q 2784 2322 3003 2447 
Q 3006 2513 3011 2577 
Q 3016 2641 3016 2741 
z
" transform="scale(0.015625)"/>
        <path id="Verdana-37" d="M 3666 3956 
L 1559 0 
L 891 0 
L 3131 4106 
L 481 4106 
L 481 4653 
L 3666 4653 
L 3666 3956 
z
" transform="scale(0.015625)"/>
       </defs>
       <use xlink:href="#Verdana-33"/>
       <use xlink:href="#Verdana-39" x="63.574219"/>
       <use xlink:href="#Verdana-37" x="127.148438"/>
      </g>
     </g>
    </g>
    <g id="xtick_2">
     <g id="line2d_2">
      <g>
       <use xlink:href="#m196f2c93f9" x="218.654987" y="451.71622" style="stroke: #000000; stroke-width: 0.8"/>
      </g>
     </g>
     <g id="text_2">
      <!-- 400 -->
      <g transform="translate(200.535221 473.153252) scale(0.19 -0.19)">
       <defs>
        <path id="Verdana-34" d="M 3759 1309 
L 3069 1309 
L 3069 0 
L 2469 0 
L 2469 1309 
L 241 1309 
L 241 2028 
L 2494 4653 
L 3069 4653 
L 3069 1809 
L 3759 1809 
L 3759 1309 
z
M 2469 1809 
L 2469 3909 
L 666 1809 
L 2469 1809 
z
" transform="scale(0.015625)"/>
        <path id="Verdana-30" d="M 3647 2328 
Q 3647 1075 3255 489 
Q 2863 -97 2038 -97 
Q 1200 -97 814 497 
Q 428 1091 428 2322 
Q 428 3563 818 4155 
Q 1209 4747 2038 4747 
Q 2875 4747 3261 4145 
Q 3647 3544 3647 2328 
z
M 2825 909 
Q 2934 1163 2973 1505 
Q 3013 1847 3013 2328 
Q 3013 2803 2973 3153 
Q 2934 3503 2822 3747 
Q 2713 3988 2523 4109 
Q 2334 4231 2038 4231 
Q 1744 4231 1551 4109 
Q 1359 3988 1247 3741 
Q 1141 3509 1102 3137 
Q 1063 2766 1063 2322 
Q 1063 1834 1097 1506 
Q 1131 1178 1244 919 
Q 1347 675 1536 547 
Q 1725 419 2038 419 
Q 2331 419 2525 541 
Q 2719 663 2825 909 
z
" transform="scale(0.015625)"/>
       </defs>
       <use xlink:href="#Verdana-34"/>
       <use xlink:href="#Verdana-30" x="63.574219"/>
       <use xlink:href="#Verdana-30" x="127.148438"/>
      </g>
     </g>
    </g>
    <g id="xtick_3">
     <g id="line2d_3">
      <g>
       <use xlink:href="#m196f2c93f9" x="126.087493" y="451.71622" style="stroke: #000000; stroke-width: 0.8"/>
      </g>
     </g>
     <g id="text_3">
      <!-- 403 -->
      <g transform="translate(107.967728 473.153252) scale(0.19 -0.19)">
       <use xlink:href="#Verdana-34"/>
       <use xlink:href="#Verdana-30" x="63.574219"/>
       <use xlink:href="#Verdana-33" x="127.148438"/>
      </g>
     </g>
    </g>
    <g id="xtick_4">
     <g id="line2d_4">
      <g>
       <use xlink:href="#m196f2c93f9" x="33.52" y="451.71622" style="stroke: #000000; stroke-width: 0.8"/>
      </g>
     </g>
     <g id="text_4">
      <!-- 406 -->
      <g transform="translate(15.400234 473.153252) scale(0.19 -0.19)">
       <defs>
        <path id="Verdana-36" d="M 3722 1509 
Q 3722 800 3255 351 
Q 2788 -97 2109 -97 
Q 1766 -97 1484 9 
Q 1203 116 988 325 
Q 719 584 573 1012 
Q 428 1441 428 2044 
Q 428 2663 561 3141 
Q 694 3619 984 3991 
Q 1259 4344 1693 4542 
Q 2128 4741 2706 4741 
Q 2891 4741 3016 4725 
Q 3141 4709 3269 4669 
L 3269 4072 
L 3238 4072 
Q 3150 4119 2973 4161 
Q 2797 4203 2613 4203 
Q 1941 4203 1541 3783 
Q 1141 3363 1075 2647 
Q 1338 2806 1592 2889 
Q 1847 2972 2181 2972 
Q 2478 2972 2704 2917 
Q 2931 2863 3169 2697 
Q 3444 2506 3583 2215 
Q 3722 1925 3722 1509 
z
M 3088 1484 
Q 3088 1775 3002 1965 
Q 2916 2156 2719 2297 
Q 2575 2397 2400 2428 
Q 2225 2459 2034 2459 
Q 1769 2459 1541 2396 
Q 1313 2334 1072 2203 
Q 1066 2134 1062 2070 
Q 1059 2006 1059 1909 
Q 1059 1416 1161 1130 
Q 1263 844 1441 678 
Q 1584 541 1751 477 
Q 1919 413 2116 413 
Q 2569 413 2828 689 
Q 3088 966 3088 1484 
z
" transform="scale(0.015625)"/>
       </defs>
       <use xlink:href="#Verdana-34"/>
       <use xlink:href="#Verdana-30" x="63.574219"/>
       <use xlink:href="#Verdana-36" x="127.148438"/>
      </g>
     </g>
    </g>
    <g id="xtick_5">
     <g id="line2d_5">
      <defs>
       <path id="mb78ea32705" d="M 0 0 
L 0 2 
" style="stroke: #000000; stroke-width: 0.6"/>
      </defs>
      <g>
       <use xlink:href="#mb78ea32705" x="288.080607" y="451.71622" style="stroke: #000000; stroke-width: 0.6"/>
      </g>
     </g>
    </g>
    <g id="xtick_6">
     <g id="line2d_6">
      <g>
       <use xlink:href="#mb78ea32705" x="264.938734" y="451.71622" style="stroke: #000000; stroke-width: 0.6"/>
      </g>
     </g>
    </g>
    <g id="xtick_7">
     <g id="line2d_7">
      <g>
       <use xlink:href="#mb78ea32705" x="241.79686" y="451.71622" style="stroke: #000000; stroke-width: 0.6"/>
      </g>
     </g>
    </g>
    <g id="xtick_8">
     <g id="line2d_8">
      <g>
       <use xlink:href="#mb78ea32705" x="195.513114" y="451.71622" style="stroke: #000000; stroke-width: 0.6"/>
      </g>
     </g>
    </g>
    <g id="xtick_9">
     <g id="line2d_9">
      <g>
       <use xlink:href="#mb78ea32705" x="172.37124" y="451.71622" style="stroke: #000000; stroke-width: 0.6"/>
      </g>
     </g>
    </g>
    <g id="xtick_10">
     <g id="line2d_10">
      <g>
       <use xlink:href="#mb78ea32705" x="149.229367" y="451.71622" style="stroke: #000000; stroke-width: 0.6"/>
      </g>
     </g>
    </g>
    <g id="xtick_11">
     <g id="line2d_11">
      <g>
       <use xlink:href="#mb78ea32705" x="102.94562" y="451.71622" style="stroke: #000000; stroke-width: 0.6"/>
      </g>
     </g>
    </g>
    <g id="xtick_12">
     <g id="line2d_12">
      <g>
       <use xlink:href="#mb78ea32705" x="79.803747" y="451.71622" style="stroke: #000000; stroke-width: 0.6"/>
      </g>
     </g>
    </g>
    <g id="xtick_13">
     <g id="line2d_13">
      <g>
       <use xlink:href="#mb78ea32705" x="56.661873" y="451.71622" style="stroke: #000000; stroke-width: 0.6"/>
      </g>
     </g>
    </g>
    <g id="text_5">
     <!-- Binding energy (eV) -->
     <g transform="translate(77.571631 495.414033) scale(0.19 -0.19)">
      <defs>
       <path id="DejaVuSans-42" d="M 1259 2228 
L 1259 519 
L 2272 519 
Q 2781 519 3026 730 
Q 3272 941 3272 1375 
Q 3272 1813 3026 2020 
Q 2781 2228 2272 2228 
L 1259 2228 
z
M 1259 4147 
L 1259 2741 
L 2194 2741 
Q 2656 2741 2882 2914 
Q 3109 3088 3109 3444 
Q 3109 3797 2882 3972 
Q 2656 4147 2194 4147 
L 1259 4147 
z
M 628 4666 
L 2241 4666 
Q 2963 4666 3353 4366 
Q 3744 4066 3744 3513 
Q 3744 3084 3544 2831 
Q 3344 2578 2956 2516 
Q 3422 2416 3680 2098 
Q 3938 1781 3938 1306 
Q 3938 681 3513 340 
Q 3088 0 2303 0 
L 628 0 
L 628 4666 
z
" transform="scale(0.015625)"/>
       <path id="DejaVuSans-69" d="M 603 3500 
L 1178 3500 
L 1178 0 
L 603 0 
L 603 3500 
z
M 603 4863 
L 1178 4863 
L 1178 4134 
L 603 4134 
L 603 4863 
z
" transform="scale(0.015625)"/>
       <path id="DejaVuSans-6e" d="M 3513 2113 
L 3513 0 
L 2938 0 
L 2938 2094 
Q 2938 2591 2744 2837 
Q 2550 3084 2163 3084 
Q 1697 3084 1428 2787 
Q 1159 2491 1159 1978 
L 1159 0 
L 581 0 
L 581 3500 
L 1159 3500 
L 1159 2956 
Q 1366 3272 1645 3428 
Q 1925 3584 2291 3584 
Q 2894 3584 3203 3211 
Q 3513 2838 3513 2113 
z
" transform="scale(0.015625)"/>
       <path id="DejaVuSans-64" d="M 2906 2969 
L 2906 4863 
L 3481 4863 
L 3481 0 
L 2906 0 
L 2906 525 
Q 2725 213 2448 61 
Q 2172 -91 1784 -91 
Q 1150 -91 751 415 
Q 353 922 353 1747 
Q 353 2572 751 3078 
Q 1150 3584 1784 3584 
Q 2172 3584 2448 3432 
Q 2725 3281 2906 2969 
z
M 947 1747 
Q 947 1113 1208 752 
Q 1469 391 1925 391 
Q 2381 391 2643 752 
Q 2906 1113 2906 1747 
Q 2906 2381 2643 2742 
Q 2381 3103 1925 3103 
Q 1469 3103 1208 2742 
Q 947 2381 947 1747 
z
" transform="scale(0.015625)"/>
       <path id="DejaVuSans-67" d="M 2906 1791 
Q 2906 2416 2648 2759 
Q 2391 3103 1925 3103 
Q 1463 3103 1205 2759 
Q 947 2416 947 1791 
Q 947 1169 1205 825 
Q 1463 481 1925 481 
Q 2391 481 2648 825 
Q 2906 1169 2906 1791 
z
M 3481 434 
Q 3481 -459 3084 -895 
Q 2688 -1331 1869 -1331 
Q 1566 -1331 1297 -1286 
Q 1028 -1241 775 -1147 
L 775 -588 
Q 1028 -725 1275 -790 
Q 1522 -856 1778 -856 
Q 2344 -856 2625 -561 
Q 2906 -266 2906 331 
L 2906 616 
Q 2728 306 2450 153 
Q 2172 0 1784 0 
Q 1141 0 747 490 
Q 353 981 353 1791 
Q 353 2603 747 3093 
Q 1141 3584 1784 3584 
Q 2172 3584 2450 3431 
Q 2728 3278 2906 2969 
L 2906 3500 
L 3481 3500 
L 3481 434 
z
" transform="scale(0.015625)"/>
       <path id="DejaVuSans-20" transform="scale(0.015625)"/>
       <path id="DejaVuSans-65" d="M 3597 1894 
L 3597 1613 
L 953 1613 
Q 991 1019 1311 708 
Q 1631 397 2203 397 
Q 2534 397 2845 478 
Q 3156 559 3463 722 
L 3463 178 
Q 3153 47 2828 -22 
Q 2503 -91 2169 -91 
Q 1331 -91 842 396 
Q 353 884 353 1716 
Q 353 2575 817 3079 
Q 1281 3584 2069 3584 
Q 2775 3584 3186 3129 
Q 3597 2675 3597 1894 
z
M 3022 2063 
Q 3016 2534 2758 2815 
Q 2500 3097 2075 3097 
Q 1594 3097 1305 2825 
Q 1016 2553 972 2059 
L 3022 2063 
z
" transform="scale(0.015625)"/>
       <path id="DejaVuSans-72" d="M 2631 2963 
Q 2534 3019 2420 3045 
Q 2306 3072 2169 3072 
Q 1681 3072 1420 2755 
Q 1159 2438 1159 1844 
L 1159 0 
L 581 0 
L 581 3500 
L 1159 3500 
L 1159 2956 
Q 1341 3275 1631 3429 
Q 1922 3584 2338 3584 
Q 2397 3584 2469 3576 
Q 2541 3569 2628 3553 
L 2631 2963 
z
" transform="scale(0.015625)"/>
       <path id="DejaVuSans-79" d="M 2059 -325 
Q 1816 -950 1584 -1140 
Q 1353 -1331 966 -1331 
L 506 -1331 
L 506 -850 
L 844 -850 
Q 1081 -850 1212 -737 
Q 1344 -625 1503 -206 
L 1606 56 
L 191 3500 
L 800 3500 
L 1894 763 
L 2988 3500 
L 3597 3500 
L 2059 -325 
z
" transform="scale(0.015625)"/>
       <path id="DejaVuSans-28" d="M 1984 4856 
Q 1566 4138 1362 3434 
Q 1159 2731 1159 2009 
Q 1159 1288 1364 580 
Q 1569 -128 1984 -844 
L 1484 -844 
Q 1016 -109 783 600 
Q 550 1309 550 2009 
Q 550 2706 781 3412 
Q 1013 4119 1484 4856 
L 1984 4856 
z
" transform="scale(0.015625)"/>
       <path id="DejaVuSans-56" d="M 1831 0 
L 50 4666 
L 709 4666 
L 2188 738 
L 3669 4666 
L 4325 4666 
L 2547 0 
L 1831 0 
z
" transform="scale(0.015625)"/>
       <path id="DejaVuSans-29" d="M 513 4856 
L 1013 4856 
Q 1481 4119 1714 3412 
Q 1947 2706 1947 2009 
Q 1947 1309 1714 600 
Q 1481 -109 1013 -844 
L 513 -844 
Q 928 -128 1133 580 
Q 1338 1288 1338 2009 
Q 1338 2731 1133 3434 
Q 928 4138 513 4856 
z
" transform="scale(0.015625)"/>
      </defs>
      <use xlink:href="#DejaVuSans-42"/>
      <use xlink:href="#DejaVuSans-69" x="68.603516"/>
      <use xlink:href="#DejaVuSans-6e" x="96.386719"/>
      <use xlink:href="#DejaVuSans-64" x="159.765625"/>
      <use xlink:href="#DejaVuSans-69" x="223.242188"/>
      <use xlink:href="#DejaVuSans-6e" x="251.025391"/>
      <use xlink:href="#DejaVuSans-67" x="314.404297"/>
      <use xlink:href="#DejaVuSans-20" x="377.880859"/>
      <use xlink:href="#DejaVuSans-65" x="409.667969"/>
      <use xlink:href="#DejaVuSans-6e" x="471.191406"/>
      <use xlink:href="#DejaVuSans-65" x="534.570312"/>
      <use xlink:href="#DejaVuSans-72" x="596.09375"/>
      <use xlink:href="#DejaVuSans-67" x="635.457031"/>
      <use xlink:href="#DejaVuSans-79" x="698.933594"/>
      <use xlink:href="#DejaVuSans-20" x="758.113281"/>
      <use xlink:href="#DejaVuSans-28" x="789.900391"/>
      <use xlink:href="#DejaVuSans-65" x="828.914062"/>
      <use xlink:href="#DejaVuSans-56" x="890.4375"/>
      <use xlink:href="#DejaVuSans-29" x="958.845703"/>
     </g>
    </g>
   </g>
   <g id="matplotlib.axis_2">
    <g id="text_6">
     <!-- Normalised intensity (a.u.) -->
     <g transform="translate(25.568594 357.614048) rotate(-90) scale(0.19 -0.19)">
      <defs>
       <path id="DejaVuSans-4e" d="M 628 4666 
L 1478 4666 
L 3547 763 
L 3547 4666 
L 4159 4666 
L 4159 0 
L 3309 0 
L 1241 3903 
L 1241 0 
L 628 0 
L 628 4666 
z
" transform="scale(0.015625)"/>
       <path id="DejaVuSans-6f" d="M 1959 3097 
Q 1497 3097 1228 2736 
Q 959 2375 959 1747 
Q 959 1119 1226 758 
Q 1494 397 1959 397 
Q 2419 397 2687 759 
Q 2956 1122 2956 1747 
Q 2956 2369 2687 2733 
Q 2419 3097 1959 3097 
z
M 1959 3584 
Q 2709 3584 3137 3096 
Q 3566 2609 3566 1747 
Q 3566 888 3137 398 
Q 2709 -91 1959 -91 
Q 1206 -91 779 398 
Q 353 888 353 1747 
Q 353 2609 779 3096 
Q 1206 3584 1959 3584 
z
" transform="scale(0.015625)"/>
       <path id="DejaVuSans-6d" d="M 3328 2828 
Q 3544 3216 3844 3400 
Q 4144 3584 4550 3584 
Q 5097 3584 5394 3201 
Q 5691 2819 5691 2113 
L 5691 0 
L 5113 0 
L 5113 2094 
Q 5113 2597 4934 2840 
Q 4756 3084 4391 3084 
Q 3944 3084 3684 2787 
Q 3425 2491 3425 1978 
L 3425 0 
L 2847 0 
L 2847 2094 
Q 2847 2600 2669 2842 
Q 2491 3084 2119 3084 
Q 1678 3084 1418 2786 
Q 1159 2488 1159 1978 
L 1159 0 
L 581 0 
L 581 3500 
L 1159 3500 
L 1159 2956 
Q 1356 3278 1631 3431 
Q 1906 3584 2284 3584 
Q 2666 3584 2933 3390 
Q 3200 3197 3328 2828 
z
" transform="scale(0.015625)"/>
       <path id="DejaVuSans-61" d="M 2194 1759 
Q 1497 1759 1228 1600 
Q 959 1441 959 1056 
Q 959 750 1161 570 
Q 1363 391 1709 391 
Q 2188 391 2477 730 
Q 2766 1069 2766 1631 
L 2766 1759 
L 2194 1759 
z
M 3341 1997 
L 3341 0 
L 2766 0 
L 2766 531 
Q 2569 213 2275 61 
Q 1981 -91 1556 -91 
Q 1019 -91 701 211 
Q 384 513 384 1019 
Q 384 1609 779 1909 
Q 1175 2209 1959 2209 
L 2766 2209 
L 2766 2266 
Q 2766 2663 2505 2880 
Q 2244 3097 1772 3097 
Q 1472 3097 1187 3025 
Q 903 2953 641 2809 
L 641 3341 
Q 956 3463 1253 3523 
Q 1550 3584 1831 3584 
Q 2591 3584 2966 3190 
Q 3341 2797 3341 1997 
z
" transform="scale(0.015625)"/>
       <path id="DejaVuSans-6c" d="M 603 4863 
L 1178 4863 
L 1178 0 
L 603 0 
L 603 4863 
z
" transform="scale(0.015625)"/>
       <path id="DejaVuSans-73" d="M 2834 3397 
L 2834 2853 
Q 2591 2978 2328 3040 
Q 2066 3103 1784 3103 
Q 1356 3103 1142 2972 
Q 928 2841 928 2578 
Q 928 2378 1081 2264 
Q 1234 2150 1697 2047 
L 1894 2003 
Q 2506 1872 2764 1633 
Q 3022 1394 3022 966 
Q 3022 478 2636 193 
Q 2250 -91 1575 -91 
Q 1294 -91 989 -36 
Q 684 19 347 128 
L 347 722 
Q 666 556 975 473 
Q 1284 391 1588 391 
Q 1994 391 2212 530 
Q 2431 669 2431 922 
Q 2431 1156 2273 1281 
Q 2116 1406 1581 1522 
L 1381 1569 
Q 847 1681 609 1914 
Q 372 2147 372 2553 
Q 372 3047 722 3315 
Q 1072 3584 1716 3584 
Q 2034 3584 2315 3537 
Q 2597 3491 2834 3397 
z
" transform="scale(0.015625)"/>
       <path id="DejaVuSans-74" d="M 1172 4494 
L 1172 3500 
L 2356 3500 
L 2356 3053 
L 1172 3053 
L 1172 1153 
Q 1172 725 1289 603 
Q 1406 481 1766 481 
L 2356 481 
L 2356 0 
L 1766 0 
Q 1100 0 847 248 
Q 594 497 594 1153 
L 594 3053 
L 172 3053 
L 172 3500 
L 594 3500 
L 594 4494 
L 1172 4494 
z
" transform="scale(0.015625)"/>
       <path id="DejaVuSans-2e" d="M 684 794 
L 1344 794 
L 1344 0 
L 684 0 
L 684 794 
z
" transform="scale(0.015625)"/>
       <path id="DejaVuSans-75" d="M 544 1381 
L 544 3500 
L 1119 3500 
L 1119 1403 
Q 1119 906 1312 657 
Q 1506 409 1894 409 
Q 2359 409 2629 706 
Q 2900 1003 2900 1516 
L 2900 3500 
L 3475 3500 
L 3475 0 
L 2900 0 
L 2900 538 
Q 2691 219 2414 64 
Q 2138 -91 1772 -91 
Q 1169 -91 856 284 
Q 544 659 544 1381 
z
M 1991 3584 
L 1991 3584 
z
" transform="scale(0.015625)"/>
      </defs>
      <use xlink:href="#DejaVuSans-4e"/>
      <use xlink:href="#DejaVuSans-6f" x="74.804688"/>
      <use xlink:href="#DejaVuSans-72" x="135.986328"/>
      <use xlink:href="#DejaVuSans-6d" x="175.349609"/>
      <use xlink:href="#DejaVuSans-61" x="272.761719"/>
      <use xlink:href="#DejaVuSans-6c" x="334.041016"/>
      <use xlink:href="#DejaVuSans-69" x="361.824219"/>
      <use xlink:href="#DejaVuSans-73" x="389.607422"/>
      <use xlink:href="#DejaVuSans-65" x="441.707031"/>
      <use xlink:href="#DejaVuSans-64" x="503.230469"/>
      <use xlink:href="#DejaVuSans-20" x="566.707031"/>
      <use xlink:href="#DejaVuSans-69" x="598.494141"/>
      <use xlink:href="#DejaVuSans-6e" x="626.277344"/>
      <use xlink:href="#DejaVuSans-74" x="689.65625"/>
      <use xlink:href="#DejaVuSans-65" x="728.865234"/>
      <use xlink:href="#DejaVuSans-6e" x="790.388672"/>
      <use xlink:href="#DejaVuSans-73" x="853.767578"/>
      <use xlink:href="#DejaVuSans-69" x="905.867188"/>
      <use xlink:href="#DejaVuSans-74" x="933.650391"/>
      <use xlink:href="#DejaVuSans-79" x="972.859375"/>
      <use xlink:href="#DejaVuSans-20" x="1032.039062"/>
      <use xlink:href="#DejaVuSans-28" x="1063.826172"/>
      <use xlink:href="#DejaVuSans-61" x="1102.839844"/>
      <use xlink:href="#DejaVuSans-2e" x="1164.119141"/>
      <use xlink:href="#DejaVuSans-75" x="1195.90625"/>
      <use xlink:href="#DejaVuSans-2e" x="1259.285156"/>
      <use xlink:href="#DejaVuSans-29" x="1291.072266"/>
     </g>
    </g>
   </g>
   <g id="line2d_14">
    <path d="M 61.290248 431.719525 
L 64.375831 430.010737 
L 67.461414 428.301949 
L 70.546997 426.587483 
L 73.63258 424.878695 
L 76.718164 423.169907 
L 79.803747 421.455441 
L 82.88933 419.746653 
L 85.974913 418.037865 
L 89.060496 416.323399 
L 92.146079 414.614611 
L 95.231662 412.905823 
L 98.317245 411.191357 
L 101.402829 409.482569 
L 104.488412 407.773781 
L 107.573995 406.064992 
L 110.659578 404.350527 
L 113.745161 402.641739 
L 116.830744 400.93295 
L 119.916327 399.218485 
L 123.00191 397.509697 
L 126.087493 395.800908 
L 129.173077 394.086443 
L 132.25866 392.377655 
L 135.344243 390.668866 
L 138.429826 388.954401 
L 141.515409 387.245613 
L 144.600992 385.536824 
L 147.686575 383.828036 
L 150.772158 382.113571 
L 153.857741 380.404782 
L 156.943325 378.695994 
L 160.028908 376.981529 
L 163.114491 375.27274 
L 166.200074 373.563952 
L 169.285657 371.849487 
L 172.37124 370.140698 
L 175.456823 368.43191 
L 178.542406 366.717445 
L 181.62799 365.008656 
L 184.713573 363.299868 
L 187.799156 361.59108 
L 190.884739 359.876614 
L 193.970322 358.167826 
L 197.055905 356.459038 
L 200.141488 354.744572 
L 203.227071 353.035784 
L 206.312654 351.326996 
L 209.398238 349.61253 
L 212.483821 347.903742 
L 215.569404 346.194954 
L 218.654987 344.480488 
L 221.74057 342.7717 
L 224.826153 341.062912 
L 227.911736 339.348446 
L 230.997319 337.639658 
L 234.082902 335.93087 
L 237.168486 334.222082 
L 240.254069 332.507616 
L 243.339652 330.798828 
L 246.425235 329.09004 
L 249.510818 327.375574 
L 252.596401 325.666786 
L 255.681984 323.957998 
L 258.767567 322.243532 
L 261.85315 320.534744 
L 264.938734 318.825956 
L 268.024317 317.11149 
L 271.1099 315.402702 
L 274.195483 313.693914 
L 277.281066 311.985125 
L 280.366649 310.27066 
L 283.452232 308.561872 
L 286.537815 306.853083 
L 289.623399 305.138618 
L 292.708982 303.42983 
L 295.794565 301.721041 
L 298.880148 300.006576 
L 301.965731 298.297788 
L 305.051314 296.588999 
L 308.136897 294.874534 
L 311.22248 293.165746 
L 314.308063 291.456957 
L 317.393647 289.748169 
L 320.47923 288.033704 
L 323.564813 286.324915 
L 326.650396 284.616127 
L 329.735979 282.901662 
L 332.821562 281.192873 
L 335.907145 279.484085 
L 338.992728 277.76962 
" clip-path="url(#p6678087eca)" style="fill: none; stroke-dasharray: 5.55,2.4; stroke-dashoffset: 0; stroke: #a9a9a9; stroke-width: 1.5"/>
   </g>
   <g id="line2d_15">
    <path d="M 61.290248 431.395934 
L 64.375831 429.579282 
L 67.461414 427.751276 
L 70.546997 425.894885 
L 73.63258 424.021462 
L 76.718164 422.119655 
L 79.803747 420.189462 
L 82.88933 418.225207 
L 85.974913 416.221213 
L 89.060496 414.166125 
L 92.146079 412.025882 
L 95.231662 409.783452 
L 98.317245 407.393419 
L 101.402829 404.787659 
L 104.488412 401.903724 
L 107.573995 398.63375 
L 110.659578 394.869874 
L 113.745161 390.481524 
L 116.830744 385.349482 
L 119.916327 379.348853 
L 123.00191 372.411513 
L 126.087493 364.5034 
L 129.173077 355.698315 
L 132.25866 346.155215 
L 135.344243 336.169305 
L 138.429826 326.115272 
L 141.515409 316.469985 
L 144.600992 307.750055 
L 147.686575 300.449385 
L 150.772158 294.988075 
L 153.857741 291.655654 
L 156.943325 290.577016 
L 160.028908 291.667008 
L 163.114491 294.675838 
L 166.200074 299.200436 
L 169.285657 304.724194 
L 172.37124 310.707792 
L 175.456823 316.617588 
L 178.542406 321.971034 
L 181.62799 326.404801 
L 184.713573 329.635035 
L 187.799156 331.497103 
L 190.884739 331.939912 
L 193.970322 330.974816 
L 197.055905 328.704001 
L 200.141488 325.303455 
L 203.227071 320.994584 
L 206.312654 316.061238 
L 209.398238 310.821332 
L 212.483821 305.621166 
L 215.569404 300.807038 
L 218.654987 296.685509 
L 221.74057 293.529076 
L 224.826153 291.491019 
L 227.911736 290.656495 
L 230.997319 290.974409 
L 234.082902 292.302836 
L 237.168486 294.431725 
L 240.254069 297.094256 
L 243.339652 300.006576 
L 246.425235 302.907542 
L 249.510818 305.581427 
L 252.596401 307.863596 
L 255.681984 309.65754 
L 258.767567 310.912165 
L 261.85315 311.644503 
L 264.938734 311.888616 
L 268.024317 311.712627 
L 271.1099 311.178986 
L 274.195483 310.361492 
L 277.281066 309.328272 
L 280.366649 308.12474 
L 283.452232 306.807667 
L 286.537815 305.394085 
L 289.623399 303.929409 
L 292.708982 302.41364 
L 295.794565 300.863809 
L 298.880148 299.296946 
L 301.965731 297.707376 
L 305.051314 296.100774 
L 308.136897 294.482818 
L 311.22248 292.853508 
L 314.308063 291.212845 
L 317.393647 289.560827 
L 320.47923 287.897455 
L 323.564813 286.222729 
L 326.650396 284.542325 
L 329.735979 282.850568 
L 332.821562 281.158811 
L 335.907145 279.461377 
L 338.992728 277.758265 
" clip-path="url(#p6678087eca)" style="fill: none; stroke: #6495ed; stroke-width: 2; stroke-linecap: square"/>
   </g>
   <g id="patch_3">
    <path d="M 33.52 451.71622 
L 33.52 10.8 
" style="fill: none; stroke: #000000; stroke-width: 2; stroke-linejoin: miter; stroke-linecap: square"/>
   </g>
   <g id="patch_4">
    <path d="M 311.22248 451.71622 
L 311.22248 10.8 
" style="fill: none; stroke: #000000; stroke-width: 2; stroke-linejoin: miter; stroke-linecap: square"/>
   </g>
   <g id="patch_5">
    <path d="M 33.52 451.71622 
L 311.22248 451.71622 
" style="fill: none; stroke: #000000; stroke-width: 2; stroke-linejoin: miter; stroke-linecap: square"/>
   </g>
   <g id="patch_6">
    <path d="M 33.52 10.8 
L 311.22248 10.8 
" style="fill: none; stroke: #000000; stroke-width: 2; stroke-linejoin: miter; stroke-linecap: square"/>
   </g>
   <g id="text_7">
    <!-- N-R$_2$ -->
    <g style="fill: #6baed6" transform="translate(230.068966 251.150274) rotate(-90) scale(0.19 -0.19)">
     <defs>
      <path id="DejaVuSans-2d" d="M 313 2009 
L 1997 2009 
L 1997 1497 
L 313 1497 
L 313 2009 
z
" transform="scale(0.015625)"/>
      <path id="DejaVuSans-52" d="M 2841 2188 
Q 3044 2119 3236 1894 
Q 3428 1669 3622 1275 
L 4263 0 
L 3584 0 
L 2988 1197 
Q 2756 1666 2539 1819 
Q 2322 1972 1947 1972 
L 1259 1972 
L 1259 0 
L 628 0 
L 628 4666 
L 2053 4666 
Q 2853 4666 3247 4331 
Q 3641 3997 3641 3322 
Q 3641 2881 3436 2590 
Q 3231 2300 2841 2188 
z
M 1259 4147 
L 1259 2491 
L 2053 2491 
Q 2509 2491 2742 2702 
Q 2975 2913 2975 3322 
Q 2975 3731 2742 3939 
Q 2509 4147 2053 4147 
L 1259 4147 
z
" transform="scale(0.015625)"/>
      <path id="DejaVuSans-32" d="M 1228 531 
L 3431 531 
L 3431 0 
L 469 0 
L 469 531 
Q 828 903 1448 1529 
Q 2069 2156 2228 2338 
Q 2531 2678 2651 2914 
Q 2772 3150 2772 3378 
Q 2772 3750 2511 3984 
Q 2250 4219 1831 4219 
Q 1534 4219 1204 4116 
Q 875 4013 500 3803 
L 500 4441 
Q 881 4594 1212 4672 
Q 1544 4750 1819 4750 
Q 2544 4750 2975 4387 
Q 3406 4025 3406 3419 
Q 3406 3131 3298 2873 
Q 3191 2616 2906 2266 
Q 2828 2175 2409 1742 
Q 1991 1309 1228 531 
z
" transform="scale(0.015625)"/>
     </defs>
     <use xlink:href="#DejaVuSans-4e" transform="translate(0 0.09375)"/>
     <use xlink:href="#DejaVuSans-2d" transform="translate(74.804688 0.09375)"/>
     <use xlink:href="#DejaVuSans-52" transform="translate(110.888672 0.09375)"/>
     <use xlink:href="#DejaVuSans-32" transform="translate(181.328125 -16.3125) scale(0.7)"/>
    </g>
   </g>
   <g id="text_8">
    <!-- NH-R$_2^{(+)}$ -->
    <g style="fill: #9ecae1" transform="translate(160.697741 251.150274) rotate(-90) scale(0.19 -0.19)">
     <defs>
      <path id="DejaVuSans-48" d="M 628 4666 
L 1259 4666 
L 1259 2753 
L 3553 2753 
L 3553 4666 
L 4184 4666 
L 4184 0 
L 3553 0 
L 3553 2222 
L 1259 2222 
L 1259 0 
L 628 0 
L 628 4666 
z
" transform="scale(0.015625)"/>
      <path id="DejaVuSans-2b" d="M 2944 4013 
L 2944 2272 
L 4684 2272 
L 4684 1741 
L 2944 1741 
L 2944 0 
L 2419 0 
L 2419 1741 
L 678 1741 
L 678 2272 
L 2419 2272 
L 2419 4013 
L 2944 4013 
z
" transform="scale(0.015625)"/>
     </defs>
     <use xlink:href="#DejaVuSans-4e" transform="translate(0 0.546875)"/>
     <use xlink:href="#DejaVuSans-48" transform="translate(71.179688 0.546875)"/>
     <use xlink:href="#DejaVuSans-2d" transform="translate(146.375 0.546875)"/>
     <use xlink:href="#DejaVuSans-52" transform="translate(182.458984 0.546875)"/>
     <use xlink:href="#DejaVuSans-28" transform="translate(252.898438 46.8875) scale(0.7)"/>
     <use xlink:href="#DejaVuSans-2b" transform="translate(280.208008 46.8875) scale(0.7)"/>
     <use xlink:href="#DejaVuSans-29" transform="translate(338.860352 46.8875) scale(0.7)"/>
     <use xlink:href="#DejaVuSans-32" transform="translate(252.898438 -26.796875) scale(0.7)"/>
    </g>
   </g>
   <g id="text_9">
    <!-- N 1s -->
    <g transform="translate(36.297025 32.685568) scale(0.23 -0.23)">
     <defs>
      <path id="Verdana-Bold-4e" d="M 4825 0 
L 3669 0 
L 1694 3194 
L 1694 0 
L 594 0 
L 594 4653 
L 2028 4653 
L 3725 1988 
L 3725 4653 
L 4825 4653 
L 4825 0 
z
" transform="scale(0.015625)"/>
      <path id="Verdana-Bold-20" transform="scale(0.015625)"/>
      <path id="Verdana-Bold-31" d="M 3938 0 
L 831 0 
L 831 813 
L 1813 813 
L 1813 3272 
L 831 3272 
L 831 4031 
Q 1056 4031 1262 4057 
Q 1469 4084 1606 4150 
Q 1769 4228 1850 4353 
Q 1931 4478 1944 4666 
L 2978 4666 
L 2978 813 
L 3938 813 
L 3938 0 
z
" transform="scale(0.015625)"/>
      <path id="Verdana-Bold-73" d="M 3581 1113 
Q 3581 569 3093 236 
Q 2606 -97 1759 -97 
Q 1291 -97 909 -9 
Q 528 78 297 184 
L 297 1109 
L 400 1109 
Q 484 1050 595 979 
Q 706 909 909 828 
Q 1084 756 1306 704 
Q 1528 653 1781 653 
Q 2113 653 2272 726 
Q 2431 800 2431 944 
Q 2431 1072 2337 1130 
Q 2244 1188 1981 1241 
Q 1856 1269 1642 1301 
Q 1428 1334 1253 1381 
Q 775 1506 544 1770 
Q 313 2034 313 2428 
Q 313 2934 792 3270 
Q 1272 3606 2103 3606 
Q 2497 3606 2858 3526 
Q 3219 3447 3422 3356 
L 3422 2469 
L 3325 2469 
Q 3075 2641 2754 2748 
Q 2434 2856 2106 2856 
Q 1834 2856 1648 2781 
Q 1463 2706 1463 2569 
Q 1463 2444 1547 2378 
Q 1631 2313 1944 2247 
Q 2116 2213 2314 2180 
Q 2513 2147 2713 2097 
Q 3156 1981 3368 1732 
Q 3581 1484 3581 1113 
z
" transform="scale(0.015625)"/>
     </defs>
     <use xlink:href="#Verdana-Bold-4e"/>
     <use xlink:href="#Verdana-Bold-20" x="84.667969"/>
     <use xlink:href="#Verdana-Bold-31" x="118.847656"/>
     <use xlink:href="#Verdana-Bold-73" x="189.941406"/>
    </g>
   </g>
   <g id="legend_1">
    <g id="line2d_16">
     <path d="M 189.84248 29.137813 
L 203.84248 29.137813 
L 217.84248 29.137813 
" style="fill: none; stroke: #6495ed; stroke-width: 3; stroke-linecap: square"/>
    </g>
    <g id="text_10">
     <!-- P-OH-NR$_2$ -->
     <g transform="translate(229.04248 34.037813) scale(0.14 -0.14)">
      <defs>
       <path id="Verdana-50" d="M 3669 3247 
Q 3669 2938 3561 2673 
Q 3453 2409 3259 2216 
Q 3019 1975 2691 1854 
Q 2363 1734 1863 1734 
L 1244 1734 
L 1244 0 
L 625 0 
L 625 4653 
L 1888 4653 
Q 2306 4653 2597 4583 
Q 2888 4513 3113 4363 
Q 3378 4184 3523 3918 
Q 3669 3653 3669 3247 
z
M 3025 3231 
Q 3025 3472 2940 3650 
Q 2856 3828 2684 3941 
Q 2534 4038 2342 4080 
Q 2150 4122 1856 4122 
L 1244 4122 
L 1244 2263 
L 1766 2263 
Q 2141 2263 2375 2330 
Q 2609 2397 2756 2544 
Q 2903 2694 2964 2859 
Q 3025 3025 3025 3231 
z
" transform="scale(0.015625)"/>
       <path id="Verdana-2d" d="M 2428 1753 
L 478 1753 
L 478 2319 
L 2428 2319 
L 2428 1753 
z
" transform="scale(0.015625)"/>
       <path id="Verdana-4f" d="M 4094 4119 
Q 4378 3806 4529 3353 
Q 4681 2900 4681 2325 
Q 4681 1750 4526 1295 
Q 4372 841 4094 538 
Q 3806 222 3414 62 
Q 3022 -97 2519 -97 
Q 2028 -97 1626 65 
Q 1225 228 944 538 
Q 663 847 511 1297 
Q 359 1747 359 2325 
Q 359 2894 509 3345 
Q 659 3797 947 4119 
Q 1222 4425 1630 4587 
Q 2038 4750 2519 4750 
Q 3019 4750 3417 4586 
Q 3816 4422 4094 4119 
z
M 4038 2325 
Q 4038 3231 3631 3723 
Q 3225 4216 2522 4216 
Q 1813 4216 1408 3723 
Q 1003 3231 1003 2325 
Q 1003 1409 1415 923 
Q 1828 438 2522 438 
Q 3216 438 3627 923 
Q 4038 1409 4038 2325 
z
" transform="scale(0.015625)"/>
       <path id="Verdana-48" d="M 4184 0 
L 3566 0 
L 3566 2278 
L 1244 2278 
L 1244 0 
L 625 0 
L 625 4653 
L 1244 4653 
L 1244 2828 
L 3566 2828 
L 3566 4653 
L 4184 4653 
L 4184 0 
z
" transform="scale(0.015625)"/>
       <path id="Verdana-4e" d="M 4175 0 
L 3409 0 
L 1203 4163 
L 1203 0 
L 625 0 
L 625 4653 
L 1584 4653 
L 3597 853 
L 3597 4653 
L 4175 4653 
L 4175 0 
z
" transform="scale(0.015625)"/>
       <path id="Verdana-52" d="M 4475 0 
L 3672 0 
L 2116 1850 
L 1244 1850 
L 1244 0 
L 625 0 
L 625 4653 
L 1928 4653 
Q 2350 4653 2631 4598 
Q 2913 4544 3138 4403 
Q 3391 4244 3533 4001 
Q 3675 3759 3675 3388 
Q 3675 2884 3422 2545 
Q 3169 2206 2725 2034 
L 4475 0 
z
M 3028 3344 
Q 3028 3544 2958 3698 
Q 2888 3853 2725 3959 
Q 2591 4050 2406 4086 
Q 2222 4122 1972 4122 
L 1244 4122 
L 1244 2366 
L 1869 2366 
Q 2163 2366 2381 2417 
Q 2600 2469 2753 2609 
Q 2894 2741 2961 2911 
Q 3028 3081 3028 3344 
z
" transform="scale(0.015625)"/>
      </defs>
      <use xlink:href="#Verdana-50" transform="translate(0 0.78125)"/>
      <use xlink:href="#Verdana-2d" transform="translate(60.302734 0.78125)"/>
      <use xlink:href="#Verdana-4f" transform="translate(105.712891 0.78125)"/>
      <use xlink:href="#Verdana-48" transform="translate(184.423828 0.78125)"/>
      <use xlink:href="#Verdana-2d" transform="translate(259.570312 0.78125)"/>
      <use xlink:href="#Verdana-4e" transform="translate(304.980469 0.78125)"/>
      <use xlink:href="#Verdana-52" transform="translate(378.785156 0.78125)"/>
      <use xlink:href="#DejaVuSans-32" transform="translate(449.273438 -15.625) scale(0.7)"/>
     </g>
    </g>
   </g>
  </g>
 </g>
 <defs>
  <clipPath id="p6678087eca">
   <rect x="33.52" y="10.8" width="277.70248" height="440.91622"/>
  </clipPath>
 </defs>
</svg>
