<?xml version="1.0" encoding="utf-8" standalone="no"?>
<!DOCTYPE svg PUBLIC "-//W3C//DTD SVG 1.1//EN"
  "http://www.w3.org/Graphics/SVG/1.1/DTD/svg11.dtd">
<svg xmlns:xlink="http://www.w3.org/1999/xlink" width="340.15748pt" height="510.23622pt" viewBox="0 0 340.15748 510.23622" xmlns="http://www.w3.org/2000/svg" version="1.1">
 <metadata>
  <rdf:RDF xmlns:dc="http://purl.org/dc/elements/1.1/" xmlns:cc="http://creativecommons.org/ns#" xmlns:rdf="http://www.w3.org/1999/02/22-rdf-syntax-ns#">
   <cc:Work>
    <dc:type rdf:resource="http://purl.org/dc/dcmitype/StillImage"/>
    <dc:date>2024-06-07T16:37:37.294914</dc:date>
    <dc:format>image/svg+xml</dc:format>
    <dc:creator>
     <cc:Agent>
      <dc:title>Matplotlib v3.8.4, https://matplotlib.org/</dc:title>
     </cc:Agent>
    </dc:creator>
   </cc:Work>
  </rdf:RDF>
 </metadata>
 <defs>
  <style type="text/css">*{stroke-linejoin: round; stroke-linecap: butt}</style>
 </defs>
 <g id="figure_1">
  <g id="patch_1">
   <path d="M 0 510.23622 
L 340.15748 510.23622 
L 340.15748 0 
L 0 0 
z
" style="fill: #ffffff"/>
  </g>
  <g id="axes_1">
   <g id="patch_2">
    <path d="M 33.52 451.71622 
L 311.17748 451.71622 
L 311.17748 10.8 
L 33.52 10.8 
z
" style="fill: #ffffff"/>
   </g>
   <g id="PolyCollection_1">
    <defs>
     <path id="m945df6d121" d="M 64.370831 -75.748408 
L 64.370831 -75.748408 
L 67.455914 -75.743669 
L 70.540997 -75.738338 
L 73.62608 -75.733008 
L 76.711164 -75.726492 
L 79.796247 -75.719976 
L 82.88133 -75.712869 
L 85.966413 -75.704576 
L 89.051496 -75.693914 
L 92.136579 -75.680291 
L 95.221662 -75.659559 
L 98.306745 -75.630536 
L 101.391829 -75.592035 
L 104.476912 -75.542872 
L 107.561995 -75.480085 
L 110.647078 -75.400714 
L 113.732161 -75.304758 
L 116.817244 -75.186885 
L 119.902327 -75.044728 
L 122.98741 -74.8771 
L 126.072493 -74.682818 
L 129.157577 -74.461289 
L 132.24266 -74.214882 
L 135.327743 -73.943598 
L 138.412826 -73.651583 
L 141.497909 -73.34002 
L 144.582992 -73.011873 
L 147.668075 -72.667733 
L 150.753158 -72.311154 
L 153.838241 -71.941545 
L 156.923325 -71.561865 
L 160.008408 -71.171524 
L 163.093491 -70.769929 
L 166.178574 -70.355894 
L 169.263657 -69.928829 
L 172.34874 -69.48814 
L 175.433823 -69.03679 
L 178.518906 -68.576554 
L 181.60399 -68.110396 
L 184.689073 -67.646606 
L 187.774156 -67.186963 
L 190.859239 -66.739167 
L 193.944322 -66.309732 
L 197.029405 -65.904583 
L 200.114488 -65.524904 
L 203.199571 -65.175433 
L 206.284654 -64.857355 
L 209.369738 -64.571263 
L 212.454821 -64.317156 
L 215.539904 -64.095627 
L 218.624987 -63.903714 
L 221.71007 -63.740233 
L 224.795153 -63.601037 
L 227.880236 -63.482572 
L 230.965319 -63.384839 
L 234.050402 -63.304283 
L 237.135486 -63.239719 
L 240.220569 -63.187003 
L 243.305652 -63.146725 
L 246.390735 -63.114739 
L 249.475818 -63.090454 
L 252.560901 -63.072092 
L 255.645984 -63.059061 
L 258.731067 -63.050768 
L 261.81615 -63.044845 
L 264.901234 -63.041883 
L 267.986317 -63.039514 
L 271.0714 -63.037737 
L 274.156483 -63.036552 
L 277.241566 -63.035368 
L 280.326649 -63.034183 
L 280.326649 -63.356999 
L 280.326649 -63.356999 
L 277.241566 -63.43104 
L 274.156483 -63.516334 
L 271.0714 -63.616437 
L 267.986317 -63.736679 
L 264.901234 -63.884167 
L 261.81615 -64.068972 
L 258.731067 -64.309456 
L 255.645984 -64.623979 
L 252.560901 -65.040975 
L 249.475818 -65.59539 
L 246.390735 -66.323948 
L 243.305652 -67.269889 
L 240.220569 -68.477636 
L 237.135486 -69.983915 
L 234.050402 -71.811826 
L 230.965319 -73.964922 
L 227.880236 -76.415364 
L 224.795153 -79.100959 
L 221.71007 -81.918642 
L 218.624987 -84.735733 
L 215.539904 -87.395858 
L 212.454821 -89.730798 
L 209.369738 -91.585363 
L 206.284654 -92.831611 
L 203.199571 -93.38958 
L 200.114488 -93.238538 
L 197.029405 -92.419946 
L 193.944322 -91.026209 
L 190.859239 -89.197114 
L 187.774156 -87.091404 
L 184.689073 -84.870783 
L 181.60399 -82.682147 
L 178.518906 -80.646924 
L 175.433823 -78.848629 
L 172.34874 -77.335243 
L 169.263657 -76.123349 
L 166.178574 -75.201693 
L 163.093491 -74.542437 
L 160.008408 -74.108856 
L 156.923325 -73.859488 
L 153.838241 -73.754647 
L 150.753158 -73.757609 
L 147.668075 -73.836388 
L 144.582992 -73.966699 
L 141.497909 -74.127218 
L 138.412826 -74.303731 
L 135.327743 -74.484982 
L 132.24266 -74.663271 
L 129.157577 -74.829714 
L 126.072493 -74.982534 
L 122.98741 -75.117583 
L 119.902327 -75.234271 
L 116.817244 -75.333781 
L 113.732161 -75.416114 
L 110.647078 -75.483639 
L 107.561995 -75.53991 
L 104.476912 -75.585519 
L 101.391829 -75.621651 
L 98.306745 -75.650082 
L 95.221662 -75.672591 
L 92.136579 -75.687991 
L 89.051496 -75.699245 
L 85.966413 -75.707538 
L 82.88133 -75.714646 
L 79.796247 -75.720569 
L 76.711164 -75.727084 
L 73.62608 -75.733008 
L 70.540997 -75.738338 
L 67.455914 -75.743669 
L 64.370831 -75.748408 
z
" style="stroke: #756bb1; stroke-opacity: 0.8"/>
    </defs>
    <g clip-path="url(#pdd1be7e5ae)">
     <use xlink:href="#m945df6d121" x="0" y="510.23622" style="fill: #756bb1; fill-opacity: 0.8; stroke: #756bb1; stroke-opacity: 0.8"/>
    </g>
   </g>
   <g id="PolyCollection_2">
    <defs>
     <path id="m950dc2431d" d="M 64.370831 -196.924753 
L 64.370831 -196.924753 
L 67.455914 -196.92136 
L 70.540997 -196.917401 
L 73.62608 -196.912311 
L 76.711164 -196.906655 
L 79.796247 -196.901 
L 82.88133 -196.892516 
L 85.966413 -196.88064 
L 89.051496 -196.865935 
L 92.136579 -196.844444 
L 95.221662 -196.815036 
L 98.306745 -196.776578 
L 101.391829 -196.727375 
L 104.476912 -196.664033 
L 107.561995 -196.585986 
L 110.647078 -196.490407 
L 113.732161 -196.3756 
L 116.817244 -196.238736 
L 119.902327 -196.078684 
L 122.98741 -195.893182 
L 126.072493 -195.682796 
L 129.157577 -195.448091 
L 132.24266 -195.190198 
L 135.327743 -194.91138 
L 138.412826 -194.615029 
L 141.497909 -194.302843 
L 144.582992 -193.975953 
L 147.668075 -193.63662 
L 150.753158 -193.286542 
L 153.838241 -192.924587 
L 156.923325 -192.551887 
L 160.008408 -192.16731 
L 163.093491 -191.769725 
L 166.178574 -191.360264 
L 169.263657 -190.93836 
L 172.34874 -190.503449 
L 175.433823 -190.060054 
L 178.518906 -189.611004 
L 181.60399 -189.158561 
L 184.689073 -188.708379 
L 187.774156 -188.268944 
L 190.859239 -187.843081 
L 193.944322 -187.437579 
L 197.029405 -187.056961 
L 200.114488 -186.704055 
L 203.199571 -186.381123 
L 206.284654 -186.089297 
L 209.369738 -185.825749 
L 212.454821 -185.59274 
L 215.539904 -185.387444 
L 218.624987 -185.207598 
L 221.71007 -185.053201 
L 224.795153 -184.923124 
L 227.880236 -184.812275 
L 230.965319 -184.721221 
L 234.050402 -184.647133 
L 237.135486 -184.587185 
L 240.220569 -184.540244 
L 243.305652 -184.504048 
L 246.390735 -184.476902 
L 249.475818 -184.455976 
L 252.560901 -184.440706 
L 255.645984 -184.430526 
L 258.731067 -184.422608 
L 261.81615 -184.418649 
L 264.901234 -184.415822 
L 267.986317 -184.412994 
L 271.0714 -184.409601 
L 274.156483 -184.407904 
L 277.241566 -184.406207 
L 280.326649 -184.404511 
L 280.326649 -184.75063 
L 280.326649 -184.75063 
L 277.241566 -184.824718 
L 274.156483 -184.909551 
L 271.0714 -185.007957 
L 267.986317 -185.127289 
L 264.901234 -185.27094 
L 261.81615 -185.450786 
L 258.731067 -185.681532 
L 255.645984 -185.98467 
L 252.560901 -186.384516 
L 249.475818 -186.913875 
L 246.390735 -187.610073 
L 243.305652 -188.513263 
L 240.220569 -189.666994 
L 237.135486 -191.108592 
L 234.050402 -192.864638 
L 230.965319 -194.940788 
L 227.880236 -197.318379 
L 224.795153 -199.944813 
L 221.71007 -202.729603 
L 218.624987 -205.551719 
L 215.539904 -208.262987 
L 212.454821 -210.701092 
L 209.369738 -212.707113 
L 206.284654 -214.150973 
L 203.199571 -214.936528 
L 200.114488 -215.024755 
L 197.029405 -214.434882 
L 193.944322 -213.240431 
L 190.859239 -211.560734 
L 187.774156 -209.542836 
L 184.689073 -207.345092 
L 181.60399 -205.119636 
L 178.518906 -202.994282 
L 175.433823 -201.066873 
L 172.34874 -199.403012 
L 169.263657 -198.030977 
L 166.178574 -196.952465 
L 163.093491 -196.149378 
L 160.008408 -195.588914 
L 156.923325 -195.230918 
L 153.838241 -195.036367 
L 150.753158 -194.967935 
L 147.668075 -194.992254 
L 144.582992 -195.082177 
L 141.497909 -195.216779 
L 138.412826 -195.376265 
L 135.327743 -195.548759 
L 132.24266 -195.724081 
L 129.157577 -195.894879 
L 126.072493 -196.053799 
L 122.98741 -196.198016 
L 119.902327 -196.325831 
L 116.817244 -196.43668 
L 113.732161 -196.531127 
L 110.647078 -196.610305 
L 107.561995 -196.675909 
L 104.476912 -196.730202 
L 101.391829 -196.774881 
L 98.306745 -196.809946 
L 95.221662 -196.837658 
L 92.136579 -196.859714 
L 89.051496 -196.876115 
L 85.966413 -196.886861 
L 82.88133 -196.896475 
L 79.796247 -196.903262 
L 76.711164 -196.908352 
L 73.62608 -196.912876 
L 70.540997 -196.917966 
L 67.455914 -196.92136 
L 64.370831 -196.924753 
z
" style="stroke: #756bb1; stroke-opacity: 0.8"/>
    </defs>
    <g clip-path="url(#pdd1be7e5ae)">
     <use xlink:href="#m950dc2431d" x="0" y="510.23622" style="fill: #756bb1; fill-opacity: 0.8; stroke: #756bb1; stroke-opacity: 0.8"/>
    </g>
   </g>
   <g id="PolyCollection_3">
    <defs>
     <path id="m1beac232be" d="M 64.370831 -75.760847 
L 64.370831 -75.748408 
L 67.455914 -75.743669 
L 70.540997 -75.738338 
L 73.62608 -75.733008 
L 76.711164 -75.726492 
L 79.796247 -75.719976 
L 82.88133 -75.712869 
L 85.966413 -75.704576 
L 89.051496 -75.693914 
L 92.136579 -75.680291 
L 95.221662 -75.659559 
L 98.306745 -75.630536 
L 101.391829 -75.592035 
L 104.476912 -75.542872 
L 107.561995 -75.480085 
L 110.647078 -75.400714 
L 113.732161 -75.304758 
L 116.817244 -75.186885 
L 119.902327 -75.044728 
L 122.98741 -74.8771 
L 126.072493 -74.682818 
L 129.157577 -74.461289 
L 132.24266 -74.214882 
L 135.327743 -73.943598 
L 138.412826 -73.651583 
L 141.497909 -73.34002 
L 144.582992 -73.011873 
L 147.668075 -72.667733 
L 150.753158 -72.311154 
L 153.838241 -71.941545 
L 156.923325 -71.561865 
L 160.008408 -71.171524 
L 163.093491 -70.769929 
L 166.178574 -70.355894 
L 169.263657 -69.928829 
L 172.34874 -69.48814 
L 175.433823 -69.03679 
L 178.518906 -68.576554 
L 181.60399 -68.110396 
L 184.689073 -67.646606 
L 187.774156 -67.186963 
L 190.859239 -66.739167 
L 193.944322 -66.309732 
L 197.029405 -65.904583 
L 200.114488 -65.524904 
L 203.199571 -65.175433 
L 206.284654 -64.857355 
L 209.369738 -64.571263 
L 212.454821 -64.317156 
L 215.539904 -64.095627 
L 218.624987 -63.903714 
L 221.71007 -63.740233 
L 224.795153 -63.601037 
L 227.880236 -63.482572 
L 230.965319 -63.384839 
L 234.050402 -63.304283 
L 237.135486 -63.239719 
L 240.220569 -63.187003 
L 243.305652 -63.146725 
L 246.390735 -63.114739 
L 249.475818 -63.090454 
L 252.560901 -63.072092 
L 255.645984 -63.059061 
L 258.731067 -63.050768 
L 261.81615 -63.044845 
L 264.901234 -63.041883 
L 267.986317 -63.039514 
L 271.0714 -63.037737 
L 274.156483 -63.036552 
L 277.241566 -63.035368 
L 280.326649 -63.034183 
L 280.326649 -63.118885 
L 280.326649 -63.118885 
L 277.241566 -63.157979 
L 274.156483 -63.207734 
L 271.0714 -63.271705 
L 267.986317 -63.351668 
L 264.901234 -63.449994 
L 261.81615 -63.567867 
L 258.731067 -63.709432 
L 255.645984 -63.875875 
L 252.560901 -64.071934 
L 249.475818 -64.303532 
L 246.390735 -64.578963 
L 243.305652 -64.910072 
L 240.220569 -65.31759 
L 237.135486 -65.831135 
L 234.050402 -66.488614 
L 230.965319 -67.344521 
L 227.880236 -68.466975 
L 224.795153 -69.940676 
L 221.71007 -71.862173 
L 218.624987 -74.34164 
L 215.539904 -77.485693 
L 212.454821 -81.385551 
L 209.369738 -86.09867 
L 206.284654 -91.625048 
L 203.199571 -97.887093 
L 200.114488 -104.719545 
L 197.029405 -111.86119 
L 193.944322 -118.96078 
L 190.859239 -125.610796 
L 187.774156 -131.380028 
L 184.689073 -135.860955 
L 181.60399 -138.727801 
L 178.518906 -139.776806 
L 175.433823 -138.952292 
L 172.34874 -136.359099 
L 169.263657 -132.243635 
L 166.178574 -126.960109 
L 163.093491 -120.924333 
L 160.008408 -114.560408 
L 156.923325 -108.258086 
L 153.838241 -102.333073 
L 150.753158 -97.010454 
L 147.668075 -92.417577 
L 144.582992 -88.600644 
L 141.497909 -85.533593 
L 138.412826 -83.144752 
L 135.327743 -81.335204 
L 132.24266 -79.997145 
L 129.157577 -79.024549 
L 126.072493 -78.324423 
L 122.98741 -77.819171 
L 119.902327 -77.448969 
L 116.817244 -77.169392 
L 113.732161 -76.947863 
L 110.647078 -76.764835 
L 107.561995 -76.608462 
L 104.476912 -76.47045 
L 101.391829 -76.346655 
L 98.306745 -76.235298 
L 95.221662 -76.136972 
L 92.136579 -76.049901 
L 89.051496 -75.974676 
L 85.966413 -75.912482 
L 82.88133 -75.863911 
L 79.796247 -75.826595 
L 76.711164 -75.79994 
L 73.62608 -75.78217 
L 70.540997 -75.770916 
L 67.455914 -75.763808 
L 64.370831 -75.760847 
z
" style="stroke: #9e9ac8; stroke-opacity: 0.8"/>
    </defs>
    <g clip-path="url(#pdd1be7e5ae)">
     <use xlink:href="#m1beac232be" x="0" y="510.23622" style="fill: #9e9ac8; fill-opacity: 0.8; stroke: #9e9ac8; stroke-opacity: 0.8"/>
    </g>
   </g>
   <g id="PathCollection_1">
    <defs>
     <path id="m980762f13d" d="M 0 1.936492 
C 0.513564 1.936492 1.006162 1.732451 1.369306 1.369306 
C 1.732451 1.006162 1.936492 0.513564 1.936492 0 
C 1.936492 -0.513564 1.732451 -1.006162 1.369306 -1.369306 
C 1.006162 -1.732451 0.513564 -1.936492 0 -1.936492 
C -0.513564 -1.936492 -1.006162 -1.732451 -1.369306 -1.369306 
C -1.732451 -1.006162 -1.936492 -0.513564 -1.936492 0 
C -1.936492 0.513564 -1.732451 1.006162 -1.369306 1.369306 
C -1.006162 1.732451 -0.513564 1.936492 0 1.936492 
z
" style="stroke: #6495ed; stroke-width: 1.5"/>
    </defs>
    <g clip-path="url(#pdd1be7e5ae)">
     <use xlink:href="#m980762f13d" x="33.52" y="431.335467" style="fill: #6495ed; stroke: #6495ed; stroke-width: 1.5"/>
     <use xlink:href="#m980762f13d" x="36.605083" y="432.345378" style="fill: #6495ed; stroke: #6495ed; stroke-width: 1.5"/>
     <use xlink:href="#m980762f13d" x="39.690166" y="432.007754" style="fill: #6495ed; stroke: #6495ed; stroke-width: 1.5"/>
     <use xlink:href="#m980762f13d" x="42.775249" y="431.628074" style="fill: #6495ed; stroke: #6495ed; stroke-width: 1.5"/>
     <use xlink:href="#m980762f13d" x="45.860332" y="432.295623" style="fill: #6495ed; stroke: #6495ed; stroke-width: 1.5"/>
     <use xlink:href="#m980762f13d" x="48.945416" y="431.571804" style="fill: #6495ed; stroke: #6495ed; stroke-width: 1.5"/>
     <use xlink:href="#m980762f13d" x="52.030499" y="433.876535" style="fill: #6495ed; stroke: #6495ed; stroke-width: 1.5"/>
     <use xlink:href="#m980762f13d" x="55.115582" y="434.302415" style="fill: #6495ed; stroke: #6495ed; stroke-width: 1.5"/>
     <use xlink:href="#m980762f13d" x="58.200665" y="434.085032" style="fill: #6495ed; stroke: #6495ed; stroke-width: 1.5"/>
     <use xlink:href="#m980762f13d" x="61.285748" y="435.487062" style="fill: #6495ed; stroke: #6495ed; stroke-width: 1.5"/>
     <use xlink:href="#m980762f13d" x="64.370831" y="434.586138" style="fill: #6495ed; stroke: #6495ed; stroke-width: 1.5"/>
     <use xlink:href="#m980762f13d" x="67.455914" y="434.343286" style="fill: #6495ed; stroke: #6495ed; stroke-width: 1.5"/>
     <use xlink:href="#m980762f13d" x="70.540997" y="433.938136" style="fill: #6495ed; stroke: #6495ed; stroke-width: 1.5"/>
     <use xlink:href="#m980762f13d" x="73.62608" y="434.194612" style="fill: #6495ed; stroke: #6495ed; stroke-width: 1.5"/>
     <use xlink:href="#m980762f13d" x="76.711164" y="433.982561" style="fill: #6495ed; stroke: #6495ed; stroke-width: 1.5"/>
     <use xlink:href="#m980762f13d" x="79.796247" y="433.625982" style="fill: #6495ed; stroke: #6495ed; stroke-width: 1.5"/>
     <use xlink:href="#m980762f13d" x="82.88133" y="434.554745" style="fill: #6495ed; stroke: #6495ed; stroke-width: 1.5"/>
     <use xlink:href="#m980762f13d" x="85.966413" y="433.678699" style="fill: #6495ed; stroke: #6495ed; stroke-width: 1.5"/>
     <use xlink:href="#m980762f13d" x="89.051496" y="432.451996" style="fill: #6495ed; stroke: #6495ed; stroke-width: 1.5"/>
     <use xlink:href="#m980762f13d" x="92.136579" y="432.315762" style="fill: #6495ed; stroke: #6495ed; stroke-width: 1.5"/>
     <use xlink:href="#m980762f13d" x="95.221662" y="430.336809" style="fill: #6495ed; stroke: #6495ed; stroke-width: 1.5"/>
     <use xlink:href="#m980762f13d" x="98.306745" y="428.247684" style="fill: #6495ed; stroke: #6495ed; stroke-width: 1.5"/>
     <use xlink:href="#m980762f13d" x="101.391829" y="425.15694" style="fill: #6495ed; stroke: #6495ed; stroke-width: 1.5"/>
     <use xlink:href="#m980762f13d" x="104.476912" y="424.184344" style="fill: #6495ed; stroke: #6495ed; stroke-width: 1.5"/>
     <use xlink:href="#m980762f13d" x="107.561995" y="421.440109" style="fill: #6495ed; stroke: #6495ed; stroke-width: 1.5"/>
     <use xlink:href="#m980762f13d" x="110.647078" y="417.116148" style="fill: #6495ed; stroke: #6495ed; stroke-width: 1.5"/>
     <use xlink:href="#m980762f13d" x="113.732161" y="412.655951" style="fill: #6495ed; stroke: #6495ed; stroke-width: 1.5"/>
     <use xlink:href="#m980762f13d" x="116.817244" y="409.042185" style="fill: #6495ed; stroke: #6495ed; stroke-width: 1.5"/>
     <use xlink:href="#m980762f13d" x="119.902327" y="403.316194" style="fill: #6495ed; stroke: #6495ed; stroke-width: 1.5"/>
     <use xlink:href="#m980762f13d" x="122.98741" y="398.26012" style="fill: #6495ed; stroke: #6495ed; stroke-width: 1.5"/>
     <use xlink:href="#m980762f13d" x="126.072493" y="393.118751" style="fill: #6495ed; stroke: #6495ed; stroke-width: 1.5"/>
     <use xlink:href="#m980762f13d" x="129.157577" y="387.078828" style="fill: #6495ed; stroke: #6495ed; stroke-width: 1.5"/>
     <use xlink:href="#m980762f13d" x="132.24266" y="383.274334" style="fill: #6495ed; stroke: #6495ed; stroke-width: 1.5"/>
     <use xlink:href="#m980762f13d" x="135.327743" y="379.724539" style="fill: #6495ed; stroke: #6495ed; stroke-width: 1.5"/>
     <use xlink:href="#m980762f13d" x="138.412826" y="375.163055" style="fill: #6495ed; stroke: #6495ed; stroke-width: 1.5"/>
     <use xlink:href="#m980762f13d" x="141.497909" y="374.005655" style="fill: #6495ed; stroke: #6495ed; stroke-width: 1.5"/>
     <use xlink:href="#m980762f13d" x="144.582992" y="369.694132" style="fill: #6495ed; stroke: #6495ed; stroke-width: 1.5"/>
     <use xlink:href="#m980762f13d" x="147.668075" y="368.081827" style="fill: #6495ed; stroke: #6495ed; stroke-width: 1.5"/>
     <use xlink:href="#m980762f13d" x="150.753158" y="365.803159" style="fill: #6495ed; stroke: #6495ed; stroke-width: 1.5"/>
     <use xlink:href="#m980762f13d" x="153.838241" y="364.492347" style="fill: #6495ed; stroke: #6495ed; stroke-width: 1.5"/>
     <use xlink:href="#m980762f13d" x="156.923325" y="362.850426" style="fill: #6495ed; stroke: #6495ed; stroke-width: 1.5"/>
     <use xlink:href="#m980762f13d" x="160.008408" y="361.369617" style="fill: #6495ed; stroke: #6495ed; stroke-width: 1.5"/>
     <use xlink:href="#m980762f13d" x="163.093491" y="359.459374" style="fill: #6495ed; stroke: #6495ed; stroke-width: 1.5"/>
     <use xlink:href="#m980762f13d" x="166.178574" y="356.880397" style="fill: #6495ed; stroke: #6495ed; stroke-width: 1.5"/>
     <use xlink:href="#m980762f13d" x="169.263657" y="354.264104" style="fill: #6495ed; stroke: #6495ed; stroke-width: 1.5"/>
     <use xlink:href="#m980762f13d" x="172.34874" y="351.222522" style="fill: #6495ed; stroke: #6495ed; stroke-width: 1.5"/>
     <use xlink:href="#m980762f13d" x="175.433823" y="350.917476" style="fill: #6495ed; stroke: #6495ed; stroke-width: 1.5"/>
     <use xlink:href="#m980762f13d" x="178.518906" y="350.082299" style="fill: #6495ed; stroke: #6495ed; stroke-width: 1.5"/>
     <use xlink:href="#m980762f13d" x="181.60399" y="350.778872" style="fill: #6495ed; stroke: #6495ed; stroke-width: 1.5"/>
     <use xlink:href="#m980762f13d" x="184.689073" y="350.926361" style="fill: #6495ed; stroke: #6495ed; stroke-width: 1.5"/>
     <use xlink:href="#m980762f13d" x="187.774156" y="354.800749" style="fill: #6495ed; stroke: #6495ed; stroke-width: 1.5"/>
     <use xlink:href="#m980762f13d" x="190.859239" y="357.882608" style="fill: #6495ed; stroke: #6495ed; stroke-width: 1.5"/>
     <use xlink:href="#m980762f13d" x="193.944322" y="363.498428" style="fill: #6495ed; stroke: #6495ed; stroke-width: 1.5"/>
     <use xlink:href="#m980762f13d" x="197.029405" y="370.975328" style="fill: #6495ed; stroke: #6495ed; stroke-width: 1.5"/>
     <use xlink:href="#m980762f13d" x="200.114488" y="376.490452" style="fill: #6495ed; stroke: #6495ed; stroke-width: 1.5"/>
     <use xlink:href="#m980762f13d" x="203.199571" y="381.561927" style="fill: #6495ed; stroke: #6495ed; stroke-width: 1.5"/>
     <use xlink:href="#m980762f13d" x="206.284654" y="389.306557" style="fill: #6495ed; stroke: #6495ed; stroke-width: 1.5"/>
     <use xlink:href="#m980762f13d" x="209.369738" y="396.086292" style="fill: #6495ed; stroke: #6495ed; stroke-width: 1.5"/>
     <use xlink:href="#m980762f13d" x="212.454821" y="403.291908" style="fill: #6495ed; stroke: #6495ed; stroke-width: 1.5"/>
     <use xlink:href="#m980762f13d" x="215.539904" y="409.844191" style="fill: #6495ed; stroke: #6495ed; stroke-width: 1.5"/>
     <use xlink:href="#m980762f13d" x="218.624987" y="414.416337" style="fill: #6495ed; stroke: #6495ed; stroke-width: 1.5"/>
     <use xlink:href="#m980762f13d" x="221.71007" y="419.561851" style="fill: #6495ed; stroke: #6495ed; stroke-width: 1.5"/>
     <use xlink:href="#m980762f13d" x="224.795153" y="424.45859" style="fill: #6495ed; stroke: #6495ed; stroke-width: 1.5"/>
     <use xlink:href="#m980762f13d" x="227.880236" y="428.056956" style="fill: #6495ed; stroke: #6495ed; stroke-width: 1.5"/>
     <use xlink:href="#m980762f13d" x="230.965319" y="430.857461" style="fill: #6495ed; stroke: #6495ed; stroke-width: 1.5"/>
     <use xlink:href="#m980762f13d" x="234.050402" y="434.884077" style="fill: #6495ed; stroke: #6495ed; stroke-width: 1.5"/>
     <use xlink:href="#m980762f13d" x="237.135486" y="437.196508" style="fill: #6495ed; stroke: #6495ed; stroke-width: 1.5"/>
     <use xlink:href="#m980762f13d" x="240.220569" y="440.272444" style="fill: #6495ed; stroke: #6495ed; stroke-width: 1.5"/>
     <use xlink:href="#m980762f13d" x="243.305652" y="440.605922" style="fill: #6495ed; stroke: #6495ed; stroke-width: 1.5"/>
     <use xlink:href="#m980762f13d" x="246.390735" y="442.472926" style="fill: #6495ed; stroke: #6495ed; stroke-width: 1.5"/>
     <use xlink:href="#m980762f13d" x="249.475818" y="444.027183" style="fill: #6495ed; stroke: #6495ed; stroke-width: 1.5"/>
     <use xlink:href="#m980762f13d" x="252.560901" y="444.349407" style="fill: #6495ed; stroke: #6495ed; stroke-width: 1.5"/>
     <use xlink:href="#m980762f13d" x="255.645984" y="445.853909" style="fill: #6495ed; stroke: #6495ed; stroke-width: 1.5"/>
     <use xlink:href="#m980762f13d" x="258.731067" y="446.722848" style="fill: #6495ed; stroke: #6495ed; stroke-width: 1.5"/>
     <use xlink:href="#m980762f13d" x="261.81615" y="446.761941" style="fill: #6495ed; stroke: #6495ed; stroke-width: 1.5"/>
     <use xlink:href="#m980762f13d" x="264.901234" y="446.282159" style="fill: #6495ed; stroke: #6495ed; stroke-width: 1.5"/>
     <use xlink:href="#m980762f13d" x="267.986317" y="447.56217" style="fill: #6495ed; stroke: #6495ed; stroke-width: 1.5"/>
     <use xlink:href="#m980762f13d" x="271.0714" y="446.569436" style="fill: #6495ed; stroke: #6495ed; stroke-width: 1.5"/>
     <use xlink:href="#m980762f13d" x="274.156483" y="447.170052" style="fill: #6495ed; stroke: #6495ed; stroke-width: 1.5"/>
     <use xlink:href="#m980762f13d" x="277.241566" y="446.876259" style="fill: #6495ed; stroke: #6495ed; stroke-width: 1.5"/>
     <use xlink:href="#m980762f13d" x="280.326649" y="446.878036" style="fill: #6495ed; stroke: #6495ed; stroke-width: 1.5"/>
     <use xlink:href="#m980762f13d" x="283.411732" y="447.558616" style="fill: #6495ed; stroke: #6495ed; stroke-width: 1.5"/>
     <use xlink:href="#m980762f13d" x="286.496815" y="447.528408" style="fill: #6495ed; stroke: #6495ed; stroke-width: 1.5"/>
     <use xlink:href="#m980762f13d" x="289.581899" y="448.016482" style="fill: #6495ed; stroke: #6495ed; stroke-width: 1.5"/>
     <use xlink:href="#m980762f13d" x="292.666982" y="448.894306" style="fill: #6495ed; stroke: #6495ed; stroke-width: 1.5"/>
     <use xlink:href="#m980762f13d" x="295.752065" y="448.868836" style="fill: #6495ed; stroke: #6495ed; stroke-width: 1.5"/>
     <use xlink:href="#m980762f13d" x="298.837148" y="448.614137" style="fill: #6495ed; stroke: #6495ed; stroke-width: 1.5"/>
     <use xlink:href="#m980762f13d" x="301.922231" y="448.732009" style="fill: #6495ed; stroke: #6495ed; stroke-width: 1.5"/>
     <use xlink:href="#m980762f13d" x="305.007314" y="449.606871" style="fill: #6495ed; stroke: #6495ed; stroke-width: 1.5"/>
     <use xlink:href="#m980762f13d" x="308.092397" y="449.587917" style="fill: #6495ed; stroke: #6495ed; stroke-width: 1.5"/>
     <use xlink:href="#m980762f13d" x="311.17748" y="449.970558" style="fill: #6495ed; stroke: #6495ed; stroke-width: 1.5"/>
     <use xlink:href="#m980762f13d" x="314.262563" y="449.931464" style="fill: #6495ed; stroke: #6495ed; stroke-width: 1.5"/>
     <use xlink:href="#m980762f13d" x="317.347647" y="449.386527" style="fill: #6495ed; stroke: #6495ed; stroke-width: 1.5"/>
     <use xlink:href="#m980762f13d" x="320.43273" y="449.786937" style="fill: #6495ed; stroke: #6495ed; stroke-width: 1.5"/>
     <use xlink:href="#m980762f13d" x="323.517813" y="449.204683" style="fill: #6495ed; stroke: #6495ed; stroke-width: 1.5"/>
     <use xlink:href="#m980762f13d" x="326.602896" y="450.372153" style="fill: #6495ed; stroke: #6495ed; stroke-width: 1.5"/>
     <use xlink:href="#m980762f13d" x="329.687979" y="448.604067" style="fill: #6495ed; stroke: #6495ed; stroke-width: 1.5"/>
     <use xlink:href="#m980762f13d" x="332.773062" y="449.772129" style="fill: #6495ed; stroke: #6495ed; stroke-width: 1.5"/>
     <use xlink:href="#m980762f13d" x="335.858145" y="449.496107" style="fill: #6495ed; stroke: #6495ed; stroke-width: 1.5"/>
     <use xlink:href="#m980762f13d" x="338.943228" y="450.925976" style="fill: #6495ed; stroke: #6495ed; stroke-width: 1.5"/>
     <use xlink:href="#m980762f13d" x="342.028311" y="450.123377" style="fill: #6495ed; stroke: #6495ed; stroke-width: 1.5"/>
     <use xlink:href="#m980762f13d" x="345.113395" y="449.708751" style="fill: #6495ed; stroke: #6495ed; stroke-width: 1.5"/>
     <use xlink:href="#m980762f13d" x="348.198478" y="450.045783" style="fill: #6495ed; stroke: #6495ed; stroke-width: 1.5"/>
     <use xlink:href="#m980762f13d" x="351.283561" y="450.372745" style="fill: #6495ed; stroke: #6495ed; stroke-width: 1.5"/>
     <use xlink:href="#m980762f13d" x="354.368644" y="450.726955" style="fill: #6495ed; stroke: #6495ed; stroke-width: 1.5"/>
     <use xlink:href="#m980762f13d" x="357.453727" y="450.094353" style="fill: #6495ed; stroke: #6495ed; stroke-width: 1.5"/>
     <use xlink:href="#m980762f13d" x="360.53881" y="450.529119" style="fill: #6495ed; stroke: #6495ed; stroke-width: 1.5"/>
     <use xlink:href="#m980762f13d" x="363.623893" y="449.548231" style="fill: #6495ed; stroke: #6495ed; stroke-width: 1.5"/>
     <use xlink:href="#m980762f13d" x="366.708976" y="449.669065" style="fill: #6495ed; stroke: #6495ed; stroke-width: 1.5"/>
     <use xlink:href="#m980762f13d" x="369.794059" y="450.08843" style="fill: #6495ed; stroke: #6495ed; stroke-width: 1.5"/>
     <use xlink:href="#m980762f13d" x="372.879143" y="450.535042" style="fill: #6495ed; stroke: #6495ed; stroke-width: 1.5"/>
     <use xlink:href="#m980762f13d" x="375.964226" y="451.32994" style="fill: #6495ed; stroke: #6495ed; stroke-width: 1.5"/>
     <use xlink:href="#m980762f13d" x="379.049309" y="449.799376" style="fill: #6495ed; stroke: #6495ed; stroke-width: 1.5"/>
     <use xlink:href="#m980762f13d" x="382.134392" y="449.847947" style="fill: #6495ed; stroke: #6495ed; stroke-width: 1.5"/>
     <use xlink:href="#m980762f13d" x="385.219475" y="451.521261" style="fill: #6495ed; stroke: #6495ed; stroke-width: 1.5"/>
     <use xlink:href="#m980762f13d" x="388.304558" y="450.542742" style="fill: #6495ed; stroke: #6495ed; stroke-width: 1.5"/>
     <use xlink:href="#m980762f13d" x="391.389641" y="450.657061" style="fill: #6495ed; stroke: #6495ed; stroke-width: 1.5"/>
     <use xlink:href="#m980762f13d" x="394.474724" y="450.437309" style="fill: #6495ed; stroke: #6495ed; stroke-width: 1.5"/>
     <use xlink:href="#m980762f13d" x="397.559808" y="451.130327" style="fill: #6495ed; stroke: #6495ed; stroke-width: 1.5"/>
     <use xlink:href="#m980762f13d" x="400.644891" y="450.17254" style="fill: #6495ed; stroke: #6495ed; stroke-width: 1.5"/>
     <use xlink:href="#m980762f13d" x="403.729974" y="450.620929" style="fill: #6495ed; stroke: #6495ed; stroke-width: 1.5"/>
    </g>
   </g>
   <g id="PolyCollection_4">
    <defs>
     <path id="m9c28aec350" d="M 64.370831 -196.954162 
L 64.370831 -196.924753 
L 67.455914 -196.92136 
L 70.540997 -196.917401 
L 73.62608 -196.912311 
L 76.711164 -196.906655 
L 79.796247 -196.901 
L 82.88133 -196.892516 
L 85.966413 -196.88064 
L 89.051496 -196.865935 
L 92.136579 -196.844444 
L 95.221662 -196.815036 
L 98.306745 -196.776578 
L 101.391829 -196.727375 
L 104.476912 -196.664033 
L 107.561995 -196.585986 
L 110.647078 -196.490407 
L 113.732161 -196.3756 
L 116.817244 -196.238736 
L 119.902327 -196.078684 
L 122.98741 -195.893182 
L 126.072493 -195.682796 
L 129.157577 -195.448091 
L 132.24266 -195.190198 
L 135.327743 -194.91138 
L 138.412826 -194.615029 
L 141.497909 -194.302843 
L 144.582992 -193.975953 
L 147.668075 -193.63662 
L 150.753158 -193.286542 
L 153.838241 -192.924587 
L 156.923325 -192.551887 
L 160.008408 -192.16731 
L 163.093491 -191.769725 
L 166.178574 -191.360264 
L 169.263657 -190.93836 
L 172.34874 -190.503449 
L 175.433823 -190.060054 
L 178.518906 -189.611004 
L 181.60399 -189.158561 
L 184.689073 -188.708379 
L 187.774156 -188.268944 
L 190.859239 -187.843081 
L 193.944322 -187.437579 
L 197.029405 -187.056961 
L 200.114488 -186.704055 
L 203.199571 -186.381123 
L 206.284654 -186.089297 
L 209.369738 -185.825749 
L 212.454821 -185.59274 
L 215.539904 -185.387444 
L 218.624987 -185.207598 
L 221.71007 -185.053201 
L 224.795153 -184.923124 
L 227.880236 -184.812275 
L 230.965319 -184.721221 
L 234.050402 -184.647133 
L 237.135486 -184.587185 
L 240.220569 -184.540244 
L 243.305652 -184.504048 
L 246.390735 -184.476902 
L 249.475818 -184.455976 
L 252.560901 -184.440706 
L 255.645984 -184.430526 
L 258.731067 -184.422608 
L 261.81615 -184.418649 
L 264.901234 -184.415822 
L 267.986317 -184.412994 
L 271.0714 -184.409601 
L 274.156483 -184.407904 
L 277.241566 -184.406207 
L 280.326649 -184.404511 
L 280.326649 -184.497262 
L 280.326649 -184.497262 
L 277.241566 -184.53685 
L 274.156483 -184.588316 
L 271.0714 -184.652789 
L 267.986317 -184.733663 
L 264.901234 -184.829808 
L 261.81615 -184.943484 
L 258.731067 -185.076955 
L 255.645984 -185.233048 
L 252.560901 -185.414025 
L 249.475818 -185.625543 
L 246.390735 -185.874386 
L 243.305652 -186.171302 
L 240.220569 -186.533257 
L 237.135486 -186.98457 
L 234.050402 -187.558607 
L 230.965319 -188.300049 
L 227.880236 -189.267713 
L 224.795153 -190.536251 
L 221.71007 -192.190498 
L 218.624987 -194.331686 
L 215.539904 -197.064445 
L 212.454821 -200.482656 
L 209.369738 -204.660971 
L 206.284654 -209.634456 
L 203.199571 -215.373136 
L 200.114488 -221.773515 
L 197.029405 -228.641607 
L 193.944322 -235.693505 
L 190.859239 -242.572908 
L 187.774156 -248.87488 
L 184.689073 -254.189394 
L 181.60399 -258.14884 
L 178.518906 -260.471007 
L 175.433823 -260.998103 
L 172.34874 -259.721647 
L 169.263657 -256.777371 
L 166.178574 -252.428258 
L 163.093491 -247.031738 
L 160.008408 -240.990487 
L 156.923325 -234.705481 
L 153.838241 -228.538111 
L 150.753158 -222.775677 
L 147.668075 -217.620084 
L 144.582992 -213.183875 
L 141.497909 -209.500985 
L 138.412826 -206.540308 
L 135.327743 -204.23115 
L 132.24266 -202.477366 
L 129.157577 -201.176025 
L 126.072493 -200.225328 
L 122.98741 -199.537614 
L 119.902327 -199.040492 
L 116.817244 -198.675709 
L 113.732161 -198.399719 
L 110.647078 -198.183112 
L 107.561995 -198.004962 
L 104.476912 -197.851697 
L 101.391829 -197.715964 
L 98.306745 -197.592673 
L 95.221662 -197.480693 
L 92.136579 -197.379459 
L 89.051496 -197.28897 
L 85.966413 -197.208661 
L 82.88133 -197.141926 
L 79.796247 -197.085936 
L 76.711164 -197.041257 
L 73.62608 -197.00789 
L 70.540997 -196.983005 
L 67.455914 -196.965473 
L 64.370831 -196.954162 
z
" style="stroke: #9e9ac8; stroke-opacity: 0.8"/>
    </defs>
    <g clip-path="url(#pdd1be7e5ae)">
     <use xlink:href="#m9c28aec350" x="0" y="510.23622" style="fill: #9e9ac8; fill-opacity: 0.8; stroke: #9e9ac8; stroke-opacity: 0.8"/>
    </g>
   </g>
   <g id="PathCollection_2">
    <defs>
     <path id="ma3da2992e9" d="M 0 1.936492 
C 0.513564 1.936492 1.006162 1.732451 1.369306 1.369306 
C 1.732451 1.006162 1.936492 0.513564 1.936492 0 
C 1.936492 -0.513564 1.732451 -1.006162 1.369306 -1.369306 
C 1.006162 -1.732451 0.513564 -1.936492 0 -1.936492 
C -0.513564 -1.936492 -1.006162 -1.732451 -1.369306 -1.369306 
C -1.732451 -1.006162 -1.936492 -0.513564 -1.936492 0 
C -1.936492 0.513564 -1.732451 1.006162 -1.369306 1.369306 
C -1.006162 1.732451 -0.513564 1.936492 0 1.936492 
z
" style="stroke: #cd5c5c; stroke-width: 1.5"/>
    </defs>
    <g clip-path="url(#pdd1be7e5ae)">
     <use xlink:href="#ma3da2992e9" x="33.52" y="312.11023" style="fill: #cd5c5c; stroke: #cd5c5c; stroke-width: 1.5"/>
     <use xlink:href="#ma3da2992e9" x="36.605083" y="312.079124" style="fill: #cd5c5c; stroke: #cd5c5c; stroke-width: 1.5"/>
     <use xlink:href="#ma3da2992e9" x="39.690166" y="311.719432" style="fill: #cd5c5c; stroke: #cd5c5c; stroke-width: 1.5"/>
     <use xlink:href="#ma3da2992e9" x="42.775249" y="312.647507" style="fill: #cd5c5c; stroke: #cd5c5c; stroke-width: 1.5"/>
     <use xlink:href="#ma3da2992e9" x="45.860332" y="312.322313" style="fill: #cd5c5c; stroke: #cd5c5c; stroke-width: 1.5"/>
     <use xlink:href="#ma3da2992e9" x="48.945416" y="313.662111" style="fill: #cd5c5c; stroke: #cd5c5c; stroke-width: 1.5"/>
     <use xlink:href="#ma3da2992e9" x="52.030499" y="312.821697" style="fill: #cd5c5c; stroke: #cd5c5c; stroke-width: 1.5"/>
     <use xlink:href="#ma3da2992e9" x="55.115582" y="312.890129" style="fill: #cd5c5c; stroke: #cd5c5c; stroke-width: 1.5"/>
     <use xlink:href="#ma3da2992e9" x="58.200665" y="312.965348" style="fill: #cd5c5c; stroke: #cd5c5c; stroke-width: 1.5"/>
     <use xlink:href="#ma3da2992e9" x="61.285748" y="313.368588" style="fill: #cd5c5c; stroke: #cd5c5c; stroke-width: 1.5"/>
     <use xlink:href="#ma3da2992e9" x="64.370831" y="313.653628" style="fill: #cd5c5c; stroke: #cd5c5c; stroke-width: 1.5"/>
     <use xlink:href="#ma3da2992e9" x="67.455914" y="312.626016" style="fill: #cd5c5c; stroke: #cd5c5c; stroke-width: 1.5"/>
     <use xlink:href="#ma3da2992e9" x="70.540997" y="313.942626" style="fill: #cd5c5c; stroke: #cd5c5c; stroke-width: 1.5"/>
     <use xlink:href="#ma3da2992e9" x="73.62608" y="313.151416" style="fill: #cd5c5c; stroke: #cd5c5c; stroke-width: 1.5"/>
     <use xlink:href="#ma3da2992e9" x="76.711164" y="312.036708" style="fill: #cd5c5c; stroke: #cd5c5c; stroke-width: 1.5"/>
     <use xlink:href="#ma3da2992e9" x="79.796247" y="313.336917" style="fill: #cd5c5c; stroke: #cd5c5c; stroke-width: 1.5"/>
     <use xlink:href="#ma3da2992e9" x="82.88133" y="312.206374" style="fill: #cd5c5c; stroke: #cd5c5c; stroke-width: 1.5"/>
     <use xlink:href="#ma3da2992e9" x="85.966413" y="311.832543" style="fill: #cd5c5c; stroke: #cd5c5c; stroke-width: 1.5"/>
     <use xlink:href="#ma3da2992e9" x="89.051496" y="309.405749" style="fill: #cd5c5c; stroke: #cd5c5c; stroke-width: 1.5"/>
     <use xlink:href="#ma3da2992e9" x="92.136579" y="309.570891" style="fill: #cd5c5c; stroke: #cd5c5c; stroke-width: 1.5"/>
     <use xlink:href="#ma3da2992e9" x="95.221662" y="306.269184" style="fill: #cd5c5c; stroke: #cd5c5c; stroke-width: 1.5"/>
     <use xlink:href="#ma3da2992e9" x="98.306745" y="304.792522" style="fill: #cd5c5c; stroke: #cd5c5c; stroke-width: 1.5"/>
     <use xlink:href="#ma3da2992e9" x="101.391829" y="302.767837" style="fill: #cd5c5c; stroke: #cd5c5c; stroke-width: 1.5"/>
     <use xlink:href="#ma3da2992e9" x="104.476912" y="299.136413" style="fill: #cd5c5c; stroke: #cd5c5c; stroke-width: 1.5"/>
     <use xlink:href="#ma3da2992e9" x="107.561995" y="295.62941" style="fill: #cd5c5c; stroke: #cd5c5c; stroke-width: 1.5"/>
     <use xlink:href="#ma3da2992e9" x="110.647078" y="292.078294" style="fill: #cd5c5c; stroke: #cd5c5c; stroke-width: 1.5"/>
     <use xlink:href="#ma3da2992e9" x="113.732161" y="287.699207" style="fill: #cd5c5c; stroke: #cd5c5c; stroke-width: 1.5"/>
     <use xlink:href="#ma3da2992e9" x="116.817244" y="283.729015" style="fill: #cd5c5c; stroke: #cd5c5c; stroke-width: 1.5"/>
     <use xlink:href="#ma3da2992e9" x="119.902327" y="277.795785" style="fill: #cd5c5c; stroke: #cd5c5c; stroke-width: 1.5"/>
     <use xlink:href="#ma3da2992e9" x="122.98741" y="272.782711" style="fill: #cd5c5c; stroke: #cd5c5c; stroke-width: 1.5"/>
     <use xlink:href="#ma3da2992e9" x="126.072493" y="267.69668" style="fill: #cd5c5c; stroke: #cd5c5c; stroke-width: 1.5"/>
     <use xlink:href="#ma3da2992e9" x="129.157577" y="263.928957" style="fill: #cd5c5c; stroke: #cd5c5c; stroke-width: 1.5"/>
     <use xlink:href="#ma3da2992e9" x="132.24266" y="260.308278" style="fill: #cd5c5c; stroke: #cd5c5c; stroke-width: 1.5"/>
     <use xlink:href="#ma3da2992e9" x="135.327743" y="255.470526" style="fill: #cd5c5c; stroke: #cd5c5c; stroke-width: 1.5"/>
     <use xlink:href="#ma3da2992e9" x="138.412826" y="253.502963" style="fill: #cd5c5c; stroke: #cd5c5c; stroke-width: 1.5"/>
     <use xlink:href="#ma3da2992e9" x="141.497909" y="251.226606" style="fill: #cd5c5c; stroke: #cd5c5c; stroke-width: 1.5"/>
     <use xlink:href="#ma3da2992e9" x="144.582992" y="249.674725" style="fill: #cd5c5c; stroke: #cd5c5c; stroke-width: 1.5"/>
     <use xlink:href="#ma3da2992e9" x="147.668075" y="246.56248" style="fill: #cd5c5c; stroke: #cd5c5c; stroke-width: 1.5"/>
     <use xlink:href="#ma3da2992e9" x="150.753158" y="245.308646" style="fill: #cd5c5c; stroke: #cd5c5c; stroke-width: 1.5"/>
     <use xlink:href="#ma3da2992e9" x="153.838241" y="243.616507" style="fill: #cd5c5c; stroke: #cd5c5c; stroke-width: 1.5"/>
     <use xlink:href="#ma3da2992e9" x="156.923325" y="241.698146" style="fill: #cd5c5c; stroke: #cd5c5c; stroke-width: 1.5"/>
     <use xlink:href="#ma3da2992e9" x="160.008408" y="240.063694" style="fill: #cd5c5c; stroke: #cd5c5c; stroke-width: 1.5"/>
     <use xlink:href="#ma3da2992e9" x="163.093491" y="236.720703" style="fill: #cd5c5c; stroke: #cd5c5c; stroke-width: 1.5"/>
     <use xlink:href="#ma3da2992e9" x="166.178574" y="234.014525" style="fill: #cd5c5c; stroke: #cd5c5c; stroke-width: 1.5"/>
     <use xlink:href="#ma3da2992e9" x="169.263657" y="233.225011" style="fill: #cd5c5c; stroke: #cd5c5c; stroke-width: 1.5"/>
     <use xlink:href="#ma3da2992e9" x="172.34874" y="231.56624" style="fill: #cd5c5c; stroke: #cd5c5c; stroke-width: 1.5"/>
     <use xlink:href="#ma3da2992e9" x="175.433823" y="229.147364" style="fill: #cd5c5c; stroke: #cd5c5c; stroke-width: 1.5"/>
     <use xlink:href="#ma3da2992e9" x="178.518906" y="229.660322" style="fill: #cd5c5c; stroke: #cd5c5c; stroke-width: 1.5"/>
     <use xlink:href="#ma3da2992e9" x="181.60399" y="230.700942" style="fill: #cd5c5c; stroke: #cd5c5c; stroke-width: 1.5"/>
     <use xlink:href="#ma3da2992e9" x="184.689073" y="231.863722" style="fill: #cd5c5c; stroke: #cd5c5c; stroke-width: 1.5"/>
     <use xlink:href="#ma3da2992e9" x="187.774156" y="236.301627" style="fill: #cd5c5c; stroke: #cd5c5c; stroke-width: 1.5"/>
     <use xlink:href="#ma3da2992e9" x="190.859239" y="241.175574" style="fill: #cd5c5c; stroke: #cd5c5c; stroke-width: 1.5"/>
     <use xlink:href="#ma3da2992e9" x="193.944322" y="245.905305" style="fill: #cd5c5c; stroke: #cd5c5c; stroke-width: 1.5"/>
     <use xlink:href="#ma3da2992e9" x="197.029405" y="252.859362" style="fill: #cd5c5c; stroke: #cd5c5c; stroke-width: 1.5"/>
     <use xlink:href="#ma3da2992e9" x="200.114488" y="258.642155" style="fill: #cd5c5c; stroke: #cd5c5c; stroke-width: 1.5"/>
     <use xlink:href="#ma3da2992e9" x="203.199571" y="265.596212" style="fill: #cd5c5c; stroke: #cd5c5c; stroke-width: 1.5"/>
     <use xlink:href="#ma3da2992e9" x="206.284654" y="272.722762" style="fill: #cd5c5c; stroke: #cd5c5c; stroke-width: 1.5"/>
     <use xlink:href="#ma3da2992e9" x="209.369738" y="278.38283" style="fill: #cd5c5c; stroke: #cd5c5c; stroke-width: 1.5"/>
     <use xlink:href="#ma3da2992e9" x="212.454821" y="282.706493" style="fill: #cd5c5c; stroke: #cd5c5c; stroke-width: 1.5"/>
     <use xlink:href="#ma3da2992e9" x="215.539904" y="290.483431" style="fill: #cd5c5c; stroke: #cd5c5c; stroke-width: 1.5"/>
     <use xlink:href="#ma3da2992e9" x="218.624987" y="293.908428" style="fill: #cd5c5c; stroke: #cd5c5c; stroke-width: 1.5"/>
     <use xlink:href="#ma3da2992e9" x="221.71007" y="299.426542" style="fill: #cd5c5c; stroke: #cd5c5c; stroke-width: 1.5"/>
     <use xlink:href="#ma3da2992e9" x="224.795153" y="305.078127" style="fill: #cd5c5c; stroke: #cd5c5c; stroke-width: 1.5"/>
     <use xlink:href="#ma3da2992e9" x="227.880236" y="306.896384" style="fill: #cd5c5c; stroke: #cd5c5c; stroke-width: 1.5"/>
     <use xlink:href="#ma3da2992e9" x="230.965319" y="310.797013" style="fill: #cd5c5c; stroke: #cd5c5c; stroke-width: 1.5"/>
     <use xlink:href="#ma3da2992e9" x="234.050402" y="314.059696" style="fill: #cd5c5c; stroke: #cd5c5c; stroke-width: 1.5"/>
     <use xlink:href="#ma3da2992e9" x="237.135486" y="316.760783" style="fill: #cd5c5c; stroke: #cd5c5c; stroke-width: 1.5"/>
     <use xlink:href="#ma3da2992e9" x="240.220569" y="319.393439" style="fill: #cd5c5c; stroke: #cd5c5c; stroke-width: 1.5"/>
     <use xlink:href="#ma3da2992e9" x="243.305652" y="320.635962" style="fill: #cd5c5c; stroke: #cd5c5c; stroke-width: 1.5"/>
     <use xlink:href="#ma3da2992e9" x="246.390735" y="321.66414" style="fill: #cd5c5c; stroke: #cd5c5c; stroke-width: 1.5"/>
     <use xlink:href="#ma3da2992e9" x="249.475818" y="322.772061" style="fill: #cd5c5c; stroke: #cd5c5c; stroke-width: 1.5"/>
     <use xlink:href="#ma3da2992e9" x="252.560901" y="323.756691" style="fill: #cd5c5c; stroke: #cd5c5c; stroke-width: 1.5"/>
     <use xlink:href="#ma3da2992e9" x="255.645984" y="324.66893" style="fill: #cd5c5c; stroke: #cd5c5c; stroke-width: 1.5"/>
     <use xlink:href="#ma3da2992e9" x="258.731067" y="325.768368" style="fill: #cd5c5c; stroke: #cd5c5c; stroke-width: 1.5"/>
     <use xlink:href="#ma3da2992e9" x="261.81615" y="324.651963" style="fill: #cd5c5c; stroke: #cd5c5c; stroke-width: 1.5"/>
     <use xlink:href="#ma3da2992e9" x="264.901234" y="325.872995" style="fill: #cd5c5c; stroke: #cd5c5c; stroke-width: 1.5"/>
     <use xlink:href="#ma3da2992e9" x="267.986317" y="325.410937" style="fill: #cd5c5c; stroke: #cd5c5c; stroke-width: 1.5"/>
     <use xlink:href="#ma3da2992e9" x="271.0714" y="324.840293" style="fill: #cd5c5c; stroke: #cd5c5c; stroke-width: 1.5"/>
     <use xlink:href="#ma3da2992e9" x="274.156483" y="324.680807" style="fill: #cd5c5c; stroke: #cd5c5c; stroke-width: 1.5"/>
     <use xlink:href="#ma3da2992e9" x="277.241566" y="326.926058" style="fill: #cd5c5c; stroke: #cd5c5c; stroke-width: 1.5"/>
     <use xlink:href="#ma3da2992e9" x="280.326649" y="325.505951" style="fill: #cd5c5c; stroke: #cd5c5c; stroke-width: 1.5"/>
     <use xlink:href="#ma3da2992e9" x="283.411732" y="325.59757" style="fill: #cd5c5c; stroke: #cd5c5c; stroke-width: 1.5"/>
     <use xlink:href="#ma3da2992e9" x="286.496815" y="326.448164" style="fill: #cd5c5c; stroke: #cd5c5c; stroke-width: 1.5"/>
     <use xlink:href="#ma3da2992e9" x="289.581899" y="327.110994" style="fill: #cd5c5c; stroke: #cd5c5c; stroke-width: 1.5"/>
     <use xlink:href="#ma3da2992e9" x="292.666982" y="327.487087" style="fill: #cd5c5c; stroke: #cd5c5c; stroke-width: 1.5"/>
     <use xlink:href="#ma3da2992e9" x="295.752065" y="327.796446" style="fill: #cd5c5c; stroke: #cd5c5c; stroke-width: 1.5"/>
     <use xlink:href="#ma3da2992e9" x="298.837148" y="327.725186" style="fill: #cd5c5c; stroke: #cd5c5c; stroke-width: 1.5"/>
     <use xlink:href="#ma3da2992e9" x="301.922231" y="328.544109" style="fill: #cd5c5c; stroke: #cd5c5c; stroke-width: 1.5"/>
     <use xlink:href="#ma3da2992e9" x="305.007314" y="328.257372" style="fill: #cd5c5c; stroke: #cd5c5c; stroke-width: 1.5"/>
     <use xlink:href="#ma3da2992e9" x="308.092397" y="328.864212" style="fill: #cd5c5c; stroke: #cd5c5c; stroke-width: 1.5"/>
     <use xlink:href="#ma3da2992e9" x="311.17748" y="329.124367" style="fill: #cd5c5c; stroke: #cd5c5c; stroke-width: 1.5"/>
     <use xlink:href="#ma3da2992e9" x="314.262563" y="328.567296" style="fill: #cd5c5c; stroke: #cd5c5c; stroke-width: 1.5"/>
     <use xlink:href="#ma3da2992e9" x="317.347647" y="328.994855" style="fill: #cd5c5c; stroke: #cd5c5c; stroke-width: 1.5"/>
     <use xlink:href="#ma3da2992e9" x="320.43273" y="328.981282" style="fill: #cd5c5c; stroke: #cd5c5c; stroke-width: 1.5"/>
     <use xlink:href="#ma3da2992e9" x="323.517813" y="328.809919" style="fill: #cd5c5c; stroke: #cd5c5c; stroke-width: 1.5"/>
     <use xlink:href="#ma3da2992e9" x="326.602896" y="328.201948" style="fill: #cd5c5c; stroke: #cd5c5c; stroke-width: 1.5"/>
     <use xlink:href="#ma3da2992e9" x="329.687979" y="328.671358" style="fill: #cd5c5c; stroke: #cd5c5c; stroke-width: 1.5"/>
     <use xlink:href="#ma3da2992e9" x="332.773062" y="329.131154" style="fill: #cd5c5c; stroke: #cd5c5c; stroke-width: 1.5"/>
     <use xlink:href="#ma3da2992e9" x="335.858145" y="329.44843" style="fill: #cd5c5c; stroke: #cd5c5c; stroke-width: 1.5"/>
     <use xlink:href="#ma3da2992e9" x="338.943228" y="328.639687" style="fill: #cd5c5c; stroke: #cd5c5c; stroke-width: 1.5"/>
     <use xlink:href="#ma3da2992e9" x="342.028311" y="330.393471" style="fill: #cd5c5c; stroke: #cd5c5c; stroke-width: 1.5"/>
     <use xlink:href="#ma3da2992e9" x="345.113395" y="329.814344" style="fill: #cd5c5c; stroke: #cd5c5c; stroke-width: 1.5"/>
     <use xlink:href="#ma3da2992e9" x="348.198478" y="329.133416" style="fill: #cd5c5c; stroke: #cd5c5c; stroke-width: 1.5"/>
     <use xlink:href="#ma3da2992e9" x="351.283561" y="329.421849" style="fill: #cd5c5c; stroke: #cd5c5c; stroke-width: 1.5"/>
     <use xlink:href="#ma3da2992e9" x="354.368644" y="329.01465" style="fill: #cd5c5c; stroke: #cd5c5c; stroke-width: 1.5"/>
     <use xlink:href="#ma3da2992e9" x="357.453727" y="329.467659" style="fill: #cd5c5c; stroke: #cd5c5c; stroke-width: 1.5"/>
     <use xlink:href="#ma3da2992e9" x="360.53881" y="330.586325" style="fill: #cd5c5c; stroke: #cd5c5c; stroke-width: 1.5"/>
     <use xlink:href="#ma3da2992e9" x="363.623893" y="329.533263" style="fill: #cd5c5c; stroke: #cd5c5c; stroke-width: 1.5"/>
     <use xlink:href="#ma3da2992e9" x="366.708976" y="329.275936" style="fill: #cd5c5c; stroke: #cd5c5c; stroke-width: 1.5"/>
     <use xlink:href="#ma3da2992e9" x="369.794059" y="330.163856" style="fill: #cd5c5c; stroke: #cd5c5c; stroke-width: 1.5"/>
     <use xlink:href="#ma3da2992e9" x="372.879143" y="329.538353" style="fill: #cd5c5c; stroke: #cd5c5c; stroke-width: 1.5"/>
     <use xlink:href="#ma3da2992e9" x="375.964226" y="329.885038" style="fill: #cd5c5c; stroke: #cd5c5c; stroke-width: 1.5"/>
     <use xlink:href="#ma3da2992e9" x="379.049309" y="329.72951" style="fill: #cd5c5c; stroke: #cd5c5c; stroke-width: 1.5"/>
     <use xlink:href="#ma3da2992e9" x="382.134392" y="330.214756" style="fill: #cd5c5c; stroke: #cd5c5c; stroke-width: 1.5"/>
     <use xlink:href="#ma3da2992e9" x="385.219475" y="330.231723" style="fill: #cd5c5c; stroke: #cd5c5c; stroke-width: 1.5"/>
     <use xlink:href="#ma3da2992e9" x="388.304558" y="329.515731" style="fill: #cd5c5c; stroke: #cd5c5c; stroke-width: 1.5"/>
     <use xlink:href="#ma3da2992e9" x="391.389641" y="329.120408" style="fill: #cd5c5c; stroke: #cd5c5c; stroke-width: 1.5"/>
     <use xlink:href="#ma3da2992e9" x="394.474724" y="330.414962" style="fill: #cd5c5c; stroke: #cd5c5c; stroke-width: 1.5"/>
     <use xlink:href="#ma3da2992e9" x="397.559808" y="330.189306" style="fill: #cd5c5c; stroke: #cd5c5c; stroke-width: 1.5"/>
     <use xlink:href="#ma3da2992e9" x="400.644891" y="330.090334" style="fill: #cd5c5c; stroke: #cd5c5c; stroke-width: 1.5"/>
     <use xlink:href="#ma3da2992e9" x="403.729974" y="329.150383" style="fill: #cd5c5c; stroke: #cd5c5c; stroke-width: 1.5"/>
    </g>
   </g>
   <g id="matplotlib.axis_1">
    <g id="xtick_1">
     <g id="line2d_1">
      <defs>
       <path id="m8d3fdd3282" d="M 0 0 
L 0 3.5 
" style="stroke: #000000; stroke-width: 0.8"/>
      </defs>
      <g>
       <use xlink:href="#m8d3fdd3282" x="311.17748" y="451.71622" style="stroke: #000000; stroke-width: 0.8"/>
      </g>
     </g>
     <g id="text_1">
      <!-- 528 -->
      <g transform="translate(293.057715 473.153252) scale(0.19 -0.19)">
       <defs>
        <path id="Verdana-35" d="M 3616 1478 
Q 3616 1153 3497 856 
Q 3378 559 3172 356 
Q 2947 138 2636 20 
Q 2325 -97 1916 -97 
Q 1534 -97 1181 -17 
Q 828 63 584 175 
L 584 834 
L 628 834 
Q 884 672 1228 558 
Q 1572 444 1903 444 
Q 2125 444 2333 506 
Q 2541 569 2703 725 
Q 2841 859 2911 1046 
Q 2981 1234 2981 1481 
Q 2981 1722 2898 1887 
Q 2816 2053 2669 2153 
Q 2506 2272 2273 2320 
Q 2041 2369 1753 2369 
Q 1478 2369 1223 2331 
Q 969 2294 784 2256 
L 784 4653 
L 3584 4653 
L 3584 4106 
L 1388 4106 
L 1388 2869 
Q 1522 2881 1662 2887 
Q 1803 2894 1906 2894 
Q 2284 2894 2568 2830 
Q 2853 2766 3091 2603 
Q 3341 2431 3478 2159 
Q 3616 1888 3616 1478 
z
" transform="scale(0.015625)"/>
        <path id="Verdana-32" d="M 3653 0 
L 503 0 
L 503 653 
Q 831 934 1161 1215 
Q 1491 1497 1775 1775 
Q 2375 2356 2597 2698 
Q 2819 3041 2819 3438 
Q 2819 3800 2580 4004 
Q 2341 4209 1913 4209 
Q 1628 4209 1297 4109 
Q 966 4009 650 3803 
L 619 3803 
L 619 4459 
Q 841 4569 1211 4659 
Q 1581 4750 1928 4750 
Q 2644 4750 3050 4404 
Q 3456 4059 3456 3469 
Q 3456 3203 3389 2973 
Q 3322 2744 3191 2538 
Q 3069 2344 2905 2156 
Q 2741 1969 2506 1741 
Q 2172 1413 1815 1105 
Q 1459 797 1150 534 
L 3653 534 
L 3653 0 
z
" transform="scale(0.015625)"/>
        <path id="Verdana-38" d="M 3688 1297 
Q 3688 694 3217 294 
Q 2747 -106 2034 -106 
Q 1278 -106 829 284 
Q 381 675 381 1284 
Q 381 1672 606 1986 
Q 831 2300 1241 2484 
L 1241 2503 
Q 866 2703 686 2940 
Q 506 3178 506 3534 
Q 506 4059 937 4409 
Q 1369 4759 2034 4759 
Q 2731 4759 3147 4425 
Q 3563 4091 3563 3575 
Q 3563 3259 3366 2954 
Q 3169 2650 2788 2478 
L 2788 2459 
Q 3225 2272 3456 1997 
Q 3688 1722 3688 1297 
z
M 2947 3569 
Q 2947 3903 2689 4101 
Q 2431 4300 2031 4300 
Q 1638 4300 1386 4112 
Q 1134 3925 1134 3606 
Q 1134 3381 1261 3217 
Q 1388 3053 1644 2925 
Q 1759 2869 1976 2778 
Q 2194 2688 2400 2628 
Q 2709 2834 2828 3056 
Q 2947 3278 2947 3569 
z
M 3044 1238 
Q 3044 1525 2917 1698 
Q 2791 1872 2422 2047 
Q 2275 2116 2100 2175 
Q 1925 2234 1634 2341 
Q 1353 2188 1183 1925 
Q 1013 1663 1013 1331 
Q 1013 909 1303 634 
Q 1594 359 2041 359 
Q 2497 359 2770 593 
Q 3044 828 3044 1238 
z
" transform="scale(0.015625)"/>
       </defs>
       <use xlink:href="#Verdana-35"/>
       <use xlink:href="#Verdana-32" x="63.574219"/>
       <use xlink:href="#Verdana-38" x="127.148438"/>
      </g>
     </g>
    </g>
    <g id="xtick_2">
     <g id="line2d_2">
      <g>
       <use xlink:href="#m8d3fdd3282" x="218.624987" y="451.71622" style="stroke: #000000; stroke-width: 0.8"/>
      </g>
     </g>
     <g id="text_2">
      <!-- 531 -->
      <g transform="translate(200.505221 473.153252) scale(0.19 -0.19)">
       <defs>
        <path id="Verdana-33" d="M 3244 2241 
Q 3394 2106 3491 1903 
Q 3588 1700 3588 1378 
Q 3588 1059 3472 793 
Q 3356 528 3147 331 
Q 2913 113 2595 8 
Q 2278 -97 1900 -97 
Q 1513 -97 1138 -4 
Q 763 88 522 197 
L 522 850 
L 569 850 
Q 834 675 1193 559 
Q 1553 444 1888 444 
Q 2084 444 2306 509 
Q 2528 575 2666 703 
Q 2809 841 2879 1006 
Q 2950 1172 2950 1425 
Q 2950 1675 2870 1839 
Q 2791 2003 2650 2097 
Q 2509 2194 2309 2230 
Q 2109 2266 1878 2266 
L 1597 2266 
L 1597 2784 
L 1816 2784 
Q 2291 2784 2573 2982 
Q 2856 3181 2856 3563 
Q 2856 3731 2784 3857 
Q 2713 3984 2584 4066 
Q 2450 4147 2297 4178 
Q 2144 4209 1950 4209 
Q 1653 4209 1318 4103 
Q 984 3997 688 3803 
L 656 3803 
L 656 4456 
Q 878 4566 1248 4658 
Q 1619 4750 1966 4750 
Q 2306 4750 2565 4687 
Q 2825 4625 3034 4488 
Q 3259 4338 3375 4125 
Q 3491 3913 3491 3628 
Q 3491 3241 3217 2952 
Q 2944 2663 2572 2588 
L 2572 2544 
Q 2722 2519 2915 2439 
Q 3109 2359 3244 2241 
z
" transform="scale(0.015625)"/>
        <path id="Verdana-31" d="M 3388 0 
L 869 0 
L 869 475 
L 1838 475 
L 1838 3594 
L 869 3594 
L 869 4019 
Q 1066 4019 1291 4051 
Q 1516 4084 1631 4147 
Q 1775 4225 1858 4345 
Q 1941 4466 1953 4669 
L 2438 4669 
L 2438 475 
L 3388 475 
L 3388 0 
z
" transform="scale(0.015625)"/>
       </defs>
       <use xlink:href="#Verdana-35"/>
       <use xlink:href="#Verdana-33" x="63.574219"/>
       <use xlink:href="#Verdana-31" x="127.148438"/>
      </g>
     </g>
    </g>
    <g id="xtick_3">
     <g id="line2d_3">
      <g>
       <use xlink:href="#m8d3fdd3282" x="126.072493" y="451.71622" style="stroke: #000000; stroke-width: 0.8"/>
      </g>
     </g>
     <g id="text_3">
      <!-- 534 -->
      <g transform="translate(107.952728 473.153252) scale(0.19 -0.19)">
       <defs>
        <path id="Verdana-34" d="M 3759 1309 
L 3069 1309 
L 3069 0 
L 2469 0 
L 2469 1309 
L 241 1309 
L 241 2028 
L 2494 4653 
L 3069 4653 
L 3069 1809 
L 3759 1809 
L 3759 1309 
z
M 2469 1809 
L 2469 3909 
L 666 1809 
L 2469 1809 
z
" transform="scale(0.015625)"/>
       </defs>
       <use xlink:href="#Verdana-35"/>
       <use xlink:href="#Verdana-33" x="63.574219"/>
       <use xlink:href="#Verdana-34" x="127.148438"/>
      </g>
     </g>
    </g>
    <g id="xtick_4">
     <g id="line2d_4">
      <g>
       <use xlink:href="#m8d3fdd3282" x="33.52" y="451.71622" style="stroke: #000000; stroke-width: 0.8"/>
      </g>
     </g>
     <g id="text_4">
      <!-- 537 -->
      <g transform="translate(15.400234 473.153252) scale(0.19 -0.19)">
       <defs>
        <path id="Verdana-37" d="M 3666 3956 
L 1559 0 
L 891 0 
L 3131 4106 
L 481 4106 
L 481 4653 
L 3666 4653 
L 3666 3956 
z
" transform="scale(0.015625)"/>
       </defs>
       <use xlink:href="#Verdana-35"/>
       <use xlink:href="#Verdana-33" x="63.574219"/>
       <use xlink:href="#Verdana-37" x="127.148438"/>
      </g>
     </g>
    </g>
    <g id="xtick_5">
     <g id="line2d_5">
      <defs>
       <path id="mb5cf21ef17" d="M 0 0 
L 0 2 
" style="stroke: #000000; stroke-width: 0.6"/>
      </defs>
      <g>
       <use xlink:href="#mb5cf21ef17" x="288.039357" y="451.71622" style="stroke: #000000; stroke-width: 0.6"/>
      </g>
     </g>
    </g>
    <g id="xtick_6">
     <g id="line2d_6">
      <g>
       <use xlink:href="#mb5cf21ef17" x="264.901234" y="451.71622" style="stroke: #000000; stroke-width: 0.6"/>
      </g>
     </g>
    </g>
    <g id="xtick_7">
     <g id="line2d_7">
      <g>
       <use xlink:href="#mb5cf21ef17" x="241.76311" y="451.71622" style="stroke: #000000; stroke-width: 0.6"/>
      </g>
     </g>
    </g>
    <g id="xtick_8">
     <g id="line2d_8">
      <g>
       <use xlink:href="#mb5cf21ef17" x="195.486864" y="451.71622" style="stroke: #000000; stroke-width: 0.6"/>
      </g>
     </g>
    </g>
    <g id="xtick_9">
     <g id="line2d_9">
      <g>
       <use xlink:href="#mb5cf21ef17" x="172.34874" y="451.71622" style="stroke: #000000; stroke-width: 0.6"/>
      </g>
     </g>
    </g>
    <g id="xtick_10">
     <g id="line2d_10">
      <g>
       <use xlink:href="#mb5cf21ef17" x="149.210617" y="451.71622" style="stroke: #000000; stroke-width: 0.6"/>
      </g>
     </g>
    </g>
    <g id="xtick_11">
     <g id="line2d_11">
      <g>
       <use xlink:href="#mb5cf21ef17" x="102.93437" y="451.71622" style="stroke: #000000; stroke-width: 0.6"/>
      </g>
     </g>
    </g>
    <g id="xtick_12">
     <g id="line2d_12">
      <g>
       <use xlink:href="#mb5cf21ef17" x="79.796247" y="451.71622" style="stroke: #000000; stroke-width: 0.6"/>
      </g>
     </g>
    </g>
    <g id="xtick_13">
     <g id="line2d_13">
      <g>
       <use xlink:href="#mb5cf21ef17" x="56.658123" y="451.71622" style="stroke: #000000; stroke-width: 0.6"/>
      </g>
     </g>
    </g>
    <g id="text_5">
     <!-- Binding energy (eV) -->
     <g transform="translate(77.549131 495.414033) scale(0.19 -0.19)">
      <defs>
       <path id="DejaVuSans-42" d="M 1259 2228 
L 1259 519 
L 2272 519 
Q 2781 519 3026 730 
Q 3272 941 3272 1375 
Q 3272 1813 3026 2020 
Q 2781 2228 2272 2228 
L 1259 2228 
z
M 1259 4147 
L 1259 2741 
L 2194 2741 
Q 2656 2741 2882 2914 
Q 3109 3088 3109 3444 
Q 3109 3797 2882 3972 
Q 2656 4147 2194 4147 
L 1259 4147 
z
M 628 4666 
L 2241 4666 
Q 2963 4666 3353 4366 
Q 3744 4066 3744 3513 
Q 3744 3084 3544 2831 
Q 3344 2578 2956 2516 
Q 3422 2416 3680 2098 
Q 3938 1781 3938 1306 
Q 3938 681 3513 340 
Q 3088 0 2303 0 
L 628 0 
L 628 4666 
z
" transform="scale(0.015625)"/>
       <path id="DejaVuSans-69" d="M 603 3500 
L 1178 3500 
L 1178 0 
L 603 0 
L 603 3500 
z
M 603 4863 
L 1178 4863 
L 1178 4134 
L 603 4134 
L 603 4863 
z
" transform="scale(0.015625)"/>
       <path id="DejaVuSans-6e" d="M 3513 2113 
L 3513 0 
L 2938 0 
L 2938 2094 
Q 2938 2591 2744 2837 
Q 2550 3084 2163 3084 
Q 1697 3084 1428 2787 
Q 1159 2491 1159 1978 
L 1159 0 
L 581 0 
L 581 3500 
L 1159 3500 
L 1159 2956 
Q 1366 3272 1645 3428 
Q 1925 3584 2291 3584 
Q 2894 3584 3203 3211 
Q 3513 2838 3513 2113 
z
" transform="scale(0.015625)"/>
       <path id="DejaVuSans-64" d="M 2906 2969 
L 2906 4863 
L 3481 4863 
L 3481 0 
L 2906 0 
L 2906 525 
Q 2725 213 2448 61 
Q 2172 -91 1784 -91 
Q 1150 -91 751 415 
Q 353 922 353 1747 
Q 353 2572 751 3078 
Q 1150 3584 1784 3584 
Q 2172 3584 2448 3432 
Q 2725 3281 2906 2969 
z
M 947 1747 
Q 947 1113 1208 752 
Q 1469 391 1925 391 
Q 2381 391 2643 752 
Q 2906 1113 2906 1747 
Q 2906 2381 2643 2742 
Q 2381 3103 1925 3103 
Q 1469 3103 1208 2742 
Q 947 2381 947 1747 
z
" transform="scale(0.015625)"/>
       <path id="DejaVuSans-67" d="M 2906 1791 
Q 2906 2416 2648 2759 
Q 2391 3103 1925 3103 
Q 1463 3103 1205 2759 
Q 947 2416 947 1791 
Q 947 1169 1205 825 
Q 1463 481 1925 481 
Q 2391 481 2648 825 
Q 2906 1169 2906 1791 
z
M 3481 434 
Q 3481 -459 3084 -895 
Q 2688 -1331 1869 -1331 
Q 1566 -1331 1297 -1286 
Q 1028 -1241 775 -1147 
L 775 -588 
Q 1028 -725 1275 -790 
Q 1522 -856 1778 -856 
Q 2344 -856 2625 -561 
Q 2906 -266 2906 331 
L 2906 616 
Q 2728 306 2450 153 
Q 2172 0 1784 0 
Q 1141 0 747 490 
Q 353 981 353 1791 
Q 353 2603 747 3093 
Q 1141 3584 1784 3584 
Q 2172 3584 2450 3431 
Q 2728 3278 2906 2969 
L 2906 3500 
L 3481 3500 
L 3481 434 
z
" transform="scale(0.015625)"/>
       <path id="DejaVuSans-20" transform="scale(0.015625)"/>
       <path id="DejaVuSans-65" d="M 3597 1894 
L 3597 1613 
L 953 1613 
Q 991 1019 1311 708 
Q 1631 397 2203 397 
Q 2534 397 2845 478 
Q 3156 559 3463 722 
L 3463 178 
Q 3153 47 2828 -22 
Q 2503 -91 2169 -91 
Q 1331 -91 842 396 
Q 353 884 353 1716 
Q 353 2575 817 3079 
Q 1281 3584 2069 3584 
Q 2775 3584 3186 3129 
Q 3597 2675 3597 1894 
z
M 3022 2063 
Q 3016 2534 2758 2815 
Q 2500 3097 2075 3097 
Q 1594 3097 1305 2825 
Q 1016 2553 972 2059 
L 3022 2063 
z
" transform="scale(0.015625)"/>
       <path id="DejaVuSans-72" d="M 2631 2963 
Q 2534 3019 2420 3045 
Q 2306 3072 2169 3072 
Q 1681 3072 1420 2755 
Q 1159 2438 1159 1844 
L 1159 0 
L 581 0 
L 581 3500 
L 1159 3500 
L 1159 2956 
Q 1341 3275 1631 3429 
Q 1922 3584 2338 3584 
Q 2397 3584 2469 3576 
Q 2541 3569 2628 3553 
L 2631 2963 
z
" transform="scale(0.015625)"/>
       <path id="DejaVuSans-79" d="M 2059 -325 
Q 1816 -950 1584 -1140 
Q 1353 -1331 966 -1331 
L 506 -1331 
L 506 -850 
L 844 -850 
Q 1081 -850 1212 -737 
Q 1344 -625 1503 -206 
L 1606 56 
L 191 3500 
L 800 3500 
L 1894 763 
L 2988 3500 
L 3597 3500 
L 2059 -325 
z
" transform="scale(0.015625)"/>
       <path id="DejaVuSans-28" d="M 1984 4856 
Q 1566 4138 1362 3434 
Q 1159 2731 1159 2009 
Q 1159 1288 1364 580 
Q 1569 -128 1984 -844 
L 1484 -844 
Q 1016 -109 783 600 
Q 550 1309 550 2009 
Q 550 2706 781 3412 
Q 1013 4119 1484 4856 
L 1984 4856 
z
" transform="scale(0.015625)"/>
       <path id="DejaVuSans-56" d="M 1831 0 
L 50 4666 
L 709 4666 
L 2188 738 
L 3669 4666 
L 4325 4666 
L 2547 0 
L 1831 0 
z
" transform="scale(0.015625)"/>
       <path id="DejaVuSans-29" d="M 513 4856 
L 1013 4856 
Q 1481 4119 1714 3412 
Q 1947 2706 1947 2009 
Q 1947 1309 1714 600 
Q 1481 -109 1013 -844 
L 513 -844 
Q 928 -128 1133 580 
Q 1338 1288 1338 2009 
Q 1338 2731 1133 3434 
Q 928 4138 513 4856 
z
" transform="scale(0.015625)"/>
      </defs>
      <use xlink:href="#DejaVuSans-42"/>
      <use xlink:href="#DejaVuSans-69" x="68.603516"/>
      <use xlink:href="#DejaVuSans-6e" x="96.386719"/>
      <use xlink:href="#DejaVuSans-64" x="159.765625"/>
      <use xlink:href="#DejaVuSans-69" x="223.242188"/>
      <use xlink:href="#DejaVuSans-6e" x="251.025391"/>
      <use xlink:href="#DejaVuSans-67" x="314.404297"/>
      <use xlink:href="#DejaVuSans-20" x="377.880859"/>
      <use xlink:href="#DejaVuSans-65" x="409.667969"/>
      <use xlink:href="#DejaVuSans-6e" x="471.191406"/>
      <use xlink:href="#DejaVuSans-65" x="534.570312"/>
      <use xlink:href="#DejaVuSans-72" x="596.09375"/>
      <use xlink:href="#DejaVuSans-67" x="635.457031"/>
      <use xlink:href="#DejaVuSans-79" x="698.933594"/>
      <use xlink:href="#DejaVuSans-20" x="758.113281"/>
      <use xlink:href="#DejaVuSans-28" x="789.900391"/>
      <use xlink:href="#DejaVuSans-65" x="828.914062"/>
      <use xlink:href="#DejaVuSans-56" x="890.4375"/>
      <use xlink:href="#DejaVuSans-29" x="958.845703"/>
     </g>
    </g>
   </g>
   <g id="matplotlib.axis_2">
    <g id="text_6">
     <!-- Normalised intensity (a.u.) -->
     <g transform="translate(25.568594 357.614048) rotate(-90) scale(0.19 -0.19)">
      <defs>
       <path id="DejaVuSans-4e" d="M 628 4666 
L 1478 4666 
L 3547 763 
L 3547 4666 
L 4159 4666 
L 4159 0 
L 3309 0 
L 1241 3903 
L 1241 0 
L 628 0 
L 628 4666 
z
" transform="scale(0.015625)"/>
       <path id="DejaVuSans-6f" d="M 1959 3097 
Q 1497 3097 1228 2736 
Q 959 2375 959 1747 
Q 959 1119 1226 758 
Q 1494 397 1959 397 
Q 2419 397 2687 759 
Q 2956 1122 2956 1747 
Q 2956 2369 2687 2733 
Q 2419 3097 1959 3097 
z
M 1959 3584 
Q 2709 3584 3137 3096 
Q 3566 2609 3566 1747 
Q 3566 888 3137 398 
Q 2709 -91 1959 -91 
Q 1206 -91 779 398 
Q 353 888 353 1747 
Q 353 2609 779 3096 
Q 1206 3584 1959 3584 
z
" transform="scale(0.015625)"/>
       <path id="DejaVuSans-6d" d="M 3328 2828 
Q 3544 3216 3844 3400 
Q 4144 3584 4550 3584 
Q 5097 3584 5394 3201 
Q 5691 2819 5691 2113 
L 5691 0 
L 5113 0 
L 5113 2094 
Q 5113 2597 4934 2840 
Q 4756 3084 4391 3084 
Q 3944 3084 3684 2787 
Q 3425 2491 3425 1978 
L 3425 0 
L 2847 0 
L 2847 2094 
Q 2847 2600 2669 2842 
Q 2491 3084 2119 3084 
Q 1678 3084 1418 2786 
Q 1159 2488 1159 1978 
L 1159 0 
L 581 0 
L 581 3500 
L 1159 3500 
L 1159 2956 
Q 1356 3278 1631 3431 
Q 1906 3584 2284 3584 
Q 2666 3584 2933 3390 
Q 3200 3197 3328 2828 
z
" transform="scale(0.015625)"/>
       <path id="DejaVuSans-61" d="M 2194 1759 
Q 1497 1759 1228 1600 
Q 959 1441 959 1056 
Q 959 750 1161 570 
Q 1363 391 1709 391 
Q 2188 391 2477 730 
Q 2766 1069 2766 1631 
L 2766 1759 
L 2194 1759 
z
M 3341 1997 
L 3341 0 
L 2766 0 
L 2766 531 
Q 2569 213 2275 61 
Q 1981 -91 1556 -91 
Q 1019 -91 701 211 
Q 384 513 384 1019 
Q 384 1609 779 1909 
Q 1175 2209 1959 2209 
L 2766 2209 
L 2766 2266 
Q 2766 2663 2505 2880 
Q 2244 3097 1772 3097 
Q 1472 3097 1187 3025 
Q 903 2953 641 2809 
L 641 3341 
Q 956 3463 1253 3523 
Q 1550 3584 1831 3584 
Q 2591 3584 2966 3190 
Q 3341 2797 3341 1997 
z
" transform="scale(0.015625)"/>
       <path id="DejaVuSans-6c" d="M 603 4863 
L 1178 4863 
L 1178 0 
L 603 0 
L 603 4863 
z
" transform="scale(0.015625)"/>
       <path id="DejaVuSans-73" d="M 2834 3397 
L 2834 2853 
Q 2591 2978 2328 3040 
Q 2066 3103 1784 3103 
Q 1356 3103 1142 2972 
Q 928 2841 928 2578 
Q 928 2378 1081 2264 
Q 1234 2150 1697 2047 
L 1894 2003 
Q 2506 1872 2764 1633 
Q 3022 1394 3022 966 
Q 3022 478 2636 193 
Q 2250 -91 1575 -91 
Q 1294 -91 989 -36 
Q 684 19 347 128 
L 347 722 
Q 666 556 975 473 
Q 1284 391 1588 391 
Q 1994 391 2212 530 
Q 2431 669 2431 922 
Q 2431 1156 2273 1281 
Q 2116 1406 1581 1522 
L 1381 1569 
Q 847 1681 609 1914 
Q 372 2147 372 2553 
Q 372 3047 722 3315 
Q 1072 3584 1716 3584 
Q 2034 3584 2315 3537 
Q 2597 3491 2834 3397 
z
" transform="scale(0.015625)"/>
       <path id="DejaVuSans-74" d="M 1172 4494 
L 1172 3500 
L 2356 3500 
L 2356 3053 
L 1172 3053 
L 1172 1153 
Q 1172 725 1289 603 
Q 1406 481 1766 481 
L 2356 481 
L 2356 0 
L 1766 0 
Q 1100 0 847 248 
Q 594 497 594 1153 
L 594 3053 
L 172 3053 
L 172 3500 
L 594 3500 
L 594 4494 
L 1172 4494 
z
" transform="scale(0.015625)"/>
       <path id="DejaVuSans-2e" d="M 684 794 
L 1344 794 
L 1344 0 
L 684 0 
L 684 794 
z
" transform="scale(0.015625)"/>
       <path id="DejaVuSans-75" d="M 544 1381 
L 544 3500 
L 1119 3500 
L 1119 1403 
Q 1119 906 1312 657 
Q 1506 409 1894 409 
Q 2359 409 2629 706 
Q 2900 1003 2900 1516 
L 2900 3500 
L 3475 3500 
L 3475 0 
L 2900 0 
L 2900 538 
Q 2691 219 2414 64 
Q 2138 -91 1772 -91 
Q 1169 -91 856 284 
Q 544 659 544 1381 
z
M 1991 3584 
L 1991 3584 
z
" transform="scale(0.015625)"/>
      </defs>
      <use xlink:href="#DejaVuSans-4e"/>
      <use xlink:href="#DejaVuSans-6f" x="74.804688"/>
      <use xlink:href="#DejaVuSans-72" x="135.986328"/>
      <use xlink:href="#DejaVuSans-6d" x="175.349609"/>
      <use xlink:href="#DejaVuSans-61" x="272.761719"/>
      <use xlink:href="#DejaVuSans-6c" x="334.041016"/>
      <use xlink:href="#DejaVuSans-69" x="361.824219"/>
      <use xlink:href="#DejaVuSans-73" x="389.607422"/>
      <use xlink:href="#DejaVuSans-65" x="441.707031"/>
      <use xlink:href="#DejaVuSans-64" x="503.230469"/>
      <use xlink:href="#DejaVuSans-20" x="566.707031"/>
      <use xlink:href="#DejaVuSans-69" x="598.494141"/>
      <use xlink:href="#DejaVuSans-6e" x="626.277344"/>
      <use xlink:href="#DejaVuSans-74" x="689.65625"/>
      <use xlink:href="#DejaVuSans-65" x="728.865234"/>
      <use xlink:href="#DejaVuSans-6e" x="790.388672"/>
      <use xlink:href="#DejaVuSans-73" x="853.767578"/>
      <use xlink:href="#DejaVuSans-69" x="905.867188"/>
      <use xlink:href="#DejaVuSans-74" x="933.650391"/>
      <use xlink:href="#DejaVuSans-79" x="972.859375"/>
      <use xlink:href="#DejaVuSans-20" x="1032.039062"/>
      <use xlink:href="#DejaVuSans-28" x="1063.826172"/>
      <use xlink:href="#DejaVuSans-61" x="1102.839844"/>
      <use xlink:href="#DejaVuSans-2e" x="1164.119141"/>
      <use xlink:href="#DejaVuSans-75" x="1195.90625"/>
      <use xlink:href="#DejaVuSans-2e" x="1259.285156"/>
      <use xlink:href="#DejaVuSans-29" x="1291.072266"/>
     </g>
    </g>
   </g>
   <g id="PolyCollection_5">
    <defs>
     <path id="m33577ea796" d="M 64.370831 -76.346062 
L 64.370831 -75.748408 
L 67.455914 -75.743669 
L 70.540997 -75.738338 
L 73.62608 -75.733008 
L 76.711164 -75.726492 
L 79.796247 -75.719976 
L 82.88133 -75.712869 
L 85.966413 -75.704576 
L 89.051496 -75.693914 
L 92.136579 -75.680291 
L 95.221662 -75.659559 
L 98.306745 -75.630536 
L 101.391829 -75.592035 
L 104.476912 -75.542872 
L 107.561995 -75.480085 
L 110.647078 -75.400714 
L 113.732161 -75.304758 
L 116.817244 -75.186885 
L 119.902327 -75.044728 
L 122.98741 -74.8771 
L 126.072493 -74.682818 
L 129.157577 -74.461289 
L 132.24266 -74.214882 
L 135.327743 -73.943598 
L 138.412826 -73.651583 
L 141.497909 -73.34002 
L 144.582992 -73.011873 
L 147.668075 -72.667733 
L 150.753158 -72.311154 
L 153.838241 -71.941545 
L 156.923325 -71.561865 
L 160.008408 -71.171524 
L 163.093491 -70.769929 
L 166.178574 -70.355894 
L 169.263657 -69.928829 
L 172.34874 -69.48814 
L 175.433823 -69.03679 
L 178.518906 -68.576554 
L 181.60399 -68.110396 
L 184.689073 -67.646606 
L 187.774156 -67.186963 
L 190.859239 -66.739167 
L 193.944322 -66.309732 
L 197.029405 -65.904583 
L 200.114488 -65.524904 
L 203.199571 -65.175433 
L 206.284654 -64.857355 
L 209.369738 -64.571263 
L 212.454821 -64.317156 
L 215.539904 -64.095627 
L 218.624987 -63.903714 
L 221.71007 -63.740233 
L 224.795153 -63.601037 
L 227.880236 -63.482572 
L 230.965319 -63.384839 
L 234.050402 -63.304283 
L 237.135486 -63.239719 
L 240.220569 -63.187003 
L 243.305652 -63.146725 
L 246.390735 -63.114739 
L 249.475818 -63.090454 
L 252.560901 -63.072092 
L 255.645984 -63.059061 
L 258.731067 -63.050768 
L 261.81615 -63.044845 
L 264.901234 -63.041883 
L 267.986317 -63.039514 
L 271.0714 -63.037737 
L 274.156483 -63.036552 
L 277.241566 -63.035368 
L 280.326649 -63.034183 
L 280.326649 -63.034183 
L 280.326649 -63.034183 
L 277.241566 -63.03596 
L 274.156483 -63.036552 
L 271.0714 -63.038329 
L 267.986317 -63.040699 
L 264.901234 -63.04366 
L 261.81615 -63.047806 
L 258.731067 -63.056099 
L 255.645984 -63.067945 
L 252.560901 -63.086308 
L 249.475818 -63.113554 
L 246.390735 -63.150278 
L 243.305652 -63.199441 
L 240.220569 -63.264005 
L 237.135486 -63.348115 
L 234.050402 -63.453548 
L 230.965319 -63.586229 
L 227.880236 -63.748525 
L 224.795153 -63.944584 
L 221.71007 -64.175591 
L 218.624987 -64.446875 
L 215.539904 -64.763768 
L 212.454821 -65.131008 
L 209.369738 -65.55452 
L 206.284654 -66.042594 
L 203.199571 -66.604709 
L 200.114488 -67.25745 
L 197.029405 -68.024509 
L 193.944322 -68.931949 
L 190.859239 -70.023009 
L 187.774156 -71.347444 
L 184.689073 -72.96271 
L 181.60399 -74.938109 
L 178.518906 -77.346497 
L 175.433823 -80.251844 
L 172.34874 -83.703313 
L 169.263657 -87.715121 
L 166.178574 -92.257058 
L 163.093491 -97.234352 
L 160.008408 -102.488854 
L 156.923325 -107.794296 
L 153.838241 -112.872286 
L 150.753158 -117.414816 
L 147.668075 -121.116838 
L 144.582992 -123.71773 
L 141.497909 -125.030319 
L 138.412826 -124.969902 
L 135.327743 -123.566688 
L 132.24266 -120.958687 
L 129.157577 -117.372761 
L 126.072493 -113.096185 
L 122.98741 -108.436968 
L 119.902327 -103.691271 
L 116.817244 -99.114387 
L 113.732161 -94.898228 
L 110.647078 -91.168367 
L 107.561995 -87.987589 
L 104.476912 -85.358265 
L 101.391829 -83.244855 
L 98.306745 -81.584572 
L 95.221662 -80.306338 
L 92.136579 -79.331965 
L 89.051496 -78.59393 
L 85.966413 -78.035369 
L 82.88133 -77.609489 
L 79.796247 -77.27838 
L 76.711164 -77.01598 
L 73.62608 -76.803336 
L 70.540997 -76.625639 
L 67.455914 -76.475189 
L 64.370831 -76.346062 
z
" style="stroke: #bcbddc; stroke-opacity: 0.8"/>
    </defs>
    <g clip-path="url(#pdd1be7e5ae)">
     <use xlink:href="#m33577ea796" x="0" y="510.23622" style="fill: #bcbddc; fill-opacity: 0.8; stroke: #bcbddc; stroke-opacity: 0.8"/>
    </g>
   </g>
   <g id="line2d_14">
    <path d="M 64.370831 434.487813 
L 67.455914 434.492551 
L 70.540997 434.497882 
L 73.62608 434.503213 
L 76.711164 434.509728 
L 79.796247 434.516244 
L 82.88133 434.523352 
L 85.966413 434.531644 
L 89.051496 434.542306 
L 92.136579 434.55593 
L 95.221662 434.576661 
L 98.306745 434.605685 
L 101.391829 434.644186 
L 104.476912 434.693349 
L 107.561995 434.756135 
L 110.647078 434.835506 
L 113.732161 434.931463 
L 116.817244 435.049335 
L 119.902327 435.191493 
L 122.98741 435.35912 
L 126.072493 435.553403 
L 129.157577 435.774932 
L 132.24266 436.021338 
L 135.327743 436.292622 
L 138.412826 436.584638 
L 141.497909 436.8962 
L 144.582992 437.224347 
L 147.668075 437.568487 
L 150.753158 437.925066 
L 153.838241 438.294676 
L 156.923325 438.674355 
L 160.008408 439.064697 
L 163.093491 439.466292 
L 166.178574 439.880326 
L 169.263657 440.307391 
L 172.34874 440.74808 
L 175.433823 441.199431 
L 178.518906 441.659666 
L 181.60399 442.125825 
L 184.689073 442.589614 
L 187.774156 443.049257 
L 190.859239 443.497054 
L 193.944322 443.926488 
L 197.029405 444.331638 
L 200.114488 444.711317 
L 203.199571 445.060788 
L 206.284654 445.378866 
L 209.369738 445.664958 
L 212.454821 445.919065 
L 215.539904 446.140594 
L 218.624987 446.332506 
L 221.71007 446.495988 
L 224.795153 446.635184 
L 227.880236 446.753649 
L 230.965319 446.851382 
L 234.050402 446.931938 
L 237.135486 446.996501 
L 240.220569 447.049218 
L 243.305652 447.089496 
L 246.390735 447.121481 
L 249.475818 447.145767 
L 252.560901 447.164129 
L 255.645984 447.17716 
L 258.731067 447.185452 
L 261.81615 447.191376 
L 264.901234 447.194337 
L 267.986317 447.196707 
L 271.0714 447.198483 
L 274.156483 447.199668 
L 277.241566 447.200853 
L 280.326649 447.202037 
" clip-path="url(#pdd1be7e5ae)" style="fill: none; stroke-dasharray: 5.55,2.4; stroke-dashoffset: 0; stroke: #a9a9a9; stroke-width: 1.5"/>
   </g>
   <g id="line2d_15">
    <path d="M 64.370831 433.877719 
L 67.455914 433.7403 
L 70.540997 433.578004 
L 73.62608 433.383129 
L 76.711164 433.1462 
L 79.796247 432.850038 
L 82.88133 432.473912 
L 85.966413 431.989392 
L 89.051496 431.356198 
L 92.136579 430.526353 
L 95.221662 429.440031 
L 98.306745 428.026747 
L 101.391829 426.208314 
L 104.476912 423.907729 
L 107.561995 421.059838 
L 110.647078 417.620807 
L 113.732161 413.582938 
L 116.817244 408.99243 
L 119.902327 403.950572 
L 122.98741 398.616699 
L 126.072493 393.199307 
L 129.157577 387.932366 
L 132.24266 383.046882 
L 135.327743 378.736543 
L 138.412826 375.120408 
L 141.497909 372.225131 
L 144.582992 369.974301 
L 147.668075 368.200884 
L 150.753158 366.675651 
L 153.838241 365.159303 
L 156.923325 363.447488 
L 160.008408 361.420557 
L 163.093491 359.074363 
L 166.178574 356.529149 
L 169.263657 354.011182 
L 172.34874 351.815438 
L 175.433823 350.257035 
L 178.518906 349.619102 
L 181.60399 350.110139 
L 184.689073 351.8338 
L 187.774156 354.791864 
L 190.859239 358.883635 
L 193.944322 363.93734 
L 197.029405 369.740333 
L 200.114488 376.069903 
L 203.199571 382.705703 
L 206.284654 389.452269 
L 209.369738 396.139601 
L 212.454821 402.623175 
L 215.539904 408.782155 
L 218.624987 414.519401 
L 221.71007 419.76028 
L 224.795153 424.452667 
L 227.880236 428.571093 
L 230.965319 432.109633 
L 234.050402 435.090206 
L 237.135486 437.552495 
L 240.220569 439.551587 
L 243.305652 441.149675 
L 246.390735 442.413102 
L 249.475818 443.404651 
L 252.560901 444.180595 
L 255.645984 444.786542 
L 258.731067 445.26277 
L 261.81615 445.640673 
L 264.901234 445.942165 
L 267.986317 446.186203 
L 271.0714 446.385223 
L 274.156483 446.548705 
L 277.241566 446.683162 
L 280.326649 446.794519 
" clip-path="url(#pdd1be7e5ae)" style="fill: none; stroke: #6495ed; stroke-width: 2; stroke-linecap: square"/>
   </g>
   <g id="PolyCollection_6">
    <defs>
     <path id="m1a59bf89c4" d="M 64.370831 -197.709177 
L 64.370831 -196.924753 
L 67.455914 -196.92136 
L 70.540997 -196.917401 
L 73.62608 -196.912311 
L 76.711164 -196.906655 
L 79.796247 -196.901 
L 82.88133 -196.892516 
L 85.966413 -196.88064 
L 89.051496 -196.865935 
L 92.136579 -196.844444 
L 95.221662 -196.815036 
L 98.306745 -196.776578 
L 101.391829 -196.727375 
L 104.476912 -196.664033 
L 107.561995 -196.585986 
L 110.647078 -196.490407 
L 113.732161 -196.3756 
L 116.817244 -196.238736 
L 119.902327 -196.078684 
L 122.98741 -195.893182 
L 126.072493 -195.682796 
L 129.157577 -195.448091 
L 132.24266 -195.190198 
L 135.327743 -194.91138 
L 138.412826 -194.615029 
L 141.497909 -194.302843 
L 144.582992 -193.975953 
L 147.668075 -193.63662 
L 150.753158 -193.286542 
L 153.838241 -192.924587 
L 156.923325 -192.551887 
L 160.008408 -192.16731 
L 163.093491 -191.769725 
L 166.178574 -191.360264 
L 169.263657 -190.93836 
L 172.34874 -190.503449 
L 175.433823 -190.060054 
L 178.518906 -189.611004 
L 181.60399 -189.158561 
L 184.689073 -188.708379 
L 187.774156 -188.268944 
L 190.859239 -187.843081 
L 193.944322 -187.437579 
L 197.029405 -187.056961 
L 200.114488 -186.704055 
L 203.199571 -186.381123 
L 206.284654 -186.089297 
L 209.369738 -185.825749 
L 212.454821 -185.59274 
L 215.539904 -185.387444 
L 218.624987 -185.207598 
L 221.71007 -185.053201 
L 224.795153 -184.923124 
L 227.880236 -184.812275 
L 230.965319 -184.721221 
L 234.050402 -184.647133 
L 237.135486 -184.587185 
L 240.220569 -184.540244 
L 243.305652 -184.504048 
L 246.390735 -184.476902 
L 249.475818 -184.455976 
L 252.560901 -184.440706 
L 255.645984 -184.430526 
L 258.731067 -184.422608 
L 261.81615 -184.418649 
L 264.901234 -184.415822 
L 267.986317 -184.412994 
L 271.0714 -184.409601 
L 274.156483 -184.407904 
L 277.241566 -184.406207 
L 280.326649 -184.404511 
L 280.326649 -184.404511 
L 280.326649 -184.404511 
L 277.241566 -184.406773 
L 274.156483 -184.40847 
L 271.0714 -184.410166 
L 267.986317 -184.414125 
L 264.901234 -184.417518 
L 261.81615 -184.422043 
L 258.731067 -184.428264 
L 255.645984 -184.439575 
L 252.560901 -184.455411 
L 249.475818 -184.479164 
L 246.390735 -184.5114 
L 243.305652 -184.554948 
L 240.220569 -184.6132 
L 237.135486 -184.68955 
L 234.050402 -184.787391 
L 230.965319 -184.908985 
L 227.880236 -185.058291 
L 224.795153 -185.238703 
L 221.71007 -185.450786 
L 218.624987 -185.69963 
L 215.539904 -185.989194 
L 212.454821 -186.320043 
L 209.369738 -186.697834 
L 206.284654 -187.129917 
L 203.199571 -187.623081 
L 200.114488 -188.191463 
L 197.029405 -188.851465 
L 193.944322 -189.625143 
L 190.859239 -190.543603 
L 187.774156 -191.644738 
L 184.689073 -192.976618 
L 181.60399 -194.597497 
L 178.518906 -196.570716 
L 175.433823 -198.960749 
L 172.34874 -201.828109 
L 169.263657 -205.211821 
L 166.178574 -209.118671 
L 163.093491 -213.511897 
L 160.008408 -218.297052 
L 156.923325 -223.316347 
L 153.838241 -228.356002 
L 150.753158 -233.152469 
L 147.668075 -237.422404 
L 144.582992 -240.88699 
L 141.497909 -243.308694 
L 138.412826 -244.517284 
L 135.327743 -244.438672 
L 132.24266 -243.102832 
L 129.157577 -240.635884 
L 126.072493 -237.246517 
L 122.98741 -233.19941 
L 119.902327 -228.780168 
L 116.817244 -224.263651 
L 113.732161 -219.887957 
L 110.647078 -215.837456 
L 107.561995 -212.23431 
L 104.476912 -209.140727 
L 101.391829 -206.566889 
L 98.306745 -204.482822 
L 95.221662 -202.835927 
L 92.136579 -201.55834 
L 89.051496 -200.580496 
L 85.966413 -199.837358 
L 82.88133 -199.275197 
L 79.796247 -198.845376 
L 76.711164 -198.512264 
L 73.62608 -198.249281 
L 70.540997 -198.036633 
L 67.455914 -197.859614 
L 64.370831 -197.709177 
z
" style="stroke: #bcbddc; stroke-opacity: 0.8"/>
    </defs>
    <g clip-path="url(#pdd1be7e5ae)">
     <use xlink:href="#m1a59bf89c4" x="0" y="510.23622" style="fill: #bcbddc; fill-opacity: 0.8; stroke: #bcbddc; stroke-opacity: 0.8"/>
    </g>
   </g>
   <g id="line2d_16">
    <path d="M 64.370831 313.311467 
L 67.455914 313.314861 
L 70.540997 313.31882 
L 73.62608 313.32391 
L 76.711164 313.329565 
L 79.796247 313.335221 
L 82.88133 313.343704 
L 85.966413 313.355581 
L 89.051496 313.370285 
L 92.136579 313.391776 
L 95.221662 313.421185 
L 98.306745 313.459643 
L 101.391829 313.508846 
L 104.476912 313.572188 
L 107.561995 313.650234 
L 110.647078 313.745813 
L 113.732161 313.860621 
L 116.817244 313.997485 
L 119.902327 314.157537 
L 122.98741 314.343039 
L 126.072493 314.553425 
L 129.157577 314.78813 
L 132.24266 315.046023 
L 135.327743 315.324841 
L 138.412826 315.621191 
L 141.497909 315.933377 
L 144.582992 316.260268 
L 147.668075 316.5996 
L 150.753158 316.949679 
L 153.838241 317.311633 
L 156.923325 317.684334 
L 160.008408 318.068911 
L 163.093491 318.466495 
L 166.178574 318.875957 
L 169.263657 319.29786 
L 172.34874 319.732772 
L 175.433823 320.176166 
L 178.518906 320.625216 
L 181.60399 321.07766 
L 184.689073 321.527841 
L 187.774156 321.967277 
L 190.859239 322.393139 
L 193.944322 322.798642 
L 197.029405 323.17926 
L 200.114488 323.532166 
L 203.199571 323.855097 
L 206.284654 324.146923 
L 209.369738 324.410472 
L 212.454821 324.64348 
L 215.539904 324.848776 
L 218.624987 325.028623 
L 221.71007 325.183019 
L 224.795153 325.313096 
L 227.880236 325.423945 
L 230.965319 325.514999 
L 234.050402 325.589087 
L 237.135486 325.649036 
L 240.220569 325.695977 
L 243.305652 325.732172 
L 246.390735 325.759319 
L 249.475818 325.780244 
L 252.560901 325.795514 
L 255.645984 325.805694 
L 258.731067 325.813612 
L 261.81615 325.817571 
L 264.901234 325.820399 
L 267.986317 325.823227 
L 271.0714 325.82662 
L 274.156483 325.828317 
L 277.241566 325.830013 
L 280.326649 325.83171 
" clip-path="url(#pdd1be7e5ae)" style="fill: none; stroke-dasharray: 5.55,2.4; stroke-dashoffset: 0; stroke: #a9a9a9; stroke-width: 1.5"/>
   </g>
   <g id="line2d_17">
    <path d="M 64.370831 312.497635 
L 67.455914 312.331927 
L 70.540997 312.132852 
L 73.62608 311.890795 
L 76.711164 311.588223 
L 79.796247 311.203081 
L 82.88133 310.707655 
L 85.966413 310.064054 
L 89.051496 309.222509 
L 92.136579 308.127596 
L 95.221662 306.712014 
L 98.306745 304.903371 
L 101.391829 302.63267 
L 104.476912 299.841659 
L 107.561995 296.493012 
L 110.647078 292.586728 
L 113.732161 288.169183 
L 116.817244 283.338217 
L 119.902327 278.246531 
L 122.98741 273.086979 
L 126.072493 268.076167 
L 129.157577 263.426179 
L 132.24266 259.311771 
L 135.327743 255.840399 
L 138.412826 253.032987 
L 141.497909 250.816014 
L 144.582992 249.034518 
L 147.668075 247.474719 
L 150.753158 245.912658 
L 153.838241 244.15548 
L 156.923325 242.086682 
L 160.008408 239.694953 
L 163.093491 237.083223 
L 166.178574 234.457354 
L 169.263657 232.092206 
L 172.34874 230.291481 
L 175.433823 229.330604 
L 178.518906 229.421658 
L 181.60399 230.686803 
L 184.689073 233.143006 
L 187.774156 236.711654 
L 190.859239 241.245703 
L 193.944322 246.5523 
L 197.029405 252.422188 
L 200.114488 258.654597 
L 203.199571 265.066287 
L 206.284654 271.498902 
L 209.369738 277.8218 
L 212.454821 283.918476 
L 215.539904 289.693917 
L 218.624987 295.067815 
L 221.71007 299.972302 
L 224.795153 304.363266 
L 227.880236 308.216388 
L 230.965319 311.52884 
L 234.050402 314.319285 
L 237.135486 316.627878 
L 240.220569 318.502691 
L 243.305652 320.004803 
L 246.390735 321.194164 
L 249.475818 322.129591 
L 252.560901 322.863681 
L 255.645984 323.43998 
L 258.731067 323.895252 
L 261.81615 324.257206 
L 264.901234 324.549033 
L 267.986317 324.787131 
L 271.0714 324.984509 
L 274.156483 325.145692 
L 277.241566 325.28086 
L 280.326649 325.39284 
" clip-path="url(#pdd1be7e5ae)" style="fill: none; stroke: #cd5c5c; stroke-width: 2; stroke-linecap: square"/>
   </g>
   <g id="patch_3">
    <path d="M 33.52 451.71622 
L 33.52 10.8 
" style="fill: none; stroke: #000000; stroke-width: 2; stroke-linejoin: miter; stroke-linecap: square"/>
   </g>
   <g id="patch_4">
    <path d="M 311.17748 451.71622 
L 311.17748 10.8 
" style="fill: none; stroke: #000000; stroke-width: 2; stroke-linejoin: miter; stroke-linecap: square"/>
   </g>
   <g id="patch_5">
    <path d="M 33.52 451.71622 
L 311.17748 451.71622 
" style="fill: none; stroke: #000000; stroke-width: 2; stroke-linejoin: miter; stroke-linecap: square"/>
   </g>
   <g id="patch_6">
    <path d="M 33.52 10.8 
L 311.17748 10.8 
" style="fill: none; stroke: #000000; stroke-width: 2; stroke-linejoin: miter; stroke-linecap: square"/>
   </g>
   <g id="text_7">
    <!-- C=O -->
    <g style="fill: #756bb1" transform="translate(208.442384 213.93152) rotate(-90) scale(0.19 -0.19)">
     <defs>
      <path id="DejaVuSans-43" d="M 4122 4306 
L 4122 3641 
Q 3803 3938 3442 4084 
Q 3081 4231 2675 4231 
Q 1875 4231 1450 3742 
Q 1025 3253 1025 2328 
Q 1025 1406 1450 917 
Q 1875 428 2675 428 
Q 3081 428 3442 575 
Q 3803 722 4122 1019 
L 4122 359 
Q 3791 134 3420 21 
Q 3050 -91 2638 -91 
Q 1578 -91 968 557 
Q 359 1206 359 2328 
Q 359 3453 968 4101 
Q 1578 4750 2638 4750 
Q 3056 4750 3426 4639 
Q 3797 4528 4122 4306 
z
" transform="scale(0.015625)"/>
      <path id="DejaVuSans-3d" d="M 678 2906 
L 4684 2906 
L 4684 2381 
L 678 2381 
L 678 2906 
z
M 678 1631 
L 4684 1631 
L 4684 1100 
L 678 1100 
L 678 1631 
z
" transform="scale(0.015625)"/>
      <path id="DejaVuSans-4f" d="M 2522 4238 
Q 1834 4238 1429 3725 
Q 1025 3213 1025 2328 
Q 1025 1447 1429 934 
Q 1834 422 2522 422 
Q 3209 422 3611 934 
Q 4013 1447 4013 2328 
Q 4013 3213 3611 3725 
Q 3209 4238 2522 4238 
z
M 2522 4750 
Q 3503 4750 4090 4092 
Q 4678 3434 4678 2328 
Q 4678 1225 4090 567 
Q 3503 -91 2522 -91 
Q 1538 -91 948 565 
Q 359 1222 359 2328 
Q 359 3434 948 4092 
Q 1538 4750 2522 4750 
z
" transform="scale(0.015625)"/>
     </defs>
     <use xlink:href="#DejaVuSans-43"/>
     <use xlink:href="#DejaVuSans-3d" x="69.824219"/>
     <use xlink:href="#DejaVuSans-4f" x="153.613281"/>
    </g>
   </g>
   <g id="text_8">
    <!-- H-O-C -->
    <g style="fill: #9e9ac8" transform="translate(180.676636 213.93152) rotate(-90) scale(0.19 -0.19)">
     <defs>
      <path id="DejaVuSans-48" d="M 628 4666 
L 1259 4666 
L 1259 2753 
L 3553 2753 
L 3553 4666 
L 4184 4666 
L 4184 0 
L 3553 0 
L 3553 2222 
L 1259 2222 
L 1259 0 
L 628 0 
L 628 4666 
z
" transform="scale(0.015625)"/>
      <path id="DejaVuSans-2d" d="M 313 2009 
L 1997 2009 
L 1997 1497 
L 313 1497 
L 313 2009 
z
" transform="scale(0.015625)"/>
     </defs>
     <use xlink:href="#DejaVuSans-48"/>
     <use xlink:href="#DejaVuSans-2d" x="75.195312"/>
     <use xlink:href="#DejaVuSans-4f" x="114.029297"/>
     <use xlink:href="#DejaVuSans-2d" x="195.490234"/>
     <use xlink:href="#DejaVuSans-43" x="231.574219"/>
    </g>
   </g>
   <g id="text_9">
    <!-- O-C=O, O-H -->
    <g style="fill: #bcbddc" transform="translate(143.655638 213.93152) rotate(-90) scale(0.19 -0.19)">
     <defs>
      <path id="DejaVuSans-2c" d="M 750 794 
L 1409 794 
L 1409 256 
L 897 -744 
L 494 -744 
L 750 256 
L 750 794 
z
" transform="scale(0.015625)"/>
     </defs>
     <use xlink:href="#DejaVuSans-4f"/>
     <use xlink:href="#DejaVuSans-2d" x="81.460938"/>
     <use xlink:href="#DejaVuSans-43" x="117.544922"/>
     <use xlink:href="#DejaVuSans-3d" x="187.369141"/>
     <use xlink:href="#DejaVuSans-4f" x="271.158203"/>
     <use xlink:href="#DejaVuSans-2c" x="349.869141"/>
     <use xlink:href="#DejaVuSans-20" x="381.65625"/>
     <use xlink:href="#DejaVuSans-4f" x="413.443359"/>
     <use xlink:href="#DejaVuSans-2d" x="494.904297"/>
     <use xlink:href="#DejaVuSans-48" x="530.988281"/>
    </g>
   </g>
   <g id="text_10">
    <!-- O 1s -->
    <g transform="translate(36.296575 32.685568) scale(0.23 -0.23)">
     <defs>
      <path id="Verdana-Bold-4f" d="M 5119 2325 
Q 5119 1213 4481 558 
Q 3844 -97 2719 -97 
Q 1597 -97 959 558 
Q 322 1213 322 2325 
Q 322 3447 959 4098 
Q 1597 4750 2719 4750 
Q 3838 4750 4478 4098 
Q 5119 3447 5119 2325 
z
M 3528 1147 
Q 3703 1359 3787 1648 
Q 3872 1938 3872 2328 
Q 3872 2747 3775 3040 
Q 3678 3334 3522 3516 
Q 3363 3703 3155 3787 
Q 2947 3872 2722 3872 
Q 2494 3872 2292 3790 
Q 2091 3709 1922 3522 
Q 1766 3347 1667 3039 
Q 1569 2731 1569 2325 
Q 1569 1909 1664 1617 
Q 1759 1325 1916 1141 
Q 2072 956 2281 868 
Q 2491 781 2722 781 
Q 2953 781 3162 870 
Q 3372 959 3528 1147 
z
" transform="scale(0.015625)"/>
      <path id="Verdana-Bold-20" transform="scale(0.015625)"/>
      <path id="Verdana-Bold-31" d="M 3938 0 
L 831 0 
L 831 813 
L 1813 813 
L 1813 3272 
L 831 3272 
L 831 4031 
Q 1056 4031 1262 4057 
Q 1469 4084 1606 4150 
Q 1769 4228 1850 4353 
Q 1931 4478 1944 4666 
L 2978 4666 
L 2978 813 
L 3938 813 
L 3938 0 
z
" transform="scale(0.015625)"/>
      <path id="Verdana-Bold-73" d="M 3581 1113 
Q 3581 569 3093 236 
Q 2606 -97 1759 -97 
Q 1291 -97 909 -9 
Q 528 78 297 184 
L 297 1109 
L 400 1109 
Q 484 1050 595 979 
Q 706 909 909 828 
Q 1084 756 1306 704 
Q 1528 653 1781 653 
Q 2113 653 2272 726 
Q 2431 800 2431 944 
Q 2431 1072 2337 1130 
Q 2244 1188 1981 1241 
Q 1856 1269 1642 1301 
Q 1428 1334 1253 1381 
Q 775 1506 544 1770 
Q 313 2034 313 2428 
Q 313 2934 792 3270 
Q 1272 3606 2103 3606 
Q 2497 3606 2858 3526 
Q 3219 3447 3422 3356 
L 3422 2469 
L 3325 2469 
Q 3075 2641 2754 2748 
Q 2434 2856 2106 2856 
Q 1834 2856 1648 2781 
Q 1463 2706 1463 2569 
Q 1463 2444 1547 2378 
Q 1631 2313 1944 2247 
Q 2116 2213 2314 2180 
Q 2513 2147 2713 2097 
Q 3156 1981 3368 1732 
Q 3581 1484 3581 1113 
z
" transform="scale(0.015625)"/>
     </defs>
     <use xlink:href="#Verdana-Bold-4f"/>
     <use xlink:href="#Verdana-Bold-20" x="85.009766"/>
     <use xlink:href="#Verdana-Bold-31" x="119.189453"/>
     <use xlink:href="#Verdana-Bold-73" x="190.283203"/>
    </g>
   </g>
   <g id="legend_1">
    <g id="line2d_18">
     <path d="M 174.34498 29.137813 
L 188.34498 29.137813 
L 202.34498 29.137813 
" style="fill: none; stroke: #6495ed; stroke-width: 3; stroke-linecap: square"/>
    </g>
    <g id="text_11">
     <!-- P-OH-NR$_2$ -->
     <g transform="translate(213.54498 34.037813) scale(0.14 -0.14)">
      <defs>
       <path id="Verdana-50" d="M 3669 3247 
Q 3669 2938 3561 2673 
Q 3453 2409 3259 2216 
Q 3019 1975 2691 1854 
Q 2363 1734 1863 1734 
L 1244 1734 
L 1244 0 
L 625 0 
L 625 4653 
L 1888 4653 
Q 2306 4653 2597 4583 
Q 2888 4513 3113 4363 
Q 3378 4184 3523 3918 
Q 3669 3653 3669 3247 
z
M 3025 3231 
Q 3025 3472 2940 3650 
Q 2856 3828 2684 3941 
Q 2534 4038 2342 4080 
Q 2150 4122 1856 4122 
L 1244 4122 
L 1244 2263 
L 1766 2263 
Q 2141 2263 2375 2330 
Q 2609 2397 2756 2544 
Q 2903 2694 2964 2859 
Q 3025 3025 3025 3231 
z
" transform="scale(0.015625)"/>
       <path id="Verdana-2d" d="M 2428 1753 
L 478 1753 
L 478 2319 
L 2428 2319 
L 2428 1753 
z
" transform="scale(0.015625)"/>
       <path id="Verdana-4f" d="M 4094 4119 
Q 4378 3806 4529 3353 
Q 4681 2900 4681 2325 
Q 4681 1750 4526 1295 
Q 4372 841 4094 538 
Q 3806 222 3414 62 
Q 3022 -97 2519 -97 
Q 2028 -97 1626 65 
Q 1225 228 944 538 
Q 663 847 511 1297 
Q 359 1747 359 2325 
Q 359 2894 509 3345 
Q 659 3797 947 4119 
Q 1222 4425 1630 4587 
Q 2038 4750 2519 4750 
Q 3019 4750 3417 4586 
Q 3816 4422 4094 4119 
z
M 4038 2325 
Q 4038 3231 3631 3723 
Q 3225 4216 2522 4216 
Q 1813 4216 1408 3723 
Q 1003 3231 1003 2325 
Q 1003 1409 1415 923 
Q 1828 438 2522 438 
Q 3216 438 3627 923 
Q 4038 1409 4038 2325 
z
" transform="scale(0.015625)"/>
       <path id="Verdana-48" d="M 4184 0 
L 3566 0 
L 3566 2278 
L 1244 2278 
L 1244 0 
L 625 0 
L 625 4653 
L 1244 4653 
L 1244 2828 
L 3566 2828 
L 3566 4653 
L 4184 4653 
L 4184 0 
z
" transform="scale(0.015625)"/>
       <path id="Verdana-4e" d="M 4175 0 
L 3409 0 
L 1203 4163 
L 1203 0 
L 625 0 
L 625 4653 
L 1584 4653 
L 3597 853 
L 3597 4653 
L 4175 4653 
L 4175 0 
z
" transform="scale(0.015625)"/>
       <path id="Verdana-52" d="M 4475 0 
L 3672 0 
L 2116 1850 
L 1244 1850 
L 1244 0 
L 625 0 
L 625 4653 
L 1928 4653 
Q 2350 4653 2631 4598 
Q 2913 4544 3138 4403 
Q 3391 4244 3533 4001 
Q 3675 3759 3675 3388 
Q 3675 2884 3422 2545 
Q 3169 2206 2725 2034 
L 4475 0 
z
M 3028 3344 
Q 3028 3544 2958 3698 
Q 2888 3853 2725 3959 
Q 2591 4050 2406 4086 
Q 2222 4122 1972 4122 
L 1244 4122 
L 1244 2366 
L 1869 2366 
Q 2163 2366 2381 2417 
Q 2600 2469 2753 2609 
Q 2894 2741 2961 2911 
Q 3028 3081 3028 3344 
z
" transform="scale(0.015625)"/>
       <path id="DejaVuSans-32" d="M 1228 531 
L 3431 531 
L 3431 0 
L 469 0 
L 469 531 
Q 828 903 1448 1529 
Q 2069 2156 2228 2338 
Q 2531 2678 2651 2914 
Q 2772 3150 2772 3378 
Q 2772 3750 2511 3984 
Q 2250 4219 1831 4219 
Q 1534 4219 1204 4116 
Q 875 4013 500 3803 
L 500 4441 
Q 881 4594 1212 4672 
Q 1544 4750 1819 4750 
Q 2544 4750 2975 4387 
Q 3406 4025 3406 3419 
Q 3406 3131 3298 2873 
Q 3191 2616 2906 2266 
Q 2828 2175 2409 1742 
Q 1991 1309 1228 531 
z
" transform="scale(0.015625)"/>
      </defs>
      <use xlink:href="#Verdana-50" transform="translate(0 0.78125)"/>
      <use xlink:href="#Verdana-2d" transform="translate(60.302734 0.78125)"/>
      <use xlink:href="#Verdana-4f" transform="translate(105.712891 0.78125)"/>
      <use xlink:href="#Verdana-48" transform="translate(184.423828 0.78125)"/>
      <use xlink:href="#Verdana-2d" transform="translate(259.570312 0.78125)"/>
      <use xlink:href="#Verdana-4e" transform="translate(304.980469 0.78125)"/>
      <use xlink:href="#Verdana-52" transform="translate(378.785156 0.78125)"/>
      <use xlink:href="#DejaVuSans-32" transform="translate(449.273438 -15.625) scale(0.7)"/>
     </g>
    </g>
    <g id="line2d_19">
     <path d="M 174.34498 49.593125 
L 188.34498 49.593125 
L 202.34498 49.593125 
" style="fill: none; stroke: #cd5c5c; stroke-width: 3; stroke-linecap: square"/>
    </g>
    <g id="text_12">
     <!-- P-OH-COOH -->
     <g transform="translate(213.54498 54.493125) scale(0.14 -0.14)">
      <defs>
       <path id="Verdana-43" d="M 4219 338 
Q 4047 263 3908 197 
Q 3769 131 3544 59 
Q 3353 0 3129 -42 
Q 2906 -84 2638 -84 
Q 2131 -84 1717 58 
Q 1303 200 997 503 
Q 697 800 528 1258 
Q 359 1716 359 2322 
Q 359 2897 521 3350 
Q 684 3803 991 4116 
Q 1288 4419 1708 4578 
Q 2128 4738 2641 4738 
Q 3016 4738 3389 4647 
Q 3763 4556 4219 4328 
L 4219 3594 
L 4172 3594 
Q 3788 3916 3409 4062 
Q 3031 4209 2600 4209 
Q 2247 4209 1964 4095 
Q 1681 3981 1459 3741 
Q 1244 3506 1123 3148 
Q 1003 2791 1003 2322 
Q 1003 1831 1136 1478 
Q 1269 1125 1478 903 
Q 1697 672 1989 561 
Q 2281 450 2606 450 
Q 3053 450 3443 603 
Q 3834 756 4175 1063 
L 4219 1063 
L 4219 338 
z
" transform="scale(0.015625)"/>
      </defs>
      <use xlink:href="#Verdana-50"/>
      <use xlink:href="#Verdana-2d" x="60.302734"/>
      <use xlink:href="#Verdana-4f" x="105.712891"/>
      <use xlink:href="#Verdana-48" x="184.423828"/>
      <use xlink:href="#Verdana-2d" x="259.570312"/>
      <use xlink:href="#Verdana-43" x="304.980469"/>
      <use xlink:href="#Verdana-4f" x="374.804688"/>
      <use xlink:href="#Verdana-4f" x="453.515625"/>
      <use xlink:href="#Verdana-48" x="532.226562"/>
     </g>
    </g>
   </g>
  </g>
 </g>
 <defs>
  <clipPath id="pdd1be7e5ae">
   <rect x="33.52" y="10.8" width="277.65748" height="440.91622"/>
  </clipPath>
 </defs>
</svg>
